  0
SECTION
  2
HEADER
  9
$ACADVER
  1
AC1024
  9
$ACADMAINTVER
 70
     6
  9
$DWGCODEPAGE
  3
UNDEFINED
  9
$INSBASE
 10
0.0
 20
0.0
 30
0.0
  9
$EXTMIN
 10
1.000000000000000E+20
 20
1.000000000000000E+20
 30
1.000000000000000E+20
  9
$EXTMAX
 10
-1.000000000000000E+20
 20
-1.000000000000000E+20
 30
-1.000000000000000E+20
  9
$LIMMIN
 10
0.0
 20
0.0
  9
$LIMMAX
 10
12.0
 20
9.0
  9
$ORTHOMODE
 70
     0
  9
$REGENMODE
 70
     1
  9
$FILLMODE
 70
     1
  9
$QTEXTMODE
 70
     0
  9
$MIRRTEXT
 70
     1
  9
$LTSCALE
 40
1.0
  9
$ATTMODE
 70
     1
  9
$TEXTSIZE
 40
0.2
  9
$TRACEWID
 40
0.05
  9
$TEXTSTYLE
  7
Standard
  9
$CLAYER
  8
0
  9
$CELTYPE
  6
ByLayer
  9
$CECOLOR
 62
   256
  9
$CELTSCALE
 40
1.0
  9
$DISPSILH
 70
     0
  9
$DIMSCALE
 40
1.0
  9
$DIMASZ
 40
0.18
  9
$DIMEXO
 40
0.0625
  9
$DIMDLI
 40
0.38
  9
$DIMRND
 40
0.0
  9
$DIMDLE
 40
0.0
  9
$DIMEXE
 40
0.18
  9
$DIMTP
 40
0.0
  9
$DIMTM
 40
0.0
  9
$DIMTXT
 40
0.18
  9
$DIMCEN
 40
0.09
  9
$DIMTSZ
 40
0.0
  9
$DIMTOL
 70
     0
  9
$DIMLIM
 70
     0
  9
$DIMTIH
 70
     1
  9
$DIMTOH
 70
     1
  9
$DIMSE1
 70
     0
  9
$DIMSE2
 70
     0
  9
$DIMTAD
 70
     0
  9
$DIMZIN
 70
     0
  9
$DIMBLK
  1

  9
$DIMASO
 70
     1
  9
$DIMSHO
 70
     1
  9
$DIMPOST
  1

  9
$DIMAPOST
  1

  9
$DIMALT
 70
     0
  9
$DIMALTD
 70
     2
  9
$DIMALTF
 40
25.4
  9
$DIMLFAC
 40
1.0
  9
$DIMTOFL
 70
     0
  9
$DIMTVP
 40
0.0
  9
$DIMTIX
 70
     0
  9
$DIMSOXD
 70
     0
  9
$DIMSAH
 70
     0
  9
$DIMBLK1
  1

  9
$DIMBLK2
  1

  9
$DIMSTYLE
  2
Standard
  9
$DIMCLRD
 70
     0
  9
$DIMCLRE
 70
     0
  9
$DIMCLRT
 70
     0
  9
$DIMTFAC
 40
1.0
  9
$DIMGAP
 40
0.09
  9
$DIMJUST
 70
     0
  9
$DIMSD1
 70
     0
  9
$DIMSD2
 70
     0
  9
$DIMTOLJ
 70
     1
  9
$DIMTZIN
 70
     0
  9
$DIMALTZ
 70
     0
  9
$DIMALTTZ
 70
     0
  9
$DIMUPT
 70
     0
  9
$DIMDEC
 70
     4
  9
$DIMTDEC
 70
     4
  9
$DIMALTU
 70
     2
  9
$DIMALTTD
 70
     2
  9
$DIMTXSTY
  7
Standard
  9
$DIMAUNIT
 70
     0
  9
$DIMADEC
 70
     0
  9
$DIMALTRND
 40
0.0
  9
$DIMAZIN
 70
     0
  9
$DIMDSEP
 70
    46
  9
$DIMATFIT
 70
     3
  9
$DIMFRAC
 70
     0
  9
$DIMLDRBLK
  1

  9
$DIMLUNIT
 70
     2
  9
$DIMLWD
 70
    -2
  9
$DIMLWE
 70
    -2
  9
$DIMTMOVE
 70
     0
  9
$DIMFXL
 40
1.0
  9
$DIMFXLON
 70
     0
  9
$DIMJOGANG
 40
0.7853981633974483
  9
$DIMTFILL
 70
     0
  9
$DIMTFILLCLR
 70
     0
  9
$DIMARCSYM
 70
     0
  9
$DIMLTYPE
  6

  9
$DIMLTEX1
  6

  9
$DIMLTEX2
  6

  9
$DIMTXTDIRECTION
 70
     0
  9
$LUNITS
 70
     2
  9
$LUPREC
 70
     4
  9
$SKETCHINC
 40
0.1
  9
$FILLETRAD
 40
0.5
  9
$AUNITS
 70
     0
  9
$AUPREC
 70
     0
  9
$MENU
  1
.
  9
$ELEVATION
 40
0.0
  9
$PELEVATION
 40
0.0
  9
$THICKNESS
 40
0.0
  9
$LIMCHECK
 70
     0
  9
$CHAMFERA
 40
0.5
  9
$CHAMFERB
 40
0.5
  9
$CHAMFERC
 40
1.0
  9
$CHAMFERD
 40
0.0
  9
$SKPOLY
 70
     0
  9
$TDCREATE
 40
2458164.674618056
  9
$TDUCREATE
 40
2458165.007951389
  9
$TDUPDATE
 40
2458164.674618056
  9
$TDUUPDATE
 40
2458165.007951389
  9
$TDINDWG
 40
0.0000000116
  9
$TDUSRTIMER
 40
0.0000000116
  9
$USRTIMER
 70
     1
  9
$ANGBASE
 50
0.0
  9
$ANGDIR
 70
     0
  9
$PDMODE
 70
     0
  9
$PDSIZE
 40
0.0
  9
$PLINEWID
 40
0.0
  9
$SPLFRAME
 70
     0
  9
$SPLINETYPE
 70
     6
  9
$SPLINESEGS
 70
     8
  9
$HANDSEED
  5
49
  9
$SURFTAB1
 70
     6
  9
$SURFTAB2
 70
     6
  9
$SURFTYPE
 70
     6
  9
$SURFU
 70
     6
  9
$SURFV
 70
     6
  9
$UCSBASE
  2

  9
$UCSNAME
  2

  9
$UCSORG
 10
0.0
 20
0.0
 30
0.0
  9
$UCSXDIR
 10
1.0
 20
0.0
 30
0.0
  9
$UCSYDIR
 10
0.0
 20
1.0
 30
0.0
  9
$UCSORTHOREF
  2

  9
$UCSORTHOVIEW
 70
     0
  9
$UCSORGTOP
 10
0.0
 20
0.0
 30
0.0
  9
$UCSORGBOTTOM
 10
0.0
 20
0.0
 30
0.0
  9
$UCSORGLEFT
 10
0.0
 20
0.0
 30
0.0
  9
$UCSORGRIGHT
 10
0.0
 20
0.0
 30
0.0
  9
$UCSORGFRONT
 10
0.0
 20
0.0
 30
0.0
  9
$UCSORGBACK
 10
0.0
 20
0.0
 30
0.0
  9
$PUCSBASE
  2

  9
$PUCSNAME
  2

  9
$PUCSORG
 10
0.0
 20
0.0
 30
0.0
  9
$PUCSXDIR
 10
1.0
 20
0.0
 30
0.0
  9
$PUCSYDIR
 10
0.0
 20
1.0
 30
0.0
  9
$PUCSORTHOREF
  2

  9
$PUCSORTHOVIEW
 70
     0
  9
$PUCSORGTOP
 10
0.0
 20
0.0
 30
0.0
  9
$PUCSORGBOTTOM
 10
0.0
 20
0.0
 30
0.0
  9
$PUCSORGLEFT
 10
0.0
 20
0.0
 30
0.0
  9
$PUCSORGRIGHT
 10
0.0
 20
0.0
 30
0.0
  9
$PUCSORGFRONT
 10
0.0
 20
0.0
 30
0.0
  9
$PUCSORGBACK
 10
0.0
 20
0.0
 30
0.0
  9
$USERI1
 70
     0
  9
$USERI2
 70
     0
  9
$USERI3
 70
     0
  9
$USERI4
 70
     0
  9
$USERI5
 70
     0
  9
$USERR1
 40
0.0
  9
$USERR2
 40
0.0
  9
$USERR3
 40
0.0
  9
$USERR4
 40
0.0
  9
$USERR5
 40
0.0
  9
$WORLDVIEW
 70
     1
  9
$SHADEDGE
 70
     3
  9
$SHADEDIF
 70
    70
  9
$TILEMODE
 70
     1
  9
$MAXACTVP
 70
    64
  9
$PINSBASE
 10
0.0
 20
0.0
 30
0.0
  9
$PLIMCHECK
 70
     0
  9
$PEXTMIN
 10
1.000000000000000E+20
 20
1.000000000000000E+20
 30
1.000000000000000E+20
  9
$PEXTMAX
 10
-1.000000000000000E+20
 20
-1.000000000000000E+20
 30
-1.000000000000000E+20
  9
$PLIMMIN
 10
0.0
 20
0.0
  9
$PLIMMAX
 10
12.0
 20
9.0
  9
$UNITMODE
 70
     0
  9
$VISRETAIN
 70
     1
  9
$PLINEGEN
 70
     0
  9
$PSLTSCALE
 70
     1
  9
$TREEDEPTH
 70
  3020
  9
$CMLSTYLE
  2
Standard
  9
$CMLJUST
 70
     0
  9
$CMLSCALE
 40
1.0
  9
$PROXYGRAPHICS
 70
     1
  9
$MEASUREMENT
 70
     0
  9
$CELWEIGHT
370
    -1
  9
$ENDCAPS
280
     0
  9
$JOINSTYLE
280
     0
  9
$LWDISPLAY
290
     1
  9
$INSUNITS
 70
     1
  9
$HYPERLINKBASE
  1

  9
$STYLESHEET
  1

  9
$XEDIT
290
     1
  9
$CEPSNTYPE
380
     0
  9
$PSTYLEMODE
290
     1
  9
$FINGERPRINTGUID
  2
{A5C789F6-2AEA-0C47-D91C-6962197D8FFC}
  9
$VERSIONGUID
  2
{FAEB1C32-E019-11D5-929B-00C0DF256EC4}
  9
$EXTNAMES
290
     1
  9
$PSVPSCALE
 40
0.0
  9
$OLESTARTUP
290
     0
  9
$SORTENTS
280
   127
  9
$INDEXCTL
280
     0
  9
$HIDETEXT
280
     1
  9
$XCLIPFRAME
280
     2
  9
$HALOGAP
280
     0
  9
$OBSCOLOR
 70
   257
  9
$OBSLTYPE
280
     0
  9
$INTERSECTIONDISPLAY
280
     0
  9
$INTERSECTIONCOLOR
 70
   257
  9
$DIMASSOC
280
     2
  9
$PROJECTNAME
  1

  9
$CAMERADISPLAY
290
     0
  9
$LENSLENGTH
 40
50.0
  9
$CAMERAHEIGHT
 40
0.0
  9
$STEPSPERSEC
 40
2.0
  9
$STEPSIZE
 40
6.0
  9
$3DDWFPREC
 40
2.0
  9
$PSOLWIDTH
 40
0.25
  9
$PSOLHEIGHT
 40
4.0
  9
$LOFTANG1
 40
1.570796326794897
  9
$LOFTANG2
 40
1.570796326794897
  9
$LOFTMAG1
 40
0.0
  9
$LOFTMAG2
 40
0.0
  9
$LOFTPARAM
 70
     7
  9
$LOFTNORMALS
280
     1
  9
$LATITUDE
 40
37.795
  9
$LONGITUDE
 40
-122.394
  9
$NORTHDIRECTION
 40
0.0
  9
$TIMEZONE
 70
 -8000
  9
$LIGHTGLYPHDISPLAY
280
     1
  9
$TILEMODELIGHTSYNCH
280
     1
  9
$CMATERIAL
347
3C
  9
$SOLIDHIST
280
     1
  9
$SHOWHIST
280
     1
  9
$DWFFRAME
280
     2
  9
$DGNFRAME
280
     2
  9
$REALWORLDSCALE
290
     1
  9
$INTERFERECOLOR
 62
   256
  9
$CSHADOW
280
     0
  9
$SHADOWPLANELOCATION
 40
0.0
  0
ENDSEC
  0
SECTION
  2
CLASSES
  0
CLASS
  1
ACDBDICTIONARYWDFLT
  2
AcDbDictionaryWithDefault
  3
ObjectDBX Classes
 90
        0
 91
        4
280
     0
281
     0
  0
CLASS
  1
VISUALSTYLE
  2
AcDbVisualStyle
  3
ObjectDBX Classes
 90
     4095
 91
        4
280
     0
281
     0
  0
CLASS
  1
MATERIAL
  2
AcDbMaterial
  3
ObjectDBX Classes
 90
     1153
 91
        4
280
     0
281
     0
  0
CLASS
  1
SUN
  2
AcDbSun
  3
SCENEOE
 90
     1024
 91
        4
280
     0
281
     0
  0
ENDSEC
  0
SECTION
  2
TABLES
  0
TABLE
  2
VPORT
  5
8
330
0
100
AcDbSymbolTable
 70
     1
  0
VPORT
  5
29
330
8
100
AcDbSymbolTableRecord
100
AcDbViewportTableRecord
  2
*Active
 70
     0
 10
0.0
 20
0.0
 11
1.0
 21
1.0
 12
0.0
 22
0.0
 13
0.0
 23
0.0
 14
0.5
 24
0.5
 15
0.5
 25
0.5
 16
0.0
 26
0.0
 36
1.0
 17
7.083333333333332
 27
-2.5
 37
0.0
 40
5.0
 41
0.9777777777777776
 42
50.0
 43
0.0
 44
0.0
 50
0.0
 51
0.0
 71
     0
 72
   100
 73
     1
 74
     3
 75
     0
 76
     0
 77
     0
 78
     0
281
     0
 65
     1
110
0.0
120
0.0
130
0.0
111
1.0
121
0.0
131
0.0
112
0.0
122
1.0
132
0.0
 79
     0
146
0.0
 60
     3
 61
     5
292
     1
282
     1
141
0.0
142
0.0
 63
   250
361
3F
  0
ENDTAB
  0
TABLE
  2
LTYPE
  5
5
330
0
100
AcDbSymbolTable
 70
     1
  0
LTYPE
  5
14
330
5
100
AcDbSymbolTableRecord
100
AcDbLinetypeTableRecord
  2
ByBlock
 70
     0
  3

 72
    65
 73
     0
 40
0.0
  0
LTYPE
  5
15
330
5
100
AcDbSymbolTableRecord
100
AcDbLinetypeTableRecord
  2
ByLayer
 70
     0
  3

 72
    65
 73
     0
 40
0.0
  0
LTYPE
  5
16
330
5
100
AcDbSymbolTableRecord
100
AcDbLinetypeTableRecord
  2
Continuous
 70
     0
  3
Solid line
 72
    65
 73
     0
 40
0.0
  0
ENDTAB
  0
TABLE
  2
LAYER
  5
2
330
0
100
AcDbSymbolTable
 70
     2
  0
LAYER
  5
10
330
2
100
AcDbSymbolTableRecord
100
AcDbLayerTableRecord
  2
0
 70
     0
 62
     7
  6
Continuous
370
    -3
390
F
347
3E
  0
LAYER
  5
40
330
2
100
AcDbSymbolTableRecord
100
AcDbLayerTableRecord
  2
Layer 1
 70
     0
 62
     7
  6
Continuous
370
    -3
390
F
347
3E
  0
ENDTAB
  0
TABLE
  2
STYLE
  5
3
330
0
100
AcDbSymbolTable
 70
     1
  0
STYLE
  5
11
330
3
100
AcDbSymbolTableRecord
100
AcDbTextStyleTableRecord
  2
Standard
 70
     0
 40
0.0
 41
1.0
 50
0.0
 71
     0
 42
0.2
  3
txt
  4

  0
ENDTAB
  0
TABLE
  2
VIEW
  5
6
330
0
100
AcDbSymbolTable
 70
     0
  0
ENDTAB
  0
TABLE
  2
UCS
  5
7
330
0
100
AcDbSymbolTable
 70
     0
  0
ENDTAB
  0
TABLE
  2
APPID
  5
9
330
0
100
AcDbSymbolTable
 70
     1
  0
APPID
  5
12
330
9
100
AcDbSymbolTableRecord
100
AcDbRegAppTableRecord
  2
ACAD
 70
     0
  0
ENDTAB
  0
TABLE
  2
DIMSTYLE
  5
A
330
0
100
AcDbSymbolTable
 70
     1
100
AcDbDimStyleTable
  0
DIMSTYLE
105
27
330
A
100
AcDbSymbolTableRecord
100
AcDbDimStyleTableRecord
  2
Standard
 70
     0
178
     0
340
11
  0
ENDTAB
  0
TABLE
  2
BLOCK_RECORD
  5
1
330
0
100
AcDbSymbolTable
 70
     2
  0
BLOCK_RECORD
  5
1F
330
1
100
AcDbSymbolTableRecord
100
AcDbBlockTableRecord
  2
*Model_Space
340
22
 70
     0
280
     1
281
     0
  0
BLOCK_RECORD
  5
1B
330
1
100
AcDbSymbolTableRecord
100
AcDbBlockTableRecord
  2
*Paper_Space
340
1E
 70
     0
280
     1
281
     0
  0
BLOCK_RECORD
  5
23
330
1
100
AcDbSymbolTableRecord
100
AcDbBlockTableRecord
  2
*Paper_Space0
340
26
 70
     0
280
     1
281
     0
  0
BLOCK_RECORD
  5
41
330
1
100
AcDbSymbolTableRecord
100
AcDbBlockTableRecord
  2
block 2
340
0
102
{BLKREFS
331
42
102
}
 70
     0
280
     1
281
     0
  0
ENDTAB
  0
ENDSEC
  0
SECTION
  2
BLOCKS
  0
BLOCK
  5
20
330
1F
100
AcDbEntity
  8
0
100
AcDbBlockBegin
  2
*Model_Space
 70
     0
 10
0.0
 20
0.0
 30
0.0
  3
*Model_Space
  1

  0
ENDBLK
  5
21
330
1F
100
AcDbEntity
  8
0
100
AcDbBlockEnd
  0
BLOCK
  5
1C
330
1B
100
AcDbEntity
 67
     1
  8
0
100
AcDbBlockBegin
  2
*Paper_Space
 70
     0
 10
0.0
 20
0.0
 30
0.0
  3
*Paper_Space
  1

  0
ENDBLK
  5
1D
330
1B
100
AcDbEntity
 67
     1
  8
0
100
AcDbBlockEnd
  0
BLOCK
  5
24
330
23
100
AcDbEntity
  8
0
100
AcDbBlockBegin
  2
*Paper_Space0
 70
     0
 10
0.0
 20
0.0
 30
0.0
  3
*Paper_Space0
  1

  0
ENDBLK
  5
25
330
23
100
AcDbEntity
  8
0
100
AcDbBlockEnd
  0
BLOCK
  5
43
330
41
100
AcDbEntity
  8
0
100
AcDbBlockBegin
  2
block 2
 70
     0
 10
0.0
 20
0.0
 30
0.0
  3
block 2
  1

  0
SPLINE
  5
45
330
41
100
AcDbEntity
  8
Layer 1
370
     0
100
AcDbSpline
210
0.0
220
0.0
230
1.0
 70
    11
 71
     3
 72
  1265
 73
  1261
 74
     0
 42
0.0000000001
 43
0.0000000001
 12
1.0
 22
0.0
 32
0.0
 13
1.0
 23
0.0
 33
0.0
 40
0.0
 40
0.0
 40
0.0
 40
0.0
 40
1.0
 40
1.0
 40
1.0
 40
2.0
 40
2.0
 40
2.0
 40
3.0
 40
3.0
 40
3.0
 40
4.0
 40
4.0
 40
4.0
 40
5.0
 40
5.0
 40
5.0
 40
6.0
 40
6.0
 40
6.0
 40
7.0
 40
7.0
 40
7.0
 40
8.0
 40
8.0
 40
8.0
 40
9.0
 40
9.0
 40
9.0
 40
10.0
 40
10.0
 40
10.0
 40
11.0
 40
11.0
 40
11.0
 40
12.0
 40
12.0
 40
12.0
 40
13.0
 40
13.0
 40
13.0
 40
14.0
 40
14.0
 40
14.0
 40
15.0
 40
15.0
 40
15.0
 40
16.0
 40
16.0
 40
16.0
 40
17.0
 40
17.0
 40
17.0
 40
18.0
 40
18.0
 40
18.0
 40
19.0
 40
19.0
 40
19.0
 40
20.0
 40
20.0
 40
20.0
 40
21.0
 40
21.0
 40
21.0
 40
22.0
 40
22.0
 40
22.0
 40
23.0
 40
23.0
 40
23.0
 40
24.0
 40
24.0
 40
24.0
 40
25.0
 40
25.0
 40
25.0
 40
26.0
 40
26.0
 40
26.0
 40
27.0
 40
27.0
 40
27.0
 40
28.0
 40
28.0
 40
28.0
 40
29.0
 40
29.0
 40
29.0
 40
30.0
 40
30.0
 40
30.0
 40
31.0
 40
31.0
 40
31.0
 40
32.0
 40
32.0
 40
32.0
 40
33.0
 40
33.0
 40
33.0
 40
34.0
 40
34.0
 40
34.0
 40
35.0
 40
35.0
 40
35.0
 40
36.0
 40
36.0
 40
36.0
 40
37.0
 40
37.0
 40
37.0
 40
38.0
 40
38.0
 40
38.0
 40
39.0
 40
39.0
 40
39.0
 40
40.0
 40
40.0
 40
40.0
 40
41.0
 40
41.0
 40
41.0
 40
42.0
 40
42.0
 40
42.0
 40
43.0
 40
43.0
 40
43.0
 40
44.0
 40
44.0
 40
44.0
 40
45.0
 40
45.0
 40
45.0
 40
46.0
 40
46.0
 40
46.0
 40
47.0
 40
47.0
 40
47.0
 40
48.0
 40
48.0
 40
48.0
 40
49.0
 40
49.0
 40
49.0
 40
50.0
 40
50.0
 40
50.0
 40
51.0
 40
51.0
 40
51.0
 40
52.0
 40
52.0
 40
52.0
 40
53.0
 40
53.0
 40
53.0
 40
54.0
 40
54.0
 40
54.0
 40
55.0
 40
55.0
 40
55.0
 40
56.0
 40
56.0
 40
56.0
 40
57.0
 40
57.0
 40
57.0
 40
58.0
 40
58.0
 40
58.0
 40
59.0
 40
59.0
 40
59.0
 40
60.0
 40
60.0
 40
60.0
 40
61.0
 40
61.0
 40
61.0
 40
62.0
 40
62.0
 40
62.0
 40
63.0
 40
63.0
 40
63.0
 40
64.0
 40
64.0
 40
64.0
 40
65.0
 40
65.0
 40
65.0
 40
66.0
 40
66.0
 40
66.0
 40
67.0
 40
67.0
 40
67.0
 40
68.0
 40
68.0
 40
68.0
 40
69.0
 40
69.0
 40
69.0
 40
70.0
 40
70.0
 40
70.0
 40
71.0
 40
71.0
 40
71.0
 40
72.0
 40
72.0
 40
72.0
 40
73.0
 40
73.0
 40
73.0
 40
74.0
 40
74.0
 40
74.0
 40
75.0
 40
75.0
 40
75.0
 40
76.0
 40
76.0
 40
76.0
 40
77.0
 40
77.0
 40
77.0
 40
78.0
 40
78.0
 40
78.0
 40
79.0
 40
79.0
 40
79.0
 40
80.0
 40
80.0
 40
80.0
 40
81.0
 40
81.0
 40
81.0
 40
82.0
 40
82.0
 40
82.0
 40
83.0
 40
83.0
 40
83.0
 40
84.0
 40
84.0
 40
84.0
 40
85.0
 40
85.0
 40
85.0
 40
86.0
 40
86.0
 40
86.0
 40
87.0
 40
87.0
 40
87.0
 40
88.0
 40
88.0
 40
88.0
 40
89.0
 40
89.0
 40
89.0
 40
90.0
 40
90.0
 40
90.0
 40
91.0
 40
91.0
 40
91.0
 40
92.0
 40
92.0
 40
92.0
 40
93.0
 40
93.0
 40
93.0
 40
94.0
 40
94.0
 40
94.0
 40
95.0
 40
95.0
 40
95.0
 40
96.0
 40
96.0
 40
96.0
 40
97.0
 40
97.0
 40
97.0
 40
98.0
 40
98.0
 40
98.0
 40
99.0
 40
99.0
 40
99.0
 40
100.0
 40
100.0
 40
100.0
 40
101.0
 40
101.0
 40
101.0
 40
102.0
 40
102.0
 40
102.0
 40
103.0
 40
103.0
 40
103.0
 40
104.0
 40
104.0
 40
104.0
 40
105.0
 40
105.0
 40
105.0
 40
106.0
 40
106.0
 40
106.0
 40
107.0
 40
107.0
 40
107.0
 40
108.0
 40
108.0
 40
108.0
 40
109.0
 40
109.0
 40
109.0
 40
110.0
 40
110.0
 40
110.0
 40
111.0
 40
111.0
 40
111.0
 40
112.0
 40
112.0
 40
112.0
 40
113.0
 40
113.0
 40
113.0
 40
114.0
 40
114.0
 40
114.0
 40
115.0
 40
115.0
 40
115.0
 40
116.0
 40
116.0
 40
116.0
 40
117.0
 40
117.0
 40
117.0
 40
118.0
 40
118.0
 40
118.0
 40
119.0
 40
119.0
 40
119.0
 40
120.0
 40
120.0
 40
120.0
 40
121.0
 40
121.0
 40
121.0
 40
122.0
 40
122.0
 40
122.0
 40
123.0
 40
123.0
 40
123.0
 40
124.0
 40
124.0
 40
124.0
 40
125.0
 40
125.0
 40
125.0
 40
126.0
 40
126.0
 40
126.0
 40
127.0
 40
127.0
 40
127.0
 40
128.0
 40
128.0
 40
128.0
 40
129.0
 40
129.0
 40
129.0
 40
130.0
 40
130.0
 40
130.0
 40
131.0
 40
131.0
 40
131.0
 40
132.0
 40
132.0
 40
132.0
 40
133.0
 40
133.0
 40
133.0
 40
134.0
 40
134.0
 40
134.0
 40
135.0
 40
135.0
 40
135.0
 40
136.0
 40
136.0
 40
136.0
 40
137.0
 40
137.0
 40
137.0
 40
138.0
 40
138.0
 40
138.0
 40
139.0
 40
139.0
 40
139.0
 40
140.0
 40
140.0
 40
140.0
 40
141.0
 40
141.0
 40
141.0
 40
142.0
 40
142.0
 40
142.0
 40
143.0
 40
143.0
 40
143.0
 40
144.0
 40
144.0
 40
144.0
 40
145.0
 40
145.0
 40
145.0
 40
146.0
 40
146.0
 40
146.0
 40
147.0
 40
147.0
 40
147.0
 40
148.0
 40
148.0
 40
148.0
 40
149.0
 40
149.0
 40
149.0
 40
150.0
 40
150.0
 40
150.0
 40
151.0
 40
151.0
 40
151.0
 40
152.0
 40
152.0
 40
152.0
 40
153.0
 40
153.0
 40
153.0
 40
154.0
 40
154.0
 40
154.0
 40
155.0
 40
155.0
 40
155.0
 40
156.0
 40
156.0
 40
156.0
 40
157.0
 40
157.0
 40
157.0
 40
158.0
 40
158.0
 40
158.0
 40
159.0
 40
159.0
 40
159.0
 40
160.0
 40
160.0
 40
160.0
 40
161.0
 40
161.0
 40
161.0
 40
162.0
 40
162.0
 40
162.0
 40
163.0
 40
163.0
 40
163.0
 40
164.0
 40
164.0
 40
164.0
 40
165.0
 40
165.0
 40
165.0
 40
166.0
 40
166.0
 40
166.0
 40
167.0
 40
167.0
 40
167.0
 40
168.0
 40
168.0
 40
168.0
 40
169.0
 40
169.0
 40
169.0
 40
170.0
 40
170.0
 40
170.0
 40
171.0
 40
171.0
 40
171.0
 40
172.0
 40
172.0
 40
172.0
 40
173.0
 40
173.0
 40
173.0
 40
174.0
 40
174.0
 40
174.0
 40
175.0
 40
175.0
 40
175.0
 40
176.0
 40
176.0
 40
176.0
 40
177.0
 40
177.0
 40
177.0
 40
178.0
 40
178.0
 40
178.0
 40
179.0
 40
179.0
 40
179.0
 40
180.0
 40
180.0
 40
180.0
 40
181.0
 40
181.0
 40
181.0
 40
182.0
 40
182.0
 40
182.0
 40
183.0
 40
183.0
 40
183.0
 40
184.0
 40
184.0
 40
184.0
 40
185.0
 40
185.0
 40
185.0
 40
186.0
 40
186.0
 40
186.0
 40
187.0
 40
187.0
 40
187.0
 40
188.0
 40
188.0
 40
188.0
 40
189.0
 40
189.0
 40
189.0
 40
190.0
 40
190.0
 40
190.0
 40
191.0
 40
191.0
 40
191.0
 40
192.0
 40
192.0
 40
192.0
 40
193.0
 40
193.0
 40
193.0
 40
194.0
 40
194.0
 40
194.0
 40
195.0
 40
195.0
 40
195.0
 40
196.0
 40
196.0
 40
196.0
 40
197.0
 40
197.0
 40
197.0
 40
198.0
 40
198.0
 40
198.0
 40
199.0
 40
199.0
 40
199.0
 40
200.0
 40
200.0
 40
200.0
 40
201.0
 40
201.0
 40
201.0
 40
202.0
 40
202.0
 40
202.0
 40
203.0
 40
203.0
 40
203.0
 40
204.0
 40
204.0
 40
204.0
 40
205.0
 40
205.0
 40
205.0
 40
206.0
 40
206.0
 40
206.0
 40
207.0
 40
207.0
 40
207.0
 40
208.0
 40
208.0
 40
208.0
 40
209.0
 40
209.0
 40
209.0
 40
210.0
 40
210.0
 40
210.0
 40
211.0
 40
211.0
 40
211.0
 40
212.0
 40
212.0
 40
212.0
 40
213.0
 40
213.0
 40
213.0
 40
214.0
 40
214.0
 40
214.0
 40
215.0
 40
215.0
 40
215.0
 40
216.0
 40
216.0
 40
216.0
 40
217.0
 40
217.0
 40
217.0
 40
218.0
 40
218.0
 40
218.0
 40
219.0
 40
219.0
 40
219.0
 40
220.0
 40
220.0
 40
220.0
 40
221.0
 40
221.0
 40
221.0
 40
222.0
 40
222.0
 40
222.0
 40
223.0
 40
223.0
 40
223.0
 40
224.0
 40
224.0
 40
224.0
 40
225.0
 40
225.0
 40
225.0
 40
226.0
 40
226.0
 40
226.0
 40
227.0
 40
227.0
 40
227.0
 40
228.0
 40
228.0
 40
228.0
 40
229.0
 40
229.0
 40
229.0
 40
230.0
 40
230.0
 40
230.0
 40
231.0
 40
231.0
 40
231.0
 40
232.0
 40
232.0
 40
232.0
 40
233.0
 40
233.0
 40
233.0
 40
234.0
 40
234.0
 40
234.0
 40
235.0
 40
235.0
 40
235.0
 40
236.0
 40
236.0
 40
236.0
 40
237.0
 40
237.0
 40
237.0
 40
238.0
 40
238.0
 40
238.0
 40
239.0
 40
239.0
 40
239.0
 40
240.0
 40
240.0
 40
240.0
 40
241.0
 40
241.0
 40
241.0
 40
242.0
 40
242.0
 40
242.0
 40
243.0
 40
243.0
 40
243.0
 40
244.0
 40
244.0
 40
244.0
 40
245.0
 40
245.0
 40
245.0
 40
246.0
 40
246.0
 40
246.0
 40
247.0
 40
247.0
 40
247.0
 40
248.0
 40
248.0
 40
248.0
 40
249.0
 40
249.0
 40
249.0
 40
250.0
 40
250.0
 40
250.0
 40
251.0
 40
251.0
 40
251.0
 40
252.0
 40
252.0
 40
252.0
 40
253.0
 40
253.0
 40
253.0
 40
254.0
 40
254.0
 40
254.0
 40
255.0
 40
255.0
 40
255.0
 40
256.0
 40
256.0
 40
256.0
 40
257.0
 40
257.0
 40
257.0
 40
258.0
 40
258.0
 40
258.0
 40
259.0
 40
259.0
 40
259.0
 40
260.0
 40
260.0
 40
260.0
 40
261.0
 40
261.0
 40
261.0
 40
262.0
 40
262.0
 40
262.0
 40
263.0
 40
263.0
 40
263.0
 40
264.0
 40
264.0
 40
264.0
 40
265.0
 40
265.0
 40
265.0
 40
266.0
 40
266.0
 40
266.0
 40
267.0
 40
267.0
 40
267.0
 40
268.0
 40
268.0
 40
268.0
 40
269.0
 40
269.0
 40
269.0
 40
270.0
 40
270.0
 40
270.0
 40
271.0
 40
271.0
 40
271.0
 40
272.0
 40
272.0
 40
272.0
 40
273.0
 40
273.0
 40
273.0
 40
274.0
 40
274.0
 40
274.0
 40
275.0
 40
275.0
 40
275.0
 40
276.0
 40
276.0
 40
276.0
 40
277.0
 40
277.0
 40
277.0
 40
278.0
 40
278.0
 40
278.0
 40
279.0
 40
279.0
 40
279.0
 40
280.0
 40
280.0
 40
280.0
 40
281.0
 40
281.0
 40
281.0
 40
282.0
 40
282.0
 40
282.0
 40
283.0
 40
283.0
 40
283.0
 40
284.0
 40
284.0
 40
284.0
 40
285.0
 40
285.0
 40
285.0
 40
286.0
 40
286.0
 40
286.0
 40
287.0
 40
287.0
 40
287.0
 40
288.0
 40
288.0
 40
288.0
 40
289.0
 40
289.0
 40
289.0
 40
290.0
 40
290.0
 40
290.0
 40
291.0
 40
291.0
 40
291.0
 40
292.0
 40
292.0
 40
292.0
 40
293.0
 40
293.0
 40
293.0
 40
294.0
 40
294.0
 40
294.0
 40
295.0
 40
295.0
 40
295.0
 40
296.0
 40
296.0
 40
296.0
 40
297.0
 40
297.0
 40
297.0
 40
298.0
 40
298.0
 40
298.0
 40
299.0
 40
299.0
 40
299.0
 40
300.0
 40
300.0
 40
300.0
 40
301.0
 40
301.0
 40
301.0
 40
302.0
 40
302.0
 40
302.0
 40
303.0
 40
303.0
 40
303.0
 40
304.0
 40
304.0
 40
304.0
 40
305.0
 40
305.0
 40
305.0
 40
306.0
 40
306.0
 40
306.0
 40
307.0
 40
307.0
 40
307.0
 40
308.0
 40
308.0
 40
308.0
 40
309.0
 40
309.0
 40
309.0
 40
310.0
 40
310.0
 40
310.0
 40
311.0
 40
311.0
 40
311.0
 40
312.0
 40
312.0
 40
312.0
 40
313.0
 40
313.0
 40
313.0
 40
314.0
 40
314.0
 40
314.0
 40
315.0
 40
315.0
 40
315.0
 40
316.0
 40
316.0
 40
316.0
 40
317.0
 40
317.0
 40
317.0
 40
318.0
 40
318.0
 40
318.0
 40
319.0
 40
319.0
 40
319.0
 40
320.0
 40
320.0
 40
320.0
 40
321.0
 40
321.0
 40
321.0
 40
322.0
 40
322.0
 40
322.0
 40
323.0
 40
323.0
 40
323.0
 40
324.0
 40
324.0
 40
324.0
 40
325.0
 40
325.0
 40
325.0
 40
326.0
 40
326.0
 40
326.0
 40
327.0
 40
327.0
 40
327.0
 40
328.0
 40
328.0
 40
328.0
 40
329.0
 40
329.0
 40
329.0
 40
330.0
 40
330.0
 40
330.0
 40
331.0
 40
331.0
 40
331.0
 40
332.0
 40
332.0
 40
332.0
 40
333.0
 40
333.0
 40
333.0
 40
334.0
 40
334.0
 40
334.0
 40
335.0
 40
335.0
 40
335.0
 40
336.0
 40
336.0
 40
336.0
 40
337.0
 40
337.0
 40
337.0
 40
338.0
 40
338.0
 40
338.0
 40
339.0
 40
339.0
 40
339.0
 40
340.0
 40
340.0
 40
340.0
 40
341.0
 40
341.0
 40
341.0
 40
342.0
 40
342.0
 40
342.0
 40
343.0
 40
343.0
 40
343.0
 40
344.0
 40
344.0
 40
344.0
 40
345.0
 40
345.0
 40
345.0
 40
346.0
 40
346.0
 40
346.0
 40
347.0
 40
347.0
 40
347.0
 40
348.0
 40
348.0
 40
348.0
 40
349.0
 40
349.0
 40
349.0
 40
350.0
 40
350.0
 40
350.0
 40
351.0
 40
351.0
 40
351.0
 40
352.0
 40
352.0
 40
352.0
 40
353.0
 40
353.0
 40
353.0
 40
354.0
 40
354.0
 40
354.0
 40
355.0
 40
355.0
 40
355.0
 40
356.0
 40
356.0
 40
356.0
 40
357.0
 40
357.0
 40
357.0
 40
358.0
 40
358.0
 40
358.0
 40
359.0
 40
359.0
 40
359.0
 40
360.0
 40
360.0
 40
360.0
 40
361.0
 40
361.0
 40
361.0
 40
362.0
 40
362.0
 40
362.0
 40
363.0
 40
363.0
 40
363.0
 40
364.0
 40
364.0
 40
364.0
 40
365.0
 40
365.0
 40
365.0
 40
366.0
 40
366.0
 40
366.0
 40
367.0
 40
367.0
 40
367.0
 40
368.0
 40
368.0
 40
368.0
 40
369.0
 40
369.0
 40
369.0
 40
370.0
 40
370.0
 40
370.0
 40
371.0
 40
371.0
 40
371.0
 40
372.0
 40
372.0
 40
372.0
 40
373.0
 40
373.0
 40
373.0
 40
374.0
 40
374.0
 40
374.0
 40
375.0
 40
375.0
 40
375.0
 40
376.0
 40
376.0
 40
376.0
 40
377.0
 40
377.0
 40
377.0
 40
378.0
 40
378.0
 40
378.0
 40
379.0
 40
379.0
 40
379.0
 40
380.0
 40
380.0
 40
380.0
 40
381.0
 40
381.0
 40
381.0
 40
382.0
 40
382.0
 40
382.0
 40
383.0
 40
383.0
 40
383.0
 40
384.0
 40
384.0
 40
384.0
 40
385.0
 40
385.0
 40
385.0
 40
386.0
 40
386.0
 40
386.0
 40
387.0
 40
387.0
 40
387.0
 40
388.0
 40
388.0
 40
388.0
 40
389.0
 40
389.0
 40
389.0
 40
390.0
 40
390.0
 40
390.0
 40
391.0
 40
391.0
 40
391.0
 40
392.0
 40
392.0
 40
392.0
 40
393.0
 40
393.0
 40
393.0
 40
394.0
 40
394.0
 40
394.0
 40
395.0
 40
395.0
 40
395.0
 40
396.0
 40
396.0
 40
396.0
 40
397.0
 40
397.0
 40
397.0
 40
398.0
 40
398.0
 40
398.0
 40
399.0
 40
399.0
 40
399.0
 40
400.0
 40
400.0
 40
400.0
 40
401.0
 40
401.0
 40
401.0
 40
402.0
 40
402.0
 40
402.0
 40
403.0
 40
403.0
 40
403.0
 40
404.0
 40
404.0
 40
404.0
 40
405.0
 40
405.0
 40
405.0
 40
406.0
 40
406.0
 40
406.0
 40
407.0
 40
407.0
 40
407.0
 40
408.0
 40
408.0
 40
408.0
 40
409.0
 40
409.0
 40
409.0
 40
410.0
 40
410.0
 40
410.0
 40
411.0
 40
411.0
 40
411.0
 40
412.0
 40
412.0
 40
412.0
 40
413.0
 40
413.0
 40
413.0
 40
414.0
 40
414.0
 40
414.0
 40
415.0
 40
415.0
 40
415.0
 40
416.0
 40
416.0
 40
416.0
 40
417.0
 40
417.0
 40
417.0
 40
418.0
 40
418.0
 40
418.0
 40
419.0
 40
419.0
 40
419.0
 40
420.0
 40
420.0
 40
420.0
 40
420.0
 10
8.98700748802172
 20
-4.453009320928041
 30
0.0
 10
8.866217298486212
 20
-4.453009320928041
 30
0.0
 10
8.747288274125973
 20
-4.453009320928041
 30
0.0
 10
8.626792274013647
 20
-4.453009320928041
 30
0.0
 10
8.626792274013647
 20
-4.365679007546115
 30
0.0
 10
8.626792274013647
 20
-4.279296773494821
 30
0.0
 10
8.626792274013647
 20
-4.192167876108038
 30
0.0
 10
8.48555327470937
 20
-4.192167876108038
 30
0.0
 10
8.345887761573117
 20
-4.192167876108038
 30
0.0
 10
8.204455891194685
 20
-4.192167876108038
 30
0.0
 10
8.204455891194685
 20
-4.27948191344995
 30
0.0
 10
8.204455891194685
 20
-4.365839326540228
 30
0.0
 10
8.204455891194685
 20
-4.452833946596911
 30
0.0
 10
8.083658987792685
 20
-4.452833946596911
 30
0.0
 10
7.964631493390369
 20
-4.452833946596911
 30
0.0
 10
7.845113072931225
 20
-4.452833946596911
 30
0.0
 10
7.845113072931225
 20
-4.41861804838484
 30
0.0
 10
7.845113072931225
 20
-4.385544728181508
 30
0.0
 10
7.845113072931225
 20
-4.350576876920917
 30
0.0
 10
7.932253770447018
 20
-4.350576876920917
 30
0.0
 10
8.018562355417252
 20
-4.350576876920917
 30
0.0
 10
8.105446705302874
 20
-4.350576876920917
 30
0.0
 10
8.105446705302874
 20
-4.123455724894685
 30
0.0
 10
8.105446705302874
 20
-3.8982368350447
 30
0.0
 10
8.105446705302874
 20
-3.672608195887455
 30
0.0
 10
7.964331607353162
 20
-3.672608195887455
 30
0.0
 10
7.824257972513654
 20
-3.672608195887455
 30
0.0
 10
7.682615123966571
 20
-3.672608195887455
 30
0.0
 10
7.682615123966571
 20
-3.75989863297136
 30
0.0
 10
7.682615123966571
 20
-3.84578200639631
 30
0.0
 10
7.682615123966571
 20
-3.932530044446846
 30
0.0
 10
7.650226007795228
 20
-3.932530044446846
 30
0.0
 10
7.61941139504443
 20
-3.932530044446846
 30
0.0
 10
7.586458314086699
 20
-3.932530044446846
 30
0.0
 10
7.586458314086699
 20
-3.845461775309091
 30
0.0
 10
7.586458314086699
 20
-3.759179638903877
 30
0.0
 10
7.586458314086699
 20
-3.672165487599159
 30
0.0
 10
7.444649449931502
 20
-3.672165487599159
 30
0.0
 10
7.304979053983263
 20
-3.672165487599159
 30
0.0
 10
7.164565860259017
 20
-3.672165487599159
 30
0.0
 10
7.164565860259017
 20
-3.898949725597201
 30
0.0
 10
7.164565860259017
 20
-4.124758214996543
 30
0.0
 10
7.164565860259017
 20
-4.352945040742522
 30
0.0
 10
7.251644708822773
 20
-4.352945040742522
 30
0.0
 10
7.337915451999985
 20
-4.352945040742522
 30
0.0
 10
7.424154049998176
 20
-4.352945040742522
 30
0.0
 10
7.424154049998176
 20
-4.387779428475028
 30
0.0
 10
7.424154049998176
 20
-4.420223679731913
 30
0.0
 10
7.424154049998176
 20
-4.45303373498805
 30
0.0
 10
7.304284473975801
 20
-4.45303373498805
 30
0.0
 10
7.18564882523674
 20
-4.45303373498805
 30
0.0
 10
7.06473921025766
 20
-4.45303373498805
 30
0.0
 10
7.06473921025766
 20
-4.365858450887231
 30
0.0
 10
7.06473921025766
 20
-4.27959340432402
 30
0.0
 10
7.06473921025766
 20
-4.193784493782131
 30
0.0
 10
6.922259976704531
 20
-4.193784493782131
 30
0.0
 10
6.782062033609425
 20
-4.193784493782131
 30
0.0
 10
6.640286942237266
 20
-4.193784493782131
 30
0.0
 10
6.640286942237266
 20
-4.281103007035047
 30
0.0
 10
6.640286942237266
 20
-4.366940807547962
 30
0.0
 10
6.640286942237266
 20
-4.452721235019845
 30
0.0
 10
6.520167529000711
 20
-4.452721235019845
 30
0.0
 10
6.401643574586235
 20
-4.452721235019845
 30
0.0
 10
6.283084423235247
 20
-4.452721235019845
 30
0.0
 10
6.283084423235247
 20
-4.418366583566656
 30
0.0
 10
6.283084423235247
 20
-4.385271697610329
 30
0.0
 10
6.283084423235247
 20
-4.35017038282164
 30
0.0
 10
6.370385744920895
 20
-4.35017038282164
 30
0.0
 10
6.456669407204862
 20
-4.35017038282164
 30
0.0
 10
6.542398158249713
 20
-4.35017038282164
 30
0.0
 10
6.542398158249713
 20
-4.210136624280153
 30
0.0
 10
6.542398158249713
 20
-4.072129639621039
 30
0.0
 10
6.542398158249713
 20
-3.932462091979801
 30
0.0
 10
6.455264174600416
 20
-3.932462091979801
 30
0.0
 10
6.36942423785725
 20
-3.932462091979801
 30
0.0
 10
6.283092561255241
 20
-3.932462091979801
 30
0.0
 10
6.283092561255241
 20
-3.898247414470713
 30
0.0
 10
6.283092561255241
 20
-3.865711610488751
 30
0.0
 10
6.283092561255241
 20
-3.832176050749126
 30
0.0
 10
6.402712300063462
 20
-3.832176050749126
 30
0.0
 10
6.521281217038462
 20
-3.832176050749126
 30
0.0
 10
6.642112300124495
 20
-3.832176050749126
 30
0.0
 10
6.642112300124495
 20
-3.919424577029998
 30
0.0
 10
6.642112300124495
 20
-4.005767748585261
 30
0.0
 10
6.642112300124495
 20
-4.09249584848678
 30
0.0
 10
6.783566956958945
 20
-4.09249584848678
 30
0.0
 10
6.92275863388036
 20
-4.09249584848678
 30
0.0
 10
7.062564527861696
 20
-4.09249584848678
 30
0.0
 10
7.062564527861696
 20
-3.86588128820588
 30
0.0
 10
7.062564527861696
 20
-3.64016882744257
 30
0.0
 10
7.062564527861696
 20
-3.412559801116989
 30
0.0
 10
6.975680788327572
 20
-3.412559801116989
 30
0.0
 10
6.889920095554203
 20
-3.412559801116989
 30
0.0
 10
6.804542296622091
 20
-3.412559801116989
 30
0.0
 10
6.804542296622091
 20
-3.377080475299054
 30
0.0
 10
6.804542296622091
 20
-3.343517042840908
 30
0.0
 10
6.804542296622091
 20
-3.308043210186472
 30
0.0
 10
6.891685028642895
 20
-3.308043210186472
 30
0.0
 10
6.977451011129283
 20
-3.308043210186472
 30
0.0
 10
7.063311394647699
 20
-3.308043210186472
 30
0.0
 10
7.063311394647699
 20
-3.081319803887987
 30
0.0
 10
7.063311394647699
 20
-2.856555422455333
 30
0.0
 10
7.063311394647699
 20
-2.631474675494954
 30
0.0
 10
6.922275438942531
 20
-2.631474675494954
 30
0.0
 10
6.782186952216509
 20
-2.631474675494954
 30
0.0
 10
6.640257035013747
 20
-2.631474675494954
 30
0.0
 10
6.640257035013747
 20
-2.718622086877253
 30
0.0
 10
6.640257035013747
 20
-2.804396207383636
 30
0.0
 10
6.640257035013747
 20
-2.889854369263301
 30
0.0
 10
6.607099079402373
 20
-2.889854369263301
 30
0.0
 10
6.575803509669249
 20
-2.889854369263301
 30
0.0
 10
6.542962733387589
 20
-2.889854369263301
 30
0.0
 10
6.542962733387589
 20
-2.802699226761989
 30
0.0
 10
6.542962733387589
 20
-2.716870174620579
 30
0.0
 10
6.542962733387589
 20
-2.631066146890678
 30
0.0
 10
6.402163187163587
 20
-2.631066146890678
 30
0.0
 10
6.262956556630406
 20
-2.631066146890678
 30
0.0
 10
6.123536811698336
 20
-2.631066146890678
 30
0.0
 10
6.123536811698336
 20
-2.857744794079129
 30
0.0
 10
6.123536811698336
 20
-3.083440368450915
 30
0.0
 10
6.123536811698336
 20
-3.31072021186728
 30
0.0
 10
6.210849119711004
 20
-3.31072021186728
 30
0.0
 10
6.29668834437742
 20
-3.31072021186728
 30
0.0
 10
6.382481690956056
 20
-3.31072021186728
 30
0.0
 10
6.382481690956056
 20
-3.345297845068608
 30
0.0
 10
6.382481690956056
 20
-3.378272898680355
 30
0.0
 10
6.382481690956056
 20
-3.410790188666801
 30
0.0
 10
6.174924135572509
 20
-3.410790188666801
 30
0.0
 10
5.968615461084052
 20
-3.410790188666801
 30
0.0
 10
5.76230770212285
 20
-3.410790188666801
 30
0.0
 10
5.76230770212285
 20
-3.376319773879042
 30
0.0
 10
5.76230770212285
 20
-3.343377272347311
 30
0.0
 10
5.76230770212285
 20
-3.308075762266488
 30
0.0
 10
5.849901077001454
 20
-3.308075762266488
 30
0.0
 10
5.936129299024135
 20
-3.308075762266488
 30
0.0
 10
6.021992429124313
 20
-3.308075762266488
 30
0.0
 10
6.021992429124313
 20
-3.080924906467228
 30
0.0
 10
6.021992429124313
 20
-2.856173138965573
 30
0.0
 10
6.021992429124313
 20
-2.631001653082131
 30
0.0
 10
5.881088105892748
 20
-2.631001653082131
 30
0.0
 10
5.741343247061447
 20
-2.631001653082131
 30
0.0
 10
5.599794087469692
 20
-2.631001653082131
 30
0.0
 10
5.599794087469692
 20
-2.717693335344127
 30
0.0
 10
5.599794087469692
 20
-2.803492276811526
 30
0.0
 10
5.599794087469692
 20
-2.88996443598387
 30
0.0
 10
5.566744062348637
 20
-2.88996443598387
 30
0.0
 10
5.535510138117059
 20
-2.88996443598387
 30
0.0
 10
5.502521300733936
 20
-2.88996443598387
 30
0.0
 10
5.502521300733936
 20
-2.802933194837149
 30
0.0
 10
5.502521300733936
 20
-2.717112891067245
 30
0.0
 10
5.502521300733936
 20
-2.63118170677477
 30
0.0
 10
5.361053317891725
 20
-2.63118170677477
 30
0.0
 10
5.221356676828969
 20
-2.63118170677477
 30
0.0
 10
5.081494071020718
 20
-2.63118170677477
 30
0.0
 10
5.081494071020718
 20
-2.858041424908328
 30
0.0
 10
5.081494071020718
 20
-3.083803731044163
 30
0.0
 10
5.081494071020718
 20
-3.310974321541948
 30
0.0
 10
5.168476484047422
 20
-3.310974321541948
 30
0.0
 10
5.254370131722604
 20
-3.310974321541948
 30
0.0
 10
5.340926163363658
 20
-3.310974321541948
 30
0.0
 10
5.340926163363658
 20
-3.345880120399998
 30
0.0
 10
5.340926163363658
 20
-3.379369293425599
 30
0.0
 10
5.340926163363658
 20
-3.414743435334963
 30
0.0
 10
5.25352337074105
 20
-3.414743435334963
 30
0.0
 10
5.16723274027744
 20
-3.414743435334963
 30
0.0
 10
5.081704286249987
 20
-3.414743435334963
 30
0.0
 10
5.081704286249987
 20
-3.641881066851725
 30
0.0
 10
5.081704286249987
 20
-3.867122336256708
 30
0.0
 10
5.081704286249987
 20
-4.092037677960471
 30
0.0
 10
5.22267101792248
 20
-4.092037677960471
 30
0.0
 10
5.362323001600455
 20
-4.092037677960471
 30
0.0
 10
5.503496642431602
 20
-4.092037677960471
 30
0.0
 10
5.503496642431602
 20
-4.004805020818607
 30
0.0
 10
5.503496642431602
 20
-3.918917985284654
 30
0.0
 10
5.503496642431602
 20
-3.832541447847372
 30
0.0
 10
5.624026771365291
 20
-3.832541447847372
 30
0.0
 10
5.743019882633082
 20
-3.832541447847372
 30
0.0
 10
5.862053785726149
 20
-3.832541447847372
 30
0.0
 10
5.862053785726149
 20
-3.866989686530625
 30
0.0
 10
5.862053785726149
 20
-3.900051206604922
 30
0.0
 10
5.862053785726149
 20
-3.935194839097638
 30
0.0
 10
5.774647076681427
 20
-3.935194839097638
 30
0.0
 10
5.68834256072119
 20
-3.935194839097638
 30
0.0
 10
5.60209490917575
 20
-3.935194839097638
 30
0.0
 10
5.60209490917575
 20
-4.074805420598838
 30
0.0
 10
5.60209490917575
 20
-4.212306627314622
 30
0.0
 10
5.60209490917575
 20
-4.35116566266831
 30
0.0
 10
5.609268370360079
 20
-4.35116566266831
 30
0.0
 10
5.615298134557898
 20
-4.35116566266831
 30
0.0
 10
5.621327898755718
 20
-4.35116566266831
 30
0.0
 10
5.69632778940109
 20
-4.35116688337132
 30
0.0
 10
5.771328697298941
 20
-4.351021212813217
 30
0.0
 10
5.846325637912034
 20
-4.35148874206253
 30
0.0
 10
5.851506606623287
 20
-4.351521294142559
 30
0.0
 10
5.86106491457023
 20
-4.355977266996559
 30
0.0
 10
5.861153008636797
 20
-4.358623344201343
 30
0.0
 10
5.862196709702503
 20
-4.389979949084502
 30
0.0
 10
5.861824802188241
 20
-4.421383347582693
 30
0.0
 10
5.861824802188241
 20
-4.452997520799031
 30
0.0
 10
5.740842860556364
 20
-4.452997520799031
 30
0.0
 10
5.622207211817314
 20
-4.452997520799031
 30
0.0
 10
5.501300546870488
 20
-4.452997520799031
 30
0.0
 10
5.501300546870488
 20
-4.365777884489185
 30
0.0
 10
5.501300546870488
 20
-4.279507548212968
 30
0.0
 10
5.501300546870488
 20
-4.19344757975389
 30
0.0
 10
5.35981252415402
 20
-4.19344757975389
 30
0.0
 10
5.220602384099707
 20
-4.19344757975389
 30
0.0
 10
5.081276277260321
 20
-4.19344757975389
 30
0.0
 10
5.081276277260321
 20
-4.335488987830735
 30
0.0
 10
5.081276277260321
 20
-4.476378459175799
 30
0.0
 10
5.081276277260321
 20
-4.619151882152159
 30
0.0
 10
5.133929978772597
 20
-4.616063910461055
 30
0.0
 10
5.185593130662331
 20
-4.613034532514019
 30
0.0
 10
5.239180110481369
 20
-4.60989162918789
 30
0.0
 10
5.239180110481369
 20
-4.52342028381756
 30
0.0
 10
5.239180110481369
 20
-4.438727095818396
 30
0.0
 10
5.239180110481369
 20
-4.3532095263927
 30
0.0
 10
5.274807141362404
 20
-4.3532095263927
 30
0.0
 10
5.308396259446213
 20
-4.3532095263927
 30
0.0
 10
5.343986313198835
 20
-4.3532095263927
 30
0.0
 10
5.343986313198835
 20
-4.440399865830525
 30
0.0
 10
5.343986313198835
 20
-4.526692988562748
 30
0.0
 10
5.343986313198835
 20
-4.612850613261887
 30
0.0
 10
5.571238283896668
 20
-4.612850613261887
 30
0.0
 10
5.796486877519656
 20
-4.612850613261887
 30
0.0
 10
6.02231662749629
 20
-4.612850613261887
 30
0.0
 10
6.02231662749629
 20
-4.472016480452857
 30
0.0
 10
6.02231662749629
 20
-4.332280166542571
 30
0.0
 10
6.02231662749629
 20
-4.190645252565004
 30
0.0
 10
5.935201157842508
 20
-4.190645252565004
 30
0.0
 10
5.848891860795523
 20
-4.190645252565004
 30
0.0
 10
5.762047895834169
 20
-4.190645252565004
 30
0.0
 10
5.762047895834169
 20
-4.157428703209588
 30
0.0
 10
5.762047895834169
 20
-4.126119298842468
 30
0.0
 10
5.762047895834169
 20
-4.092722492343935
 30
0.0
 10
5.849457656636408
 20
-4.092722492343935
 30
0.0
 10
5.935762986398635
 20
-4.092722492343935
 30
0.0
 10
6.022124977125157
 20
-4.092722492343935
 30
0.0
 10
6.022124977125157
 20
-3.951425713097592
 30
0.0
 10
6.022124977125157
 20
-3.812231798220675
 30
0.0
 10
6.022124977125157
 20
-3.6722135019172
 30
0.0
 10
5.7953658652639
 20
-3.6722135019172
 30
0.0
 10
5.569633669802088
 20
-3.6722135019172
 30
0.0
 10
5.341524918185554
 20
-3.6722135019172
 30
0.0
 10
5.341524918185554
 20
-3.759470573119074
 30
0.0
 10
5.341524918185554
 20
-3.845738061088279
 30
0.0
 10
5.341524918185554
 20
-3.932352635610717
 30
0.0
 10
5.306672830259534
 20
-3.932352635610717
 30
0.0
 10
5.274205894271871
 20
-3.932352635610717
 30
0.0
 10
5.241659866902296
 20
-3.932352635610717
 30
0.0
 10
5.241659866902296
 20
-3.812221218794662
 30
0.0
 10
5.241659866902296
 20
-3.69316117231233
 30
0.0
 10
5.241659866902296
 20
-3.572568329761957
 30
0.0
 10
5.328774370166191
 20
-3.572568329761957
 30
0.0
 10
5.414605049911617
 20
-3.572568329761957
 30
0.0
 10
5.500774169563997
 20
-3.572568329761957
 30
0.0
 10
5.500774169563997
 20
-3.430822128360811
 30
0.0
 10
5.500774169563997
 20
-3.290620523156728
 30
0.0
 10
5.500774169563997
 20
-3.148708713048462
 30
0.0
 10
5.413682300168236
 20
-3.148708713048462
 30
0.0
 10
5.327842821188697
 20
-3.148708713048462
 30
0.0
 10
5.241400060613614
 20
-3.148708713048462
 30
0.0
 10
5.241400060613614
 20
-3.028441391298303
 30
0.0
 10
5.241400060613614
 20
-2.909891598670318
 30
0.0
 10
5.241400060613614
 20
-2.791390837612855
 30
0.0
 10
5.275928916557543
 20
-2.791390837612855
 30
0.0
 10
5.309412189518626
 20
-2.791390837612855
 30
0.0
 10
5.344449315674524
 20
-2.791390837612855
 30
0.0
 10
5.344449315674524
 20
-2.878538248995167
 30
0.0
 10
5.344449315674524
 20
-2.964367708037571
 30
0.0
 10
5.344449315674524
 20
-3.05030601309756
 30
0.0
 10
5.483590231696161
 20
-3.05030601309756
 30
0.0
 10
5.621139300142103
 20
-3.05030601309756
 30
0.0
 10
5.760833601524117
 20
-3.05030601309756
 30
0.0
 10
5.760833601524117
 20
-2.963225130028806
 30
0.0
 10
5.760833601524117
 20
-2.876978800911616
 30
0.0
 10
5.760833601524117
 20
-2.791220142643245
 30
0.0
 10
5.795551513845276
 20
-2.791220142643245
 30
0.0
 10
5.828112138788255
 20
-2.791220142643245
 30
0.0
 10
5.860688836320731
 20
-2.791220142643245
 30
0.0
 10
5.860688836320731
 20
-2.911422970584845
 30
0.0
 10
5.860688836320731
 20
-3.030462061665667
 30
0.0
 10
5.860688836320731
 20
-3.15132651063373
 30
0.0
 10
5.773575909798195
 20
-3.15132651063373
 30
0.0
 10
5.687810639388582
 20
-3.15132651063373
 30
0.0
 10
5.602038044760952
 20
-3.15132651063373
 30
0.0
 10
5.602038044760952
 20
-3.292288206906341
 30
0.0
 10
5.602038044760952
 20
-3.43141193136071
 30
0.0
 10
5.602038044760952
 20
-3.571324433404116
 30
0.0
 10
5.916215462345449
 20
-3.571324433404116
 30
0.0
 10
6.229299536942196
 20
-3.571324433404116
 30
0.0
 10
6.543042485983644
 20
-3.571324433404116
 30
0.0
 10
6.543042485983644
 20
-3.430541773571627
 30
0.0
 10
6.543042485983644
 20
-3.290723672560286
 30
0.0
 10
6.543042485983644
 20
-3.148570366708365
 30
0.0
 10
6.45614409801351
 20
-3.148570366708365
 30
0.0
 10
6.369851585632786
 20
-3.148570366708365
 30
0.0
 10
6.282971406482412
 20
-3.148570366708365
 30
0.0
 10
6.282971406482412
 20
-3.028168564177627
 30
0.0
 10
6.282971406482412
 20
-2.910103187190455
 30
0.0
 10
6.282971406482412
 20
-2.791372527067842
 30
0.0
 10
6.317380684394884
 20
-2.791372527067842
 30
0.0
 10
6.350849919271468
 20
-2.791372527067842
 30
0.0
 10
6.38620442820757
 20
-2.791372527067842
 30
0.0
 10
6.38620442820757
 20
-2.878466227518111
 30
0.0
 10
6.38620442820757
 20
-2.96426374483201
 30
0.0
 10
6.38620442820757
 20
-3.05001406162987
 30
0.0
 10
6.525581957160865
 20
-3.05001406162987
 30
0.0
 10
6.663054070455119
 20
-3.05001406162987
 30
0.0
 10
6.802509012323728
 20
-3.05001406162987
 30
0.0
 10
6.802509012323728
 20
-2.96310143212472
 30
0.0
 10
6.802509012323728
 20
-2.877319580499337
 30
0.0
 10
6.802509012323728
 20
-2.791368458057844
 30
0.0
 10
6.837448787415294
 20
-2.791368458057844
 30
0.0
 10
6.870387219937028
 20
-2.791368458057844
 30
0.0
 10
6.90315373678613
 20
-2.791368458057844
 30
0.0
 10
6.90315373678613
 20
-2.911285031145755
 30
0.0
 10
6.90315373678613
 20
-3.029892807166283
 30
0.0
 10
6.90315373678613
 20
-3.150321465163061
 30
0.0
 10
6.816262062682502
 20
-3.150321465163061
 30
0.0
 10
6.730472886839114
 20
-3.150321465163061
 30
0.0
 10
6.644277013445958
 20
-3.150321465163061
 30
0.0
 10
6.644277013445958
 20
-3.292331948763881
 30
0.0
 10
6.644277013445958
 20
-3.432510970962438
 30
0.0
 10
6.644277013445958
 20
-3.574278127765107
 30
0.0
 10
6.731194932664102
 20
-3.574278127765107
 30
0.0
 10
6.817024188256014
 20
-3.574278127765107
 30
0.0
 10
6.903290048621228
 20
-3.574278127765107
 30
0.0
 10
6.903290048621228
 20
-3.694451455384195
 30
0.0
 10
6.903290048621228
 20
-3.813031358686228
 30
0.0
 10
6.903290048621228
 20
-3.931997004136481
 30
0.0
 10
6.868846082398489
 20
-3.931997004136481
 30
0.0
 10
6.835409603052426
 20
-3.931997004136481
 30
0.0
 10
6.80045273811883
 20
-3.931997004136481
 30
0.0
 10
6.80045273811883
 20
-3.844704532547578
 30
0.0
 10
6.80045273811883
 20
-3.758823600528634
 30
0.0
 10
6.80045273811883
 20
-3.672445842388356
 30
0.0
 10
6.573799318792402
 20
-3.672445842388356
 30
0.0
 10
6.348696497452768
 20
-3.672445842388356
 30
0.0
 10
6.123035611391249
 20
-3.672445842388356
 30
0.0
 10
6.123035611391249
 20
-3.813477729083514
 30
0.0
 10
6.123035611391249
 20
-3.953251884786823
 30
0.0
 10
6.123035611391249
 20
-4.095108152908539
 30
0.0
 10
6.210315367323889
 20
-4.095108152908539
 30
0.0
 10
6.296633514467632
 20
-4.095108152908539
 30
0.0
 10
6.382425742068524
 20
-4.095108152908539
 30
0.0
 10
6.382425742068524
 20
-4.128567215260116
 30
0.0
 10
6.382425742068524
 20
-4.159928702955274
 30
0.0
 10
6.382425742068524
 20
-4.192989002326587
 30
0.0
 10
6.295283925574974
 20
-4.192989002326587
 30
0.0
 10
6.209429645571541
 20
-4.192989002326587
 30
0.0
 10
6.12294507591869
 20
-4.192989002326587
 30
0.0
 10
6.12294507591869
 20
-4.333950088247699
 30
0.0
 10
6.12294507591869
 20
-4.473162313669629
 30
0.0
 10
6.12294507591869
 20
-4.613160671824099
 30
0.0
 10
6.349204818527356
 20
-4.613160671824099
 30
0.0
 10
6.574573041044421
 20
-4.613160671824099
 30
0.0
 10
6.801879333025795
 20
-4.613160671824099
 30
0.0
 10
6.801879333025795
 20
-4.52708035831501
 30
0.0
 10
6.801879333025795
 20
-4.441247847515102
 30
0.0
 10
6.801879333025795
 20
-4.354920951999853
 30
0.0
 10
6.837752335561504
 20
-4.354920951999853
 30
0.0
 10
6.871668754637388
 20
-4.354920951999853
 30
0.0
 10
6.906956023183195
 20
-4.354920951999853
 30
0.0
 10
6.906956023183195
 20
-4.441756473765445
 30
0.0
 10
6.906956023183195
 20
-4.527076289305013
 30
0.0
 10
6.906956023183195
 20
-4.612914089817928
 30
0.0
 10
7.13352968991358
 20
-4.612914089817928
 30
0.0
 10
7.358703617203016
 20
-4.612914089817928
 30
0.0
 10
7.58396095919751
 20
-4.612914089817928
 30
0.0
 10
7.58396095919751
 20
-4.471741822277687
 30
0.0
 10
7.58396095919751
 20
-4.331608779892122
 30
0.0
 10
7.58396095919751
 20
-4.190063791035615
 30
0.0
 10
7.496681711891116
 20
-4.190063791035615
 30
0.0
 10
7.410808714441676
 20
-4.190063791035615
 30
0.0
 10
7.324639493064031
 20
-4.190063791035615
 30
0.0
 10
7.324639493064031
 20
-4.070047527202632
 30
0.0
 10
7.324639493064031
 20
-3.951454196167611
 30
0.0
 10
7.324639493064031
 20
-3.832399032497278
 30
0.0
 10
7.359081831682765
 20
-3.832399032497278
 30
0.0
 10
7.392575277168866
 20
-3.832399032497278
 30
0.0
 10
7.42795063978124
 20
-3.832399032497278
 30
0.0
 10
7.42795063978124
 20
-3.919926285963343
 30
0.0
 10
7.42795063978124
 20
-4.006235277834573
 30
0.0
 10
7.42795063978124
 20
-4.092300536006633
 30
0.0
 10
7.567369367460818
 20
-4.092300536006633
 30
0.0
 10
7.704885019162096
 20
-4.092300536006633
 30
0.0
 10
7.844291132910661
 20
-4.092300536006633
 30
0.0
 10
7.844291132910661
 20
-4.004913663385701
 30
0.0
 10
7.844291132910661
 20
-3.918603857712444
 30
0.0
 10
7.844291132910661
 20
-3.832450302023314
 30
0.0
 10
7.879198966273722
 20
-3.832450302023314
 30
0.0
 10
7.91219294078198
 20
-3.832450302023314
 30
0.0
 10
7.945074000262669
 20
-3.832450302023314
 30
0.0
 10
7.945074000262669
 20
-3.952773369210503
 30
0.0
 10
7.945074000262669
 20
-4.071806967127815
 30
0.0
 10
7.945074000262669
 20
-4.192607329188339
 30
0.0
 10
7.857756504262245
 20
-4.192607329188339
 30
0.0
 10
7.771855023742798
 20
-4.192607329188339
 30
0.0
 10
7.685587942674588
 20
-4.192607329188339
 30
0.0
 10
7.685587942674588
 20
-4.333967991891718
 30
0.0
 10
7.685587942674588
 20
-4.473546021312889
 30
0.0
 10
7.685587942674588
 20
-4.613947211457634
 30
0.0
 10
7.693533091605937
 20
-4.613947211457634
 30
0.0
 10
7.700176157336424
 20
-4.613947618358629
 30
0.0
 10
7.70681922306691
 20
-4.613947618358629
 30
0.0
 10
7.897374420153987
 20
-4.613947618358629
 30
0.0
 10
8.087930024142059
 20
-4.614051785014706
 30
0.0
 10
8.278484610877639
 20
-4.613692491431455
 30
0.0
 10
8.290143952139513
 20
-4.61367051877744
 30
0.0
 10
8.35704986981265
 20
-4.613621690657409
 30
0.0
 10
8.364254052022513
 20
-4.613044705039025
 30
0.0
 10
8.364254052022513
 20
-4.606612414026686
 30
0.0
 10
8.36425445892352
 20
-4.600644397055652
 30
0.0
 10
8.36425445892352
 20
-4.59467638008463
 30
0.0
 10
8.36425445892352
 20
-4.524676387205393
 30
0.0
 10
8.36425445892352
 20
-4.454676801227164
 30
0.0
 10
8.36425445892352
 20
-4.384676808347927
 30
0.0
 10
8.364254865824503
 20
-4.352289116330073
 30
0.0
 10
8.36425445892352
 20
-4.352289523231081
 30
0.0
 10
8.396681620338388
 20
-4.352289116330073
 30
0.0
 10
8.42030222340433
 20
-4.352289116330073
 30
0.0
 10
8.443923233371278
 20
-4.352288709429078
 30
0.0
 10
8.469163302418286
 20
-4.352288709429078
 30
0.0
 10
8.469163302418286
 20
-4.44116280520604
 30
0.0
 10
8.469163302418286
 20
-4.527047806234994
 30
0.0
 10
8.469163302418286
 20
-4.612747260407824
 30
0.0
 10
8.696164825550467
 20
-4.612747260407824
 30
0.0
 10
8.921428067609465
 20
-4.612747260407824
 30
0.0
 10
9.14667706813346
 20
-4.612747260407824
 30
0.0
 10
9.14667706813346
 20
-4.4717735605557
 30
0.0
 10
9.14667706813346
 20
-4.332001846258385
 30
0.0
 10
9.14667706813346
 20
-4.190643218060005
 30
0.0
 10
9.059957106251936
 20
-4.190643218060005
 30
0.0
 10
8.974127443759016
 20
-4.190643218060005
 30
0.0
 10
8.887405854273513
 20
-4.190643218060005
 30
0.0
 10
8.887405854273513
 20
-4.157748527395799
 30
0.0
 10
8.887405854273513
 20
-4.12644481964268
 30
0.0
 10
8.887405854273513
 20
-4.093338947359345
 30
0.0
 10
8.974104250402004
 20
-4.093338947359345
 30
0.0
 10
9.059903802220914
 20
-4.093338947359345
 30
0.0
 10
9.146441472454297
 20
-4.093338947359345
 30
0.0
 10
9.146441472454297
 20
-3.951937187654936
 30
0.0
 10
9.146441472454297
 20
-3.812340033886749
 30
0.0
 10
9.146441472454297
 20
-3.67217525322317
 30
0.0
 10
8.920042976604538
 20
-3.67217525322317
 30
0.0
 10
8.694793162278529
 20
-3.67217525322317
 30
0.0
 10
8.467396945176107
 20
-3.67217525322317
 30
0.0
 10
8.467396945176107
 20
-3.759403027553023
 30
0.0
 10
8.467396945176107
 20
-3.845677025938256
 30
0.0
 10
8.467396945176107
 20
-3.93249342335682
 30
0.0
 10
8.432734269665717
 20
-3.93249342335682
 30
0.0
 10
8.40022369354579
 20
-3.93249342335682
 30
0.0
 10
8.366547752961043
 20
-3.93249342335682
 30
0.0
 10
8.366547752961043
 20
-3.725222529727956
 30
0.0
 10
8.366547752961043
 20
-3.518874487567725
 30
0.0
 10
8.366547752961043
 20
-3.311731157402455
 30
0.0
 10
8.400504862136964
 20
-3.311731157402455
 30
0.0
 10
8.434039201173594
 20
-3.311731157402455
 30
0.0
 10
8.469227592776354
 20
-3.311731157402455
 30
0.0
 10
8.469227592776354
 20
-3.398720080845148
 30
0.0
 10
8.469227592776354
 20
-3.484604878423599
 30
0.0
 10
8.469227592776354
 20
-3.571038382000931
 30
0.0
 10
8.696048451864398
 20
-3.571038382000931
 30
0.0
 10
8.921206713465304
 20
-3.571038382000931
 30
0.0
 10
9.14654116319937
 20
-3.571038382000931
 30
0.0
 10
9.14654116319937
 20
-3.430053899272302
 30
0.0
 10
9.14654116319937
 20
-3.29032287507501
 30
0.0
 10
9.14654116319937
 20
-3.148646253744914
 30
0.0
 10
9.059716627760785
 20
-3.148646253744914
 30
0.0
 10
8.973914227634875
 20
-3.148646253744914
 30
0.0
 10
8.887429047630524
 20
-3.148646253744914
 30
0.0
 10
8.887429047630524
 20
-3.115875871336306
 30
0.0
 10
8.887429047630524
 20
-3.085059020629993
 30
0.0
 10
8.887429047630524
 20
-3.052362083851954
 30
0.0
 10
8.97418196849306
 20
-3.052362083851954
 30
0.0
 10
9.06001529309497
 20
-3.052362083851954
 30
0.0
 10
9.146524887159355
 20
-3.052362083851954
 30
0.0
 10
9.146524887159355
 20
-2.910834388287955
 30
0.0
 10
9.146524887159355
 20
-2.771192271959232
 30
0.0
 10
9.146524887159355
 20
-2.631606918320042
 30
0.0
 10
8.919824063866372
 20
-2.631606918320042
 30
0.0
 10
8.694188914293136
 20
-2.631606918320042
 30
0.0
 10
8.466697482356645
 20
-2.631606918320042
 30
0.0
 10
8.466697482356645
 20
-2.718880469012434
 30
0.0
 10
8.466697482356645
 20
-2.804646654949301
 30
0.0
 10
8.466697482356645
 20
-2.89035363679064
 30
0.0
 10
8.431688940996006
 20
-2.89035363679064
 30
0.0
 10
8.39855010973166
 20
-2.89035363679064
 30
0.0
 10
8.363287255245849
 20
-2.89035363679064
 30
0.0
 10
8.363287255245849
 20
-2.803285367652885
 30
0.0
 10
8.363287255245849
 20
-2.717031103966191
 30
0.0
 10
8.363287255245849
 20
-2.631464299519444
 30
0.0
 10
8.135913824599431
 20
-2.631464299519444
 30
0.0
 10
7.910681100115463
 20
-2.631464299519444
 30
0.0
 10
7.685473603493493
 20
-2.631464299519444
 30
0.0
 10
7.685473603493493
 20
-2.772527110690627
 30
0.0
 10
7.685473603493493
 20
-2.912208289515383
 30
0.0
 10
7.685473603493493
 20
-3.054050723003077
 30
0.0
 10
7.772904014521499
 20
-3.054050723003077
 30
0.0
 10
7.859159905812198
 20
-3.054050723003077
 30
0.0
 10
7.945415390201902
 20
-3.054050723003077
 30
0.0
 10
7.945415390201902
 20
-3.174297699703225
 30
0.0
 10
7.945415390201902
 20
-3.292373656116398
 30
0.0
 10
7.945415390201902
 20
-3.411370836394174
 30
0.0
 10
7.911263375446866
 20
-3.411370836394174
 30
0.0
 10
7.878202262273551
 20
-3.411370836394174
 30
0.0
 10
7.842942256094753
 20
-3.411370836394174
 30
0.0
 10
7.842942256094753
 20
-3.32421935600189
 30
0.0
 10
7.842942256094753
 20
-3.237940067903663
 30
0.0
 10
7.842942256094753
 20
-3.151531995638859
 30
0.0
 10
7.703196583461451
 20
-3.151531995638859
 30
0.0
 10
7.565651634888152
 20
-3.151531995638859
 30
0.0
 10
7.426406450485198
 20
-3.151531995638859
 30
0.0
 10
7.426406450485198
 20
-3.238236698732862
 30
0.0
 10
7.426406450485198
 20
-3.324069006082279
 30
0.0
 10
7.426406450485198
 20
-3.410850816915841
 30
0.0
 10
7.391371664010054
 20
-3.410850816915841
 30
0.0
 10
7.35804830314209
 20
-3.410850816915841
 30
0.0
 10
7.325031745628293
 20
-3.410850816915841
 30
0.0
 10
7.325031745628293
 20
-3.290319212966008
 30
0.0
 10
7.325031745628293
 20
-3.171244314597162
 30
0.0
 10
7.325031745628293
 20
-3.050568667693256
 30
0.0
 10
7.412178953560101
 20
-3.050568667693256
 30
0.0
 10
7.498007802251019
 20
-3.050568667693256
 30
0.0
 10
7.583753032786363
 20
-3.050568667693256
 30
0.0
 10
7.583753032786363
 20
-2.908865190897131
 30
0.0
 10
7.583753032786363
 20
-2.768780773181106
 30
0.0
 10
7.583753032786363
 20
-2.627053289225968
 30
0.0
 10
7.49632811492188
 20
-2.627053289225968
 30
0.0
 10
7.410517169874993
 20
-2.627053289225968
 30
0.0
 10
7.324910082229216
 20
-2.627053289225968
 30
0.0
 10
7.324910082229216
 20
-2.594060535420706
 30
0.0
 10
7.324910082229216
 20
-2.562736482617563
 30
0.0
 10
7.324910082229216
 20
-2.530124995049568
 30
0.0
 10
7.411990761847467
 20
-2.530124995049568
 30
0.0
 10
7.497869862811917
 20
-2.530124995049568
 30
0.0
 10
7.584102357295099
 20
-2.530124995049568
 30
0.0
 10
7.584102357295099
 20
-2.388610320317588
 30
0.0
 10
7.584102357295099
 20
-2.248421329044491
 30
0.0
 10
7.584102357295099
 20
-2.106878781593978
 30
0.0
 10
7.496941518179786
 20
-2.106878781593978
 30
0.0
 10
7.411044920472325
 20
-2.106878781593978
 30
0.0
 10
7.324529833244456
 20
-2.106878781593978
 30
0.0
 10
7.324529833244456
 20
-1.986921721856536
 30
0.0
 10
7.324529833244456
 20
-1.868324525262008
 30
0.0
 10
7.324529833244456
 20
-1.748968458301988
 30
0.0
 10
7.358856001627613
 20
-1.748968458301988
 30
0.0
 10
7.392347005707721
 20
-1.748968458301988
 30
0.0
 10
7.427727454582585
 20
-1.748968458301988
 30
0.0
 10
7.427727454582585
 20
-1.836394800319971
 30
0.0
 10
7.427727454582585
 20
-1.922704402542712
 30
0.0
 10
7.427727454582585
 20
-2.009066291543983
 30
0.0
 10
7.567142316702656
 20
-2.009066291543983
 30
0.0
 10
7.704657358052448
 20
-2.009066291543983
 30
0.0
 10
7.844068151162522
 20
-2.009066291543983
 30
0.0
 10
7.844068151162522
 20
-1.921782975227592
 30
0.0
 10
7.844068151162522
 20
-1.83547398335635
 30
0.0
 10
7.844068151162522
 20
-1.74901331913726
 30
0.0
 10
7.878976187976074
 20
-1.74901331913726
 30
0.0
 10
7.911973621142831
 20
-1.74901331913726
 30
0.0
 10
7.945208277592769
 20
-1.74901331913726
 30
0.0
 10
7.945208277592769
 20
-1.869260397562647
 30
0.0
 10
7.945208277592769
 20
-1.988323902703491
 30
0.0
 10
7.945208277592769
 20
-2.109718950575901
 30
0.0
 10
7.857665561888691
 20
-2.109718950575901
 30
0.0
 10
7.771393191107475
 20
-2.109718950575901
 30
0.0
 10
7.68548581052351
 20
-2.109718950575901
 30
0.0
 10
7.68548581052351
 20
-2.251231183901887
 30
0.0
 10
7.68548581052351
 20
-2.390401498520797
 30
0.0
 10
7.68548581052351
 20
-2.529717280247294
 30
0.0
 10
7.912018176802361
 20
-2.529717280247294
 30
0.0
 10
8.137341233308398
 20
-2.529717280247294
 30
0.0
 10
8.364363508391584
 20
-2.529717280247294
 30
0.0
 10
8.364363508391584
 20
-2.443006473638282
 30
0.0
 10
8.364363508391584
 20
-2.357173149036372
 30
0.0
 10
8.364363508391584
 20
-2.270158387380156
 30
0.0
 10
8.39955149309334
 20
-2.270158387380156
 30
0.0
 10
8.433042700623925
 20
-2.270158387380156
 30
0.0
 10
8.468911023798126
 20
-2.270158387380156
 30
0.0
 10
8.468911023798126
 20
-2.357264701761424
 30
0.0
 10
8.468911023798126
 20
-2.44350004455162
 30
0.0
 10
8.468911023798126
 20
-2.529254226908986
 30
0.0
 10
8.696490753251686
 20
-2.529254226908986
 30
0.0
 10
8.921695401566643
 20
-2.529254226908986
 30
0.0
 10
9.146526514763359
 20
-2.529254226908986
 30
0.0
 10
9.146526514763359
 20
-2.388138315157259
 30
0.0
 10
9.146526514763359
 20
-2.248384097602967
 30
0.0
 10
9.146526514763359
 20
-2.107043983400091
 30
0.0
 10
9.059651930501735
 20
-2.107043983400091
 30
0.0
 10
8.97382308181083
 20
-2.107043983400091
 30
0.0
 10
8.887689464270705
 20
-2.107043983400091
 30
0.0
 10
8.887689464270705
 20
-2.07418306551891
 30
0.0
 10
8.887689464270705
 20
-2.04292716863333
 30
0.0
 10
8.887689464270705
 20
-2.010103075292679
 30
0.0
 10
8.97471256739742
 20
-2.010103075292679
 30
0.0
 10
9.06054222989034
 20
-2.010103075292679
 30
0.0
 10
9.146476872841326
 20
-2.010103075292679
 30
0.0
 10
9.146476872841326
 20
-1.868827658348841
 30
0.0
 10
9.146476872841326
 20
-1.729144241568608
 30
0.0
 10
9.146476872841326
 20
-1.589049244426582
 30
0.0
 10
8.91962508927726
 20
-1.589049244426582
 30
0.0
 10
8.693885366146938
 20
-1.589049244426582
 30
0.0
 10
8.466249891256338
 20
-1.589049244426582
 30
0.0
 10
8.466249891256338
 20
-1.676535095715861
 30
0.0
 10
8.466249891256338
 20
-1.762845003114345
 30
0.0
 10
8.466249891256338
 20
-1.848794904852841
 30
0.0
 10
8.431866756733143
 20
-1.848794904852841
 30
0.0
 10
8.399398091416211
 20
-1.848794904852841
 30
0.0
 10
8.366625064151119
 20
-1.848794904852841
 30
0.0
 10
8.366625064151119
 20
-1.641194217963263
 30
0.0
 10
8.366625064151119
 20
-1.434888595232299
 30
0.0
 10
8.366625064151119
 20
-1.228227747928119
 30
0.0
 10
8.40096262576228
 20
-1.228227747928119
 30
0.0
 10
8.434044083985604
 20
-1.228227747928119
 30
0.0
 10
8.46938628416645
 20
-1.228227747928119
 30
0.0
 10
8.46938628416645
 20
-1.315414933883188
 30
0.0
 10
8.46938628416645
 20
-1.401682218401902
 30
0.0
 10
8.46938628416645
 20
-1.487965880685869
 30
0.0
 10
8.696484649736679
 20
-1.487965880685869
 30
0.0
 10
8.921308845616396
 20
-1.487965880685869
 30
0.0
 10
9.146795069423534
 20
-1.487965880685869
 30
0.0
 10
9.146795069423534
 20
-1.34716440168212
 30
0.0
 10
9.146795069423534
 20
-1.207352709361531
 30
0.0
 10
9.146795069423534
 20
-1.06568076739293
 30
0.0
 10
9.060177646594083
 20
-1.06568076739293
 30
0.0
 10
8.974326011447147
 20
-1.06568076739293
 30
0.0
 10
8.887491710384564
 20
-1.06568076739293
 30
0.0
 10
8.887491710384564
 20
-1.032482935483535
 30
0.0
 10
8.887491710384564
 20
-1.001141589387885
 30
0.0
 10
8.887491710384564
 20
-0.9674051222793751
 30
0.0
 10
8.974447674846234
 20
-0.9674051222793751
 30
0.0
 10
9.060655348368401
 20
-0.9674051222793751
 30
0.0
 10
9.146240056459165
 20
-0.9674051222793751
 30
0.0
 10
9.146240056459165
 20
-0.8258868363010126
 30
0.0
 10
9.146240056459165
 20
-0.6867632644345146
 30
0.0
 10
9.146240056459165
 20
-0.5479379001385875
 30
0.0
 10
8.919625903079249
 20
-0.5479379001385875
 30
0.0
 10
8.694360626515238
 20
-0.5479379001385875
 30
0.0
 10
8.467273654173015
 20
-0.5479379001385875
 30
0.0
 10
8.467273654173015
 20
-0.6348890326508783
 30
0.0
 10
8.467273654173015
 20
-0.7206752584620137
 30
0.0
 10
8.467273654173015
 20
-0.8067198155456986
 30
0.0
 10
8.431917212457165
 20
-0.8067198155456986
 30
0.0
 10
8.39839914946055
 20
-0.8067198155456986
 30
0.0
 10
8.363308820998883
 20
-0.8067198155456986
 30
0.0
 10
8.363308820998883
 20
-0.7197666485284091
 30
0.0
 10
8.363308820998883
 20
-0.6339369860354888
 30
0.0
 10
8.363308820998883
 20
-0.5477954847884929
 30
0.0
 10
8.136477789385822
 20
-0.5477954847884929
 30
0.0
 10
7.91123733378284
 20
-0.5477954847884929
 30
0.0
 10
7.685757213490698
 20
-0.5477954847884929
 30
0.0
 10
7.685757213490698
 20
-0.6889378959678475
 30
0.0
 10
7.685757213490698
 20
-0.8290325370715107
 30
0.0
 10
7.685757213490698
 20
-0.9706649079178203
 30
0.0
 10
7.773103192561128
 20
-0.9706649079178203
 30
0.0
 10
7.85898107282258
 20
-0.9706649079178203
 30
0.0
 10
7.945074407163676
 20
-0.9706649079178203
 30
0.0
 10
7.945074407163676
 20
-1.090645771363787
 30
0.0
 10
7.945074407163676
 20
-1.209074409218942
 30
0.0
 10
7.945074407163676
 20
-1.327728470228256
 30
0.0
 10
7.910628202985436
 20
-1.327728470228256
 30
0.0
 10
7.877628735313666
 20
-1.327728470228256
 30
0.0
 10
7.842978063382778
 20
-1.327728470228256
 30
0.0
 10
7.842978063382778
 20
-1.240670780516514
 30
0.0
 10
7.842978063382778
 20
-1.154830538597594
 30
0.0
 10
7.842978063382778
 20
-1.068160015187611
 30
0.0
 10
7.703267180785019
 20
-1.068160015187611
 30
0.0
 10
7.565228050946871
 20
-1.068160015187611
 30
0.0
 10
7.424825436648638
 20
-1.068160015187611
 30
0.0
 10
7.424825436648638
 20
-1.155090446611515
 30
0.0
 10
7.424825436648638
 20
-1.241369531259238
 30
0.0
 10
7.424825436648638
 20
-1.327801102056797
 30
0.0
 10
7.389998983485636
 20
-1.327801102056797
 30
0.0
 10
7.357547814911741
 20
-1.327801102056797
 30
0.0
 10
7.324593920151996
 20
-1.327801102056797
 30
0.0
 10
7.324593920151996
 20
-1.20800029230347
 30
0.0
 10
7.324593920151996
 20
-1.089364847014912
 30
0.0
 10
7.324593920151996
 20
-0.9684481112683316
 30
0.0
 10
7.411713458815787
 20
-0.9684481112683316
 30
0.0
 10
7.497971181160993
 20
-0.9684481112683316
 30
0.0
 10
7.584439678224334
 20
-0.9684481112683316
 30
0.0
 10
7.584439678224334
 20
-0.8269058181309421
 30
0.0
 10
7.584439678224334
 20
-0.687648681011107
 30
0.0
 10
7.584439678224334
 20
-0.5477480808219626
 30
0.0
 10
7.357689619910338
 20
-0.5477480808219626
 30
0.0
 10
7.131880520159471
 20
-0.5477480808219626
 30
0.0
 10
6.904260710957386
 20
-0.5477480808219626
 30
0.0
 10
6.904260710957386
 20
-0.6345166165103819
 30
0.0
 10
6.904260710957386
 20
-0.7203142355495199
 30
0.0
 10
6.904260710957386
 20
-0.8065143305405575
 30
0.0
 10
6.869007011744088
 20
-0.8065143305405575
 30
0.0
 10
6.835577246264531
 20
-0.8065143305405575
 30
0.0
 10
6.800317036635255
 20
-0.8065143305405575
 30
0.0
 10
6.800317036635255
 20
-0.7194117291309112
 30
0.0
 10
6.800317036635255
 20
-0.6336357775700333
 30
0.0
 10
6.800317036635255
 20
-0.5475147739609333
 30
0.0
 10
6.573642661907292
 20
-0.5475147739609333
 30
0.0
 10
6.348817347049842
 20
-0.5475147739609333
 30
0.0
 10
6.123299486689929
 20
-0.5475147739609333
 30
0.0
 10
6.123299486689929
 20
-0.6885169060204437
 30
0.0
 10
6.123299486689929
 20
-0.8287544711004481
 30
0.0
 10
6.123299486689929
 20
-0.9704622712196926
 30
0.0
 10
6.21042197538596
 20
-0.9704622712196926
 30
0.0
 10
6.296308604018918
 20
-0.9704622712196926
 30
0.0
 10
6.382446595744782
 20
-0.9704622712196926
 30
0.0
 10
6.382446595744782
 20
-1.003191963528277
 30
0.0
 10
6.382446595744782
 20
-1.034431889549599
 30
0.0
 10
6.382446595744782
 20
-1.06724489483799
 30
0.0
 10
6.295338755484762
 20
-1.06724489483799
 30
0.0
 10
6.209498411840589
 20
-1.06724489483799
 30
0.0
 10
6.123424201846508
 20
-1.06724489483799
 30
0.0
 10
6.123424201846508
 20
-1.208469042255779
 30
0.0
 10
6.123424201846508
 20
-1.348090304908245
 30
0.0
 10
6.123424201846508
 20
-1.487717772800958
 30
0.0
 10
6.350042627686927
 20
-1.487717772800958
 30
0.0
 10
6.575285321245397
 20
-1.487717772800958
 30
0.0
 10
6.802235371401038
 20
-1.487717772800958
 30
0.0
 10
6.802235371401038
 20
-1.400654081299459
 30
0.0
 10
6.802235371401038
 20
-1.314809566920038
 30
0.0
 10
6.802235371401038
 20
-1.228287155474151
 30
0.0
 10
6.836947892283963
 20
-1.228287155474151
 30
0.0
 10
6.869943697846742
 20
-1.228287155474151
 30
0.0
 10
6.902981210762012
 20
-1.228287155474151
 30
0.0
 10
6.902981210762012
 20
-1.3483303764984
 30
0.0
 10
6.902981210762012
 20
-1.467362448536973
 30
0.0
 10
6.902981210762012
 20
-1.587974822335367
 30
0.0
 10
6.815865334207236
 20
-1.587974822335367
 30
0.0
 10
6.730035468263824
 20
-1.587974822335367
 30
0.0
 10
6.644476394936103
 20
-1.587974822335367
 30
0.0
 10
6.644476394936103
 20
-1.729773615690785
 30
0.0
 10
6.644476394936103
 20
-1.869979798531138
 30
0.0
 10
6.644476394936103
 20
-2.011951626536933
 30
0.0
 10
6.731580471361869
 20
-2.011951626536933
 30
0.0
 10
6.817395688869257
 20
-2.011951626536933
 30
0.0
 10
6.903117319146607
 20
-2.011951626536933
 30
0.0
 10
6.903117319146607
 20
-2.132317214878652
 30
0.0
 10
6.903117319146607
 20
-2.250903425146172
 30
0.0
 10
6.903117319146607
 20
-2.369764903940361
 30
0.0
 10
6.868873751666493
 20
-2.369764903940361
 30
0.0
 10
6.835797176255179
 20
-2.369764903940361
 30
0.0
 10
6.800521911288885
 20
-2.369764903940361
 30
0.0
 10
6.800521911288885
 20
-2.282704162471128
 30
0.0
 10
6.800521911288885
 20
-2.196487537126953
 30
0.0
 10
6.800521911288885
 20
-2.110394813137355
 30
0.0
 10
6.660389275804327
 20
-2.110394813137355
 30
0.0
 10
6.522470385211768
 20
-2.110394813137355
 30
0.0
 10
6.383135784313999
 20
-2.110394813137355
 30
0.0
 10
6.383135784313999
 20
-2.197686064023262
 30
0.0
 10
6.383135784313999
 20
-2.2835568235172
 30
0.0
 10
6.383135784313999
 20
-2.369245087912519
 30
0.0
 10
6.348796696824087
 20
-2.369245087912519
 30
0.0
 10
6.315902819961884
 20
-2.369245087912519
 30
0.0
 10
6.283210765995831
 20
-2.369245087912519
 30
0.0
 10
6.283210765995831
 20
-2.249237572451041
 30
0.0
 10
6.283210765995831
 20
-2.13062877917802
 30
0.0
 10
6.283210765995831
 20
-2.009980191190607
 30
0.0
 10
6.370628257917057
 20
-2.009980191190607
 30
0.0
 10
6.456899916621524
 20
-2.009980191190607
 30
0.0
 10
6.542380458056199
 20
-2.009980191190607
 30
0.0
 10
6.542380458056199
 20
-1.868242738160966
 30
0.0
 10
6.542380458056199
 20
-1.728557083425206
 30
0.0
 10
6.542380458056199
 20
-1.589228891218214
 30
0.0
 10
6.228075171832377
 20
-1.589228891218214
 30
0.0
 10
5.915092517309934
 20
-1.589228891218214
 30
0.0
 10
5.602078836586239
 20
-1.589228891218214
 30
0.0
 10
5.602078836586239
 20
-1.730325983798656
 30
0.0
 10
5.602078836586239
 20
-1.870048157899179
 30
0.0
 10
5.602078836586239
 20
-2.011869839435879
 30
0.0
 10
5.689496531957969
 20
-2.011869839435879
 30
0.0
 10
5.775802675522199
 20
-2.011869839435879
 30
0.0
 10
5.861911573826559
 20
-2.011869839435879
 30
0.0
 10
5.861911573826559
 20
-2.132556879567813
 30
0.0
 10
5.861911573826559
 20
-2.251134138013324
 30
0.0
 10
5.861911573826559
 20
-2.369444265952148
 30
0.0
 10
5.82702042340452
 20
-2.369444265952148
 30
0.0
 10
5.793403788640577
 20
-2.369444265952148
 30
0.0
 10
5.758122114983507
 20
-2.369444265952148
 30
0.0
 10
5.758122114983507
 20
-2.282390238349409
 30
0.0
 10
5.758122114983507
 20
-2.196518665053468
 30
0.0
 10
5.758122114983507
 20
-2.109977943062581
 30
0.0
 10
5.618958921132124
 20
-2.109977943062581
 30
0.0
 10
5.481495403621491
 20
-2.109977943062581
 30
0.0
 10
5.34166819820027
 20
-2.109977943062581
 30
0.0
 10
5.34166819820027
 20
-2.197155261668399
 30
0.0
 10
5.34166819820027
 20
-2.28335561097256
 30
0.0
 10
5.34166819820027
 20
-2.369720755181838
 30
0.0
 10
5.306787016852732
 20
-2.369720755181838
 30
0.0
 10
5.274278780413561
 20
-2.369720755181838
 30
0.0
 10
5.24135387735008
 20
-2.369720755181838
 30
0.0
 10
5.24135387735008
 20
-2.249683739397836
 30
0.0
 10
5.24135387735008
 20
-2.130567540577469
 30
0.0
 10
5.24135387735008
 20
-2.009952521922577
 30
0.0
 10
5.328188127550056
 20
-2.009952521922577
 30
0.0
 10
5.414052020589616
 20
-2.009952521922577
 30
0.0
 10
5.500797515508894
 20
-2.009952521922577
 30
0.0
 10
5.500797515508894
 20
-1.868292786984006
 30
0.0
 10
5.500797515508894
 20
-1.728136754691933
 30
0.0
 10
5.500797515508894
 20
-1.586389739488797
 30
0.0
 10
5.41368825109536
 20
-1.586389739488797
 30
0.0
 10
5.327810574284436
 20
-1.586389739488797
 30
0.0
 10
5.24172288569471
 20
-1.586389739488797
 30
0.0
 10
5.24172288569471
 20
-1.465799033168663
 30
0.0
 10
5.24172288569471
 20
-1.346806328801879
 30
0.0
 10
5.24172288569471
 20
-1.228252161988128
 30
0.0
 10
5.276205202336718
 20
-1.228252161988128
 30
0.0
 10
5.309325417880321
 20
-1.228252161988128
 30
0.0
 10
5.343688868567634
 20
-1.228252161988128
 30
0.0
 10
5.343688868567634
 20
-1.315136613599002
 30
0.0
 10
5.343688868567634
 20
-1.401060270222981
 30
0.0
 10
5.343688868567634
 20
-1.487727436699717
 30
0.0
 10
5.570141075349435
 20
-1.487727436699717
 30
0.0
 10
5.795322632032619
 20
-1.487727436699717
 30
0.0
 10
6.02095147464038
 20
-1.487727436699717
 30
0.0
 10
6.02095147464038
 20
-1.346810702987631
 30
0.0
 10
6.02095147464038
 20
-1.20712413272463
 30
0.0
 10
6.02095147464038
 20
-1.065283428566166
 30
0.0
 10
5.934132635815786
 20
-1.065283428566166
 30
0.0
 10
5.848379267260421
 20
-1.065283428566166
 30
0.0
 10
5.762034366375915
 20
-1.065283428566166
 30
0.0
 10
5.762034366375915
 20
-1.032325769972178
 30
0.0
 10
5.762034366375915
 20
-1.00153404540265
 30
0.0
 10
5.762034366375915
 20
-0.9685197258443798
 30
0.0
 10
5.849468948139158
 20
-0.9685197258443798
 30
0.0
 10
5.935817409407428
 20
-0.9685197258443798
 30
0.0
 10
6.022190691636713
 20
-0.9685197258443798
 30
0.0
 10
6.022190691636713
 20
-0.8270501662607961
 30
0.0
 10
6.022190691636713
 20
-0.6878165276737161
 30
0.0
 10
6.022190691636713
 20
-0.5476698541046592
 30
0.0
 10
5.795431783225947
 20
-0.5476698541046592
 30
0.0
 10
5.569632449099092
 20
-0.5476698541046592
 30
0.0
 10
5.341933090751454
 20
-0.5476698541046592
 30
0.0
 10
5.341933090751454
 20
-0.6343758796269109
 30
0.0
 10
5.341933090751454
 20
-0.72020350761482
 30
0.0
 10
5.341933090751454
 20
-0.8064500401825145
 30
0.0
 10
5.306582650825349
 20
-0.8064500401825145
 30
0.0
 10
5.273149172374158
 20
-0.8064500401825145
 30
0.0
 10
5.237776302030422
 20
-0.8064500401825145
 30
0.0
 10
5.237776302030422
 20
-0.7192975934003445
 30
0.0
 10
5.237776302030422
 20
-0.6335375109784738
 30
0.0
 10
5.237776302030422
 20
-0.547839531821776
 30
0.0
 10
5.184424205813785
 20
-0.547839531821776
 30
0.0
 10
5.13304491823438
 20
-0.547839531821776
 30
0.0
 10
5.081347688385866
 20
-0.547839531821776
 30
0.0
 10
5.081347688385866
 20
-0.6880769443138963
 30
0.0
 10
5.081347688385866
 20
-0.827225642317166
 30
0.0
 10
5.081347688385866
 20
-0.9668368850324971
 30
0.0
 10
5.221989102708638
 20
-0.9668368850324971
 30
0.0
 10
5.361675113482773
 20
-0.9668368850324971
 30
0.0
 10
5.503167001758735
 20
-0.9668368850324971
 30
0.0
 10
5.503167001758735
 20
-0.8800660096633237
 30
0.0
 10
5.503167001758735
 20
-0.7942696113271823
 30
0.0
 10
5.503167001758735
 20
-0.7080697706492679
 30
0.0
 10
5.62396471896275
 20
-0.7080697706492679
 30
0.0
 10
5.742949488760031
 20
-0.7080697706492679
 30
0.0
 10
5.862020623294635
 20
-0.7080697706492679
 30
0.0
 10
5.862020623294635
 20
-0.7424434447242068
 30
0.0
 10
5.862020623294635
 20
-0.7754664617913628
 30
0.0
 10
5.862020623294635
 20
-0.8106343048935969
 30
0.0
 10
5.774632326520165
 20
-0.8106343048935969
 30
0.0
 10
5.688373586922453
 20
-0.8106343048935969
 30
0.0
 10
5.602122781894258
 20
-0.8106343048935969
 30
0.0
 10
5.602122781894258
 20
-0.9502667573235613
 30
0.0
 10
5.602122781894258
 20
-1.087726968763566
 30
0.0
 10
5.602122781894258
 20
-1.227114670241867
 30
0.0
 10
5.689079458432691
 20
-1.227114670241867
 30
0.0
 10
5.774878705075833
 20
-1.227114670241867
 30
0.0
 10
5.860483249590339
 20
-1.227114670241867
 30
0.0
 10
5.860483249590339
 20
-1.262001039577159
 30
0.0
 10
5.860483249590339
 20
-1.294932351331378
 30
0.0
 10
5.860483249590339
 20
-1.327459101766067
 30
0.0
 10
5.740375026131296
 20
-1.327459101766067
 30
0.0
 10
5.621842018169572
 20
-1.327459101766067
 30
0.0
 10
5.501590819871555
 20
-1.327459101766067
 30
0.0
 10
5.501590819871555
 20
-1.240085555152872
 30
0.0
 10
5.501590819871555
 20
-1.154201774826914
 30
0.0
 10
5.501590819871555
 20
-1.068663555175451
 30
0.0
 10
5.36020757416265
 20
-1.068663555175451
 30
0.0
 10
5.220562456939054
 20
-1.068663555175451
 30
0.0
 10
5.081254965820436
 20
-1.068663555175451
 30
0.0
 10
5.081254965820436
 20
-1.295402016810941
 30
0.0
 10
5.081254965820436
 20
-1.52078224290752
 30
0.0
 10
5.081254965820436
 20
-1.748470411477633
 30
0.0
 10
5.168280357765272
 20
-1.748470411477633
 30
0.0
 10
5.25447414579081
 20
-1.748470411477633
 30
0.0
 10
5.34078390060141
 20
-1.748470411477633
 30
0.0
 10
5.34078390060141
 20
-1.783783721687478
 30
0.0
 10
5.34078390060141
 20
-1.816774440987741
 30
0.0
 10
5.34078390060141
 20
-1.851418195601607
 30
0.0
 10
5.253693658809665
 20
-1.851418195601607
 30
0.0
 10
5.167854790181612
 20
-1.851418195601607
 30
0.0
 10
5.081736278841137
 20
-1.851418195601607
 30
0.0
 10
5.081736278841137
 20
-2.0787466636875
 30
0.0
 10
5.081736278841137
 20
-2.304399716904767
 30
0.0
 10
5.081736278841137
 20
-2.529293289405005
 30
0.0
 10
5.222768012948412
 20
-2.529293289405005
 30
0.0
 10
5.362454786661917
 20
-2.529293289405005
 30
0.0
 10
5.503768299711902
 20
-2.529293289405005
 30
0.0
 10
5.503768299711902
 20
-2.4421279743787
 30
0.0
 10
5.503768299711902
 20
-2.356271049518758
 30
0.0
 10
5.503768299711902
 20
-2.270279033526738
 30
0.0
 10
5.536686641496734
 20
-2.270279033526738
 30
0.0
 10
5.56795245659421
 20
-2.270279033526738
 30
0.0
 10
5.600676655739297
 20
-2.270279033526738
 30
0.0
 10
5.600676655739297
 20
-2.357444145102552
 30
0.0
 10
5.600676655739297
 20
-2.443296594051478
 30
0.0
 10
5.600676655739297
 20
-2.529780960253838
 30
0.0
 10
5.741865402770056
 20
-2.529780960253838
 30
0.0
 10
5.881569571501321
 20
-2.529780960253838
 30
0.0
 10
6.02199843091407
 20
-2.529780960253838
 30
0.0
 10
6.02199843091407
 20
-2.303236997296481
 30
0.0
 10
6.02199843091407
 20
-2.077527384840184
 30
0.0
 10
6.02199843091407
 20
-1.849920393019602
 30
0.0
 10
5.934554083526816
 20
-1.849920393019602
 30
0.0
 10
5.848244277853584
 20
-1.849920393019602
 30
0.0
 10
5.762269046527838
 20
-1.849920393019602
 30
0.0
 10
5.762269046527838
 20
-1.815014187260545
 30
0.0
 10
5.762269046527838
 20
-1.782020619653281
 30
0.0
 10
5.762269046527838
 20
-1.749044752239532
 30
0.0
 10
5.969971051766467
 20
-1.749044752239532
 30
0.0
 10
6.176321738783208
 20
-1.749044752239532
 30
0.0
 10
6.382843120769557
 20
-1.749044752239532
 30
0.0
 10
6.382843120769557
 20
-1.783367563689441
 30
0.0
 10
6.382843120769557
 20
-1.816472723896027
 30
0.0
 10
6.382843120769557
 20
-1.851054426107364
 30
0.0
 10
6.296102000036019
 20
-1.851054426107364
 30
0.0
 10
6.210227171532083
 20
-1.851054426107364
 30
0.0
 10
6.123272224322906
 20
-1.851054426107364
 30
0.0
 10
6.123272224322906
 20
-2.078246582358159
 30
0.0
 10
6.123272224322906
 20
-2.303949684398453
 30
0.0
 10
6.123272224322906
 20
-2.529674962543266
 30
0.0
 10
6.26425365529403
 20
-2.529674962543266
 30
0.0
 10
6.404013366011845
 20
-2.529674962543266
 30
0.0
 10
6.54617318227977
 20
-2.529674962543266
 30
0.0
 10
6.54617318227977
 20
-2.442506799209948
 30
0.0
 10
6.54617318227977
 20
-2.356249280315246
 30
0.0
 10
6.54617318227977
 20
-2.270491639299381
 30
0.0
 10
6.579362876169157
 20
-2.270491639299381
 30
0.0
 10
6.610128050448414
 20
-2.270491639299381
 30
0.0
 10
6.642576981066806
 20
-2.270491639299381
 30
0.0
 10
6.642576981066806
 20
-2.357885225786857
 30
0.0
 10
6.642576981066806
 20
-2.443757612884787
 30
0.0
 10
6.642576981066806
 20
-2.529383824877565
 30
0.0
 10
6.784027975792254
 20
-2.529383824877565
 30
0.0
 10
6.923730720370018
 20
-2.529383824877565
 30
0.0
 10
7.063310173944703
 20
-2.529383824877565
 30
0.0
 10
7.063310173944703
 20
-2.302825416934714
 30
0.0
 10
7.063310173944703
 20
-2.077498291418654
 30
0.0
 10
7.063310173944703
 20
-1.850583641650044
 30
0.0
 10
6.976554404775166
 20
-1.850583641650044
 30
0.0
 10
6.890724742282246
 20
-1.850583641650044
 30
0.0
 10
6.804108540155804
 20
-1.850583641650044
 30
0.0
 10
6.804108540155804
 20
-1.815464219766858
 30
0.0
 10
6.804108540155804
 20
-1.781937510123978
 30
0.0
 10
6.804108540155804
 20
-1.746610161829658
 30
0.0
 10
6.890846202230831
 20
-1.746610161829658
 30
0.0
 10
6.976647585104224
 20
-1.746610161829658
 30
0.0
 10
7.063339877717718
 20
-1.746610161829658
 30
0.0
 10
7.063339877717718
 20
-1.519563879587445
 30
0.0
 10
7.063339877717718
 20
-1.294320473952212
 30
0.0
 10
7.063339877717718
 20
-1.068473125507315
 30
0.0
 10
6.922498624141199
 20
-1.068473125507315
 30
0.0
 10
6.782366192107133
 20
-1.068473125507315
 30
0.0
 10
6.640588048977469
 20
-1.068473125507315
 30
0.0
 10
6.640588048977469
 20
-1.155475476683023
 30
0.0
 10
6.640588048977469
 20
-1.241325585951207
 30
0.0
 10
6.640588048977469
 20
-1.327577509957147
 30
0.0
 10
6.52047331510241
 20
-1.327577509957147
 30
0.0
 10
6.402012633793484
 20
-1.327577509957147
 30
0.0
 10
6.283365998727428
 20
-1.327577509957147
 30
0.0
 10
6.283365998727428
 20
-1.293198342718698
 30
0.0
 10
6.283365998727428
 20
-1.260220135624208
 30
0.0
 10
6.283365998727428
 20
-1.225508835444278
 30
0.0
 10
6.370548098420019
 20
-1.225508835444278
 30
0.0
 10
6.456428928713699
 20
-1.225508835444278
 30
0.0
 10
6.542993250962619
 20
-1.225508835444278
 30
0.0
 10
6.542993250962619
 20
-1.0861547032985
 30
0.0
 10
6.542993250962619
 20
-0.9485587903749066
 30
0.0
 10
6.542993250962619
 20
-0.8086400830912528
 30
0.0
 10
6.456237888694077
 20
-0.8086400830912528
 30
0.0
 10
6.369941205578091
 20
-0.8086400830912528
 30
0.0
 10
6.282924714592632
 20
-0.8086400830912528
 30
0.0
 10
6.282924714592632
 20
-0.7738026944638629
 30
0.0
 10
6.282924714592632
 20
-0.7412889139985483
 30
0.0
 10
6.282924714592632
 20
-0.707992510321838
 30
0.0
 10
6.402843322185554
 20
-0.707992510321838
 30
0.0
 10
6.521877327003873
 20
-0.707992510321838
 30
0.0
 10
6.642782059170953
 20
-0.707992510321838
 30
0.0
 10
6.642782059170953
 20
-0.7950559983728327
 30
0.0
 10
6.642782059170953
 20
-0.8808687236116081
 30
0.0
 10
6.642782059170953
 20
-0.9664872553480057
 30
0.0
 10
6.784861715941815
 20
-0.9664872553480057
 30
0.0
 10
6.925063321145911
 20
-0.9664872553480057
 30
0.0
 10
7.067099642960253
 20
-0.9664872553480057
 30
0.0
 10
7.067099642960253
 20
-0.8793806866536013
 30
0.0
 10
7.067099642960253
 20
-0.7936041247412251
 30
0.0
 10
7.067099642960253
 20
-0.7081932142402189
 30
0.0
 10
7.187430848167448
 20
-0.7081932142402189
 30
0.0
 10
7.305912077976889
 20
-0.7081932142402189
 30
0.0
 10
7.423918047418018
 20
-0.7081932142402189
 30
0.0
 10
7.423918047418018
 20
-0.742675225706484
 30
0.0
 10
7.423918047418018
 20
-0.775675456317635
 30
0.0
 10
7.423918047418018
 20
-0.8104004894063084
 30
0.0
 10
7.336669521137158
 20
-0.8104004894063084
 30
0.0
 10
7.250871393471761
 20
-0.8104004894063084
 30
0.0
 10
7.164889550004735
 20
-0.8104004894063084
 30
0.0
 10
7.164889550004735
 20
-1.037311121027541
 30
0.0
 10
7.164889550004735
 20
-1.262460125630709
 30
0.0
 10
7.164889550004735
 20
-1.488068826638924
 30
0.0
 10
7.305855111836851
 20
-1.488068826638924
 30
0.0
 10
7.445656733357686
 20
-1.488068826638924
 30
0.0
 10
7.587345154816792
 20
-1.488068826638924
 30
0.0
 10
7.587345154816792
 20
-1.400901782283376
 30
0.0
 10
7.587345154816792
 20
-1.314602454310893
 30
0.0
 10
7.587345154816792
 20
-1.228587855313359
 30
0.0
 10
7.620543597077686
 20
-1.228587855313359
 30
0.0
 10
7.651836318503809
 20
-1.228587855313359
 30
0.0
 10
7.684432343833805
 20
-1.228587855313359
 30
0.0
 10
7.684432343833805
 20
-1.315748592703421
 30
0.0
 10
7.684432343833805
 20
-1.401608569320855
 30
0.0
 10
7.684432343833805
 20
-1.487840148276784
 30
0.0
 10
7.825523027723496
 20
-1.487840148276784
 30
0.0
 10
7.965265241698287
 20
-1.487840148276784
 30
0.0
 10
8.105558196176958
 20
-1.487840148276784
 30
0.0
 10
8.105558196176958
 20
-1.261465761311292
 30
0.0
 10
8.105558196176958
 20
-1.036207198613801
 30
0.0
 10
8.105558196176958
 20
-0.8089649935399671
 30
0.0
 10
8.093679128374939
 20
-0.8089649935399671
 30
0.0
 10
8.082698904882527
 20
-0.8089652987157225
 30
0.0
 10
8.071718477939624
 20
-0.8089649935399671
 30
0.0
 10
8.001163065195012
 20
-0.8089631116228398
 30
0.0
 10
7.930607245549405
 20
-0.809033556358511
 30
0.0
 10
7.860052443156304
 20
-0.8088371757632506
 30
0.0
 10
7.853619338341963
 20
-0.808819272119245
 30
0.0
 10
7.844340164481196
 20
-0.8119823679075023
 30
0.0
 10
7.844329178154188
 20
-0.7999439475012574
 30
0.0
 10
7.844301101985176
 20
-0.7695322684659863
 30
0.0
 10
7.84431961598068
 20
-0.7391205894307151
 30
0.0
 10
7.84431961598068
 20
-0.7079138767035272
 30
0.0
 10
7.965045311707639
 20
-0.7079138767035272
 30
0.0
 10
8.084052867960938
 20
-0.7079138767035272
 30
0.0
 10
8.204830647015935
 20
-0.7079138767035272
 30
0.0
 10
8.204830647015935
 20
-0.7949004604654798
 30
0.0
 10
8.204830647015935
 20
-0.8807181193788867
 30
0.0
 10
8.204830647015935
 20
-0.9666389276958524
 30
0.0
 10
8.346818751061745
 20
-0.9666389276958524
 30
0.0
 10
8.487031546043353
 20
-0.9666389276958524
 30
0.0
 10
8.629238969728299
 20
-0.9666389276958524
 30
0.0
 10
8.629238969728299
 20
-0.8796922202319339
 30
0.0
 10
8.629238969728299
 20
-0.7939191169780694
 30
0.0
 10
8.629238969728299
 20
-0.7080672783806423
 30
0.0
 10
8.74973130773161
 20
-0.7080672783806423
 30
0.0
 10
8.868218437605567
 20
-0.7080672783806423
 30
0.0
 10
8.986450440552339
 20
-0.7080672783806423
 30
0.0
 10
8.986450440552339
 20
-0.7424697915639752
 30
0.0
 10
8.986450440552339
 20
-0.7755243943212741
 30
0.0
 10
8.986450440552339
 20
-0.8103792288290429
 30
0.0
 10
8.899522959160675
 20
-0.8103792288290429
 30
0.0
 10
8.8137352074708
 20
-0.8103792288290429
 30
0.0
 10
8.728027208376968
 20
-0.8103792288290429
 30
0.0
 10
8.728027208376968
 20
-0.9500742931504267
 30
0.0
 10
8.728027208376968
 20
-1.08793275894445
 30
0.0
 10
8.728027208376968
 20
-1.227641200136216
 30
0.0
 10
8.81530014871785
 20
-1.227641200136216
 30
0.0
 10
8.901066334654717
 20
-1.227641200136216
 30
0.0
 10
8.986590414496428
 20
-1.227641200136216
 30
0.0
 10
8.986590414496428
 20
-1.262081707700455
 30
0.0
 10
8.986590414496428
 20
-1.29465250516844
 30
0.0
 10
8.986590414496428
 20
-1.328003738754938
 30
0.0
 10
8.866954196197714
 20
-1.328003738754938
 30
0.0
 10
8.748339706310666
 20
-1.328003738754938
 30
0.0
 10
8.62745104673311
 20
-1.328003738754938
 30
0.0
 10
8.62745104673311
 20
-1.240834761619617
 30
0.0
 10
8.62745104673311
 20
-1.154591484259931
 30
0.0
 10
8.62745104673311
 20
-1.067941407625211
 30
0.0
 10
8.485898733658587
 20
-1.067941407625211
 30
0.0
 10
8.346621404076611
 20
-1.067941407625211
 30
0.0
 10
8.206769123381239
 20
-1.067941407625211
 30
0.0
 10
8.206769123381239
 20
-1.382074981626917
 30
0.0
 10
8.206769123381239
 20
-1.695571755563214
 30
0.0
 10
8.206769123381239
 20
-2.008819099186313
 30
0.0
 10
8.347822575829417
 20
-2.008819099186313
 30
0.0
 10
8.487488902767659
 20
-2.008819099186313
 30
0.0
 10
8.628908566116074
 20
-2.008819099186313
 30
0.0
 10
8.628908566116074
 20
-1.921701188126538
 30
0.0
 10
8.628908566116074
 20
-1.835807235275575
 30
0.0
 10
8.628908566116074
 20
-1.748963575489976
 30
0.0
 10
8.749178736173235
 20
-1.748963575489976
 30
0.0
 10
8.86768539729519
 20
-1.748963575489976
 30
0.0
 10
8.986155437327144
 20
-1.748963575489976
 30
0.0
 10
8.986155437327144
 20
-1.783592885118348
 30
0.0
 10
8.986155437327144
 20
-1.817072292519924
 30
0.0
 10
8.986155437327144
 20
-1.851731712822319
 30
0.0
 10
8.899312184442552
 20
-1.851731712822319
 30
0.0
 10
8.813917499118917
 20
-1.851731712822319
 30
0.0
 10
8.727702094477738
 20
-1.851731712822319
 30
0.0
 10
8.727702094477738
 20
-1.990846688905195
 30
0.0
 10
8.727702094477738
 20
-2.128737706779235
 30
0.0
 10
8.727702094477738
 20
-2.268404644068975
 30
0.0
 10
8.814697935237442
 20
-2.268404644068975
 30
0.0
 10
8.900515797601352
 20
-2.268404644068975
 30
0.0
 10
8.986563965931408
 20
-2.268404644068975
 30
0.0
 10
8.986563965931408
 20
-2.303227028221967
 30
0.0
 10
8.986563965931408
 20
-2.336262506632263
 30
0.0
 10
8.986563965931408
 20
-2.369252208680033
 30
0.0
 10
8.866503349889399
 20
-2.369252208680033
 30
0.0
 10
8.747495386735105
 20
-2.369252208680033
 30
0.0
 10
8.626874874916716
 20
-2.369252208680033
 30
0.0
 10
8.626874874916716
 20
-2.282060648539186
 30
0.0
 10
8.626874874916716
 20
-2.196245024130778
 30
0.0
 10
8.626874874916716
 20
-2.110246090821761
 30
0.0
 10
8.485046682964013
 20
-2.110246090821761
 30
0.0
 10
8.344845688111414
 20
-2.110246090821761
 30
0.0
 10
8.203289712927901
 20
-2.110246090821761
 30
0.0
 10
8.203289712927901
 20
-2.19741303345207
 30
0.0
 10
8.203289712927901
 20
-2.283308410456534
 30
0.0
 10
8.203289712927901
 20
-2.369805594040397
 30
0.0
 10
8.083330415234956
 20
-2.369805594040397
 30
0.0
 10
7.964733625541434
 20
-2.369805594040397
 30
0.0
 10
7.845395869126415
 20
-2.369805594040397
 30
0.0
 10
7.845395869126415
 20
-2.335472304889726
 30
0.0
 10
7.845395869126415
 20
-2.301981097359127
 30
0.0
 10
7.845395869126415
 20
-2.266598003627753
 30
0.0
 10
7.932828721560402
 20
-2.266598003627753
 30
0.0
 10
8.019137713431657
 20
-2.266598003627753
 30
0.0
 10
8.105141936453668
 20
-2.266598003627753
 30
0.0
 10
8.105141936453668
 20
-2.039488041379008
 30
0.0
 10
8.105141936453668
 20
-1.814281155108562
 30
0.0
 10
8.105141936453668
 20
-1.588964609018527
 30
0.0
 10
7.96407587007449
 20
-1.588964609018527
 30
0.0
 10
7.824355221852707
 20
-1.588964609018527
 30
0.0
 10
7.682529267855519
 20
-1.588964609018527
 30
0.0
 10
7.682529267855519
 20
-1.676351888540492
 30
0.0
 10
7.682529267855519
 20
-1.762655692423967
 30
0.0
 10
7.682529267855519
 20
-1.848959089406447
 30
0.0
 10
7.649567031625274
 20
-1.848959089406447
 30
0.0
 10
7.618727597913473
 20
-1.848959089406447
 30
0.0
 10
7.585806051783252
 20
-1.848959089406447
 30
0.0
 10
7.585806051783252
 20
-1.761549837230468
 30
0.0
 10
7.585806051783252
 20
-1.675245728171237
 30
0.0
 10
7.585806051783252
 20
-1.589122995232881
 30
0.0
 10
7.444010208460074
 20
-1.589122995232881
 30
0.0
 10
7.304325774427323
 20
-1.589122995232881
 30
0.0
 10
7.164947126496271
 20
-1.589122995232881
 30
0.0
 10
7.164947126496271
 20
-1.816153510061314
 30
0.0
 10
7.164947126496271
 20
-2.041916019647652
 30
0.0
 10
7.164947126496271
 20
-2.269556173899749
 30
0.0
 10
7.251970026172507
 20
-2.269556173899749
 30
0.0
 10
7.337790126491907
 20
-2.269556173899749
 30
0.0
 10
7.424206133326227
 20
-2.269556173899749
 30
0.0
 10
7.424206133326227
 20
-2.304420468855773
 30
0.0
 10
7.424206133326227
 20
-2.337394301764523
 30
0.0
 10
7.424206133326227
 20
-2.372777598946401
 30
0.0
 10
7.336873378538282
 20
-2.372777598946401
 30
0.0
 10
7.250684829363144
 20
-2.372777598946401
 30
0.0
 10
7.164872867063726
 20
-2.372777598946401
 30
0.0
 10
7.164872867063726
 20
-2.51266385587529
 30
0.0
 10
7.164872867063726
 20
-2.650129458753541
 30
0.0
 10
7.164872867063726
 20
-2.789450733643535
 30
0.0
 10
7.251830052228406
 20
-2.789450733643535
 30
0.0
 10
7.337657883666818
 20
-2.789450733643535
 30
0.0
 10
7.424080807818124
 20
-2.789450733643535
 30
0.0
 10
7.424080807818124
 20
-2.824805547755406
 30
0.0
 10
7.424080807818124
 20
-2.858285158607499
 30
0.0
 10
7.424080807818124
 20
-2.893476398517237
 30
0.0
 10
7.336972458931856
 20
-2.893476398517237
 30
0.0
 10
7.251152562062948
 20
-2.893476398517237
 30
0.0
 10
7.164720889540123
 20
-2.893476398517237
 30
0.0
 10
7.164720889540123
 20
-3.120381893013346
 30
0.0
 10
7.164720889540123
 20
-3.345563754872286
 30
0.0
 10
7.164720889540123
 20
-3.57091712550285
 30
0.0
 10
7.305869353371867
 20
-3.57091712550285
 30
0.0
 10
7.446019689049926
 20
-3.57091712550285
 30
0.0
 10
7.587564881356936
 20
-3.57091712550285
 30
0.0
 10
7.587564881356936
 20
-3.483674906187477
 30
0.0
 10
7.587564881356936
 20
-3.397794787970547
 30
0.0
 10
7.587564881356936
 20
-3.311786292487997
 30
0.0
 10
7.62026853200152
 20
-3.311786292487997
 30
0.0
 10
7.651556777516614
 20
-3.311786292487997
 30
0.0
 10
7.684133475049116
 20
-3.311786292487997
 30
0.0
 10
7.684133475049116
 20
-3.398836047630236
 30
0.0
 10
7.684133475049116
 20
-3.484721862461179
 30
0.0
 10
7.684133475049116
 20
-3.570655895060668
 30
0.0
 10
7.825518144911497
 20
-3.570655895060668
 30
0.0
 10
7.965583234830003
 20
-3.570655895060668
 30
0.0
 10
8.105717701369068
 20
-3.570655895060668
 30
0.0
 10
8.105717701369068
 20
-3.344178867317851
 30
0.0
 10
8.105717701369068
 20
-3.119335750541634
 30
0.0
 10
8.105717701369068
 20
-2.892199339727868
 30
0.0
 10
8.01866937038033
 20
-2.892199339727868
 30
0.0
 10
7.932348985281085
 20
-2.892199339727868
 30
0.0
 10
7.845570022754524
 20
-2.892199339727868
 30
0.0
 10
7.845570022754524
 20
-2.856969037322111
 30
0.0
 10
7.845570022754524
 20
-2.824047084290909
 30
0.0
 10
7.845570022754524
 20
-2.791389413459354
 30
0.0
 10
7.966034081138306
 20
-2.791389413459354
 30
0.0
 10
8.085177745776212
 20
-2.791389413459354
 30
0.0
 10
8.206217365624878
 20
-2.791389413459354
 30
0.0
 10
8.206217365624878
 20
-2.87849328643463
 30
0.0
 10
8.206217365624878
 20
-2.964285310585018
 30
0.0
 10
8.206217365624878
 20
-3.050009585718865
 30
0.0
 10
8.347820948225413
 20
-3.050009585718865
 30
0.0
 10
8.487513723728675
 20
-3.050009585718865
 30
0.0
 10
8.629187700202287
 20
-3.050009585718865
 30
0.0
 10
8.629187700202287
 20
-2.963093701005719
 30
0.0
 10
8.629187700202287
 20
-2.877313273533837
 30
0.0
 10
8.629187700202287
 20
-2.791371916716344
 30
0.0
 10
8.74966864497757
 20
-2.791371916716344
 30
0.0
 10
8.868158216257521
 20
-2.791371916716344
 30
0.0
 10
8.98647973742436
 20
-2.791371916716344
 30
0.0
 10
8.98647973742436
 20
-2.82574670976904
 30
0.0
 10
8.98647973742436
 20
-2.858802533229348
 30
0.0
 10
8.98647973742436
 20
-2.893661335021862
 30
0.0
 10
8.899581552904717
 20
-2.893661335021862
 30
0.0
 10
8.813792987412828
 20
-2.893661335021862
 30
0.0
 10
8.727615424564696
 20
-2.893661335021862
 30
0.0
 10
8.727615424564696
 20
-3.033451359864191
 30
0.0
 10
8.727615424564696
 20
-3.171408702601272
 30
0.0
 10
8.727615424564696
 20
-3.310952145437429
 30
0.0
 10
8.81453802314435
 20
-3.310952145437429
 30
0.0
 10
8.900367685637244
 20
-3.310952145437429
 30
0.0
 10
8.986207927556178
 20
-3.310952145437429
 30
0.0
 10
8.986207927556178
 20
-3.345471388345219
 30
0.0
 10
8.986207927556178
 20
-3.378385610257434
 30
0.0
 10
8.986207927556178
 20
-3.411352525849186
 30
0.0
 10
8.86611557323613
 20
-3.411352525849186
 30
0.0
 10
8.747428654971069
 20
-3.411352525849186
 30
0.0
 10
8.626740597586629
 20
-3.411352525849186
 30
0.0
 10
8.626740597586629
 20
-3.324139196504827
 30
0.0
 10
8.626740597586629
 20
-3.237848311728107
 30
0.0
 10
8.626740597586629
 20
-3.15148398132083
 30
0.0
 10
8.485521129530348
 20
-3.15148398132083
 30
0.0
 10
8.346309717910394
 20
-3.15148398132083
 30
0.0
 10
8.207002684555391
 20
-3.15148398132083
 30
0.0
 10
8.207002684555391
 20
-3.46573545488737
 30
0.0
 10
8.207002684555391
 20
-3.779139760571347
 30
0.0
 10
8.207002684555391
 20
-4.092643553549894
 30
0.0
 10
8.34791331475248
 20
-4.092643553549894
 30
0.0
 10
8.487205292770467
 20
-4.092643553549894
 30
0.0
 10
8.628787716519001
 20
-4.092643553549894
 30
0.0
 10
8.628787716519001
 20
-4.005606615789146
 30
0.0
 10
8.628787716519001
 20
-3.919284196184902
 30
0.0
 10
8.628787716519001
 20
-3.832471460875329
 30
0.0
 10
8.749564478321492
 20
-3.832471460875329
 30
0.0
 10
8.868044690878452
 20
-3.832471460875329
 30
0.0
 10
8.986570476347424
 20
-3.832471460875329
 30
0.0
 10
8.986570476347424
 20
-3.866869243834533
 30
0.0
 10
8.986570476347424
 20
-3.899952736562859
 30
0.0
 10
8.986570476347424
 20
-3.934806655543373
 30
0.0
 10
8.899739023591842
 20
-3.934806655543373
 30
0.0
 10
8.813932147554926
 20
-3.934806655543373
 30
0.0
 10
8.727875841204877
 20
-3.934806655543373
 30
0.0
 10
8.727875841204877
 20
-4.074506755264641
 30
0.0
 10
8.727875841204877
 20
-4.212412421574691
 30
0.0
 10
8.727875841204877
 20
-4.35210926608795
 30
0.0
 10
8.815021421532668
 20
-4.35210926608795
 30
0.0
 10
8.900809987024559
 20
-4.35210926608795
 30
0.0
 10
8.98700748802172
 20
-4.35210926608795
 30
0.0
 10
8.98700748802172
 20
-4.386554249563194
 30
0.0
 10
8.98700748802172
 20
-4.419199509914228
 30
0.0
 10
8.98700748802172
 20
-4.453009320928041
 30
0.0
  0
HATCH
  5
46
330
41
100
AcDbEntity
  8
Layer 1
 62
     7
420
 16777215
100
AcDbHatch
 10
0.0
 20
0.0
 30
0.0
210
0.0
220
0.0
230
1.0
  2
SOLID
 70
     1
 71
     0
 91
        1
 92
        1
 93
        1
 72
     4
 94
        3
 73
     0
 74
     1
 95
     1265
 96
     1261
 40
0.0
 40
0.0
 40
0.0
 40
0.0
 40
1.0
 40
1.0
 40
1.0
 40
2.0
 40
2.0
 40
2.0
 40
3.0
 40
3.0
 40
3.0
 40
4.0
 40
4.0
 40
4.0
 40
5.0
 40
5.0
 40
5.0
 40
6.0
 40
6.0
 40
6.0
 40
7.0
 40
7.0
 40
7.0
 40
8.0
 40
8.0
 40
8.0
 40
9.0
 40
9.0
 40
9.0
 40
10.0
 40
10.0
 40
10.0
 40
11.0
 40
11.0
 40
11.0
 40
12.0
 40
12.0
 40
12.0
 40
13.0
 40
13.0
 40
13.0
 40
14.0
 40
14.0
 40
14.0
 40
15.0
 40
15.0
 40
15.0
 40
16.0
 40
16.0
 40
16.0
 40
17.0
 40
17.0
 40
17.0
 40
18.0
 40
18.0
 40
18.0
 40
19.0
 40
19.0
 40
19.0
 40
20.0
 40
20.0
 40
20.0
 40
21.0
 40
21.0
 40
21.0
 40
22.0
 40
22.0
 40
22.0
 40
23.0
 40
23.0
 40
23.0
 40
24.0
 40
24.0
 40
24.0
 40
25.0
 40
25.0
 40
25.0
 40
26.0
 40
26.0
 40
26.0
 40
27.0
 40
27.0
 40
27.0
 40
28.0
 40
28.0
 40
28.0
 40
29.0
 40
29.0
 40
29.0
 40
30.0
 40
30.0
 40
30.0
 40
31.0
 40
31.0
 40
31.0
 40
32.0
 40
32.0
 40
32.0
 40
33.0
 40
33.0
 40
33.0
 40
34.0
 40
34.0
 40
34.0
 40
35.0
 40
35.0
 40
35.0
 40
36.0
 40
36.0
 40
36.0
 40
37.0
 40
37.0
 40
37.0
 40
38.0
 40
38.0
 40
38.0
 40
39.0
 40
39.0
 40
39.0
 40
40.0
 40
40.0
 40
40.0
 40
41.0
 40
41.0
 40
41.0
 40
42.0
 40
42.0
 40
42.0
 40
43.0
 40
43.0
 40
43.0
 40
44.0
 40
44.0
 40
44.0
 40
45.0
 40
45.0
 40
45.0
 40
46.0
 40
46.0
 40
46.0
 40
47.0
 40
47.0
 40
47.0
 40
48.0
 40
48.0
 40
48.0
 40
49.0
 40
49.0
 40
49.0
 40
50.0
 40
50.0
 40
50.0
 40
51.0
 40
51.0
 40
51.0
 40
52.0
 40
52.0
 40
52.0
 40
53.0
 40
53.0
 40
53.0
 40
54.0
 40
54.0
 40
54.0
 40
55.0
 40
55.0
 40
55.0
 40
56.0
 40
56.0
 40
56.0
 40
57.0
 40
57.0
 40
57.0
 40
58.0
 40
58.0
 40
58.0
 40
59.0
 40
59.0
 40
59.0
 40
60.0
 40
60.0
 40
60.0
 40
61.0
 40
61.0
 40
61.0
 40
62.0
 40
62.0
 40
62.0
 40
63.0
 40
63.0
 40
63.0
 40
64.0
 40
64.0
 40
64.0
 40
65.0
 40
65.0
 40
65.0
 40
66.0
 40
66.0
 40
66.0
 40
67.0
 40
67.0
 40
67.0
 40
68.0
 40
68.0
 40
68.0
 40
69.0
 40
69.0
 40
69.0
 40
70.0
 40
70.0
 40
70.0
 40
71.0
 40
71.0
 40
71.0
 40
72.0
 40
72.0
 40
72.0
 40
73.0
 40
73.0
 40
73.0
 40
74.0
 40
74.0
 40
74.0
 40
75.0
 40
75.0
 40
75.0
 40
76.0
 40
76.0
 40
76.0
 40
77.0
 40
77.0
 40
77.0
 40
78.0
 40
78.0
 40
78.0
 40
79.0
 40
79.0
 40
79.0
 40
80.0
 40
80.0
 40
80.0
 40
81.0
 40
81.0
 40
81.0
 40
82.0
 40
82.0
 40
82.0
 40
83.0
 40
83.0
 40
83.0
 40
84.0
 40
84.0
 40
84.0
 40
85.0
 40
85.0
 40
85.0
 40
86.0
 40
86.0
 40
86.0
 40
87.0
 40
87.0
 40
87.0
 40
88.0
 40
88.0
 40
88.0
 40
89.0
 40
89.0
 40
89.0
 40
90.0
 40
90.0
 40
90.0
 40
91.0
 40
91.0
 40
91.0
 40
92.0
 40
92.0
 40
92.0
 40
93.0
 40
93.0
 40
93.0
 40
94.0
 40
94.0
 40
94.0
 40
95.0
 40
95.0
 40
95.0
 40
96.0
 40
96.0
 40
96.0
 40
97.0
 40
97.0
 40
97.0
 40
98.0
 40
98.0
 40
98.0
 40
99.0
 40
99.0
 40
99.0
 40
100.0
 40
100.0
 40
100.0
 40
101.0
 40
101.0
 40
101.0
 40
102.0
 40
102.0
 40
102.0
 40
103.0
 40
103.0
 40
103.0
 40
104.0
 40
104.0
 40
104.0
 40
105.0
 40
105.0
 40
105.0
 40
106.0
 40
106.0
 40
106.0
 40
107.0
 40
107.0
 40
107.0
 40
108.0
 40
108.0
 40
108.0
 40
109.0
 40
109.0
 40
109.0
 40
110.0
 40
110.0
 40
110.0
 40
111.0
 40
111.0
 40
111.0
 40
112.0
 40
112.0
 40
112.0
 40
113.0
 40
113.0
 40
113.0
 40
114.0
 40
114.0
 40
114.0
 40
115.0
 40
115.0
 40
115.0
 40
116.0
 40
116.0
 40
116.0
 40
117.0
 40
117.0
 40
117.0
 40
118.0
 40
118.0
 40
118.0
 40
119.0
 40
119.0
 40
119.0
 40
120.0
 40
120.0
 40
120.0
 40
121.0
 40
121.0
 40
121.0
 40
122.0
 40
122.0
 40
122.0
 40
123.0
 40
123.0
 40
123.0
 40
124.0
 40
124.0
 40
124.0
 40
125.0
 40
125.0
 40
125.0
 40
126.0
 40
126.0
 40
126.0
 40
127.0
 40
127.0
 40
127.0
 40
128.0
 40
128.0
 40
128.0
 40
129.0
 40
129.0
 40
129.0
 40
130.0
 40
130.0
 40
130.0
 40
131.0
 40
131.0
 40
131.0
 40
132.0
 40
132.0
 40
132.0
 40
133.0
 40
133.0
 40
133.0
 40
134.0
 40
134.0
 40
134.0
 40
135.0
 40
135.0
 40
135.0
 40
136.0
 40
136.0
 40
136.0
 40
137.0
 40
137.0
 40
137.0
 40
138.0
 40
138.0
 40
138.0
 40
139.0
 40
139.0
 40
139.0
 40
140.0
 40
140.0
 40
140.0
 40
141.0
 40
141.0
 40
141.0
 40
142.0
 40
142.0
 40
142.0
 40
143.0
 40
143.0
 40
143.0
 40
144.0
 40
144.0
 40
144.0
 40
145.0
 40
145.0
 40
145.0
 40
146.0
 40
146.0
 40
146.0
 40
147.0
 40
147.0
 40
147.0
 40
148.0
 40
148.0
 40
148.0
 40
149.0
 40
149.0
 40
149.0
 40
150.0
 40
150.0
 40
150.0
 40
151.0
 40
151.0
 40
151.0
 40
152.0
 40
152.0
 40
152.0
 40
153.0
 40
153.0
 40
153.0
 40
154.0
 40
154.0
 40
154.0
 40
155.0
 40
155.0
 40
155.0
 40
156.0
 40
156.0
 40
156.0
 40
157.0
 40
157.0
 40
157.0
 40
158.0
 40
158.0
 40
158.0
 40
159.0
 40
159.0
 40
159.0
 40
160.0
 40
160.0
 40
160.0
 40
161.0
 40
161.0
 40
161.0
 40
162.0
 40
162.0
 40
162.0
 40
163.0
 40
163.0
 40
163.0
 40
164.0
 40
164.0
 40
164.0
 40
165.0
 40
165.0
 40
165.0
 40
166.0
 40
166.0
 40
166.0
 40
167.0
 40
167.0
 40
167.0
 40
168.0
 40
168.0
 40
168.0
 40
169.0
 40
169.0
 40
169.0
 40
170.0
 40
170.0
 40
170.0
 40
171.0
 40
171.0
 40
171.0
 40
172.0
 40
172.0
 40
172.0
 40
173.0
 40
173.0
 40
173.0
 40
174.0
 40
174.0
 40
174.0
 40
175.0
 40
175.0
 40
175.0
 40
176.0
 40
176.0
 40
176.0
 40
177.0
 40
177.0
 40
177.0
 40
178.0
 40
178.0
 40
178.0
 40
179.0
 40
179.0
 40
179.0
 40
180.0
 40
180.0
 40
180.0
 40
181.0
 40
181.0
 40
181.0
 40
182.0
 40
182.0
 40
182.0
 40
183.0
 40
183.0
 40
183.0
 40
184.0
 40
184.0
 40
184.0
 40
185.0
 40
185.0
 40
185.0
 40
186.0
 40
186.0
 40
186.0
 40
187.0
 40
187.0
 40
187.0
 40
188.0
 40
188.0
 40
188.0
 40
189.0
 40
189.0
 40
189.0
 40
190.0
 40
190.0
 40
190.0
 40
191.0
 40
191.0
 40
191.0
 40
192.0
 40
192.0
 40
192.0
 40
193.0
 40
193.0
 40
193.0
 40
194.0
 40
194.0
 40
194.0
 40
195.0
 40
195.0
 40
195.0
 40
196.0
 40
196.0
 40
196.0
 40
197.0
 40
197.0
 40
197.0
 40
198.0
 40
198.0
 40
198.0
 40
199.0
 40
199.0
 40
199.0
 40
200.0
 40
200.0
 40
200.0
 40
201.0
 40
201.0
 40
201.0
 40
202.0
 40
202.0
 40
202.0
 40
203.0
 40
203.0
 40
203.0
 40
204.0
 40
204.0
 40
204.0
 40
205.0
 40
205.0
 40
205.0
 40
206.0
 40
206.0
 40
206.0
 40
207.0
 40
207.0
 40
207.0
 40
208.0
 40
208.0
 40
208.0
 40
209.0
 40
209.0
 40
209.0
 40
210.0
 40
210.0
 40
210.0
 40
211.0
 40
211.0
 40
211.0
 40
212.0
 40
212.0
 40
212.0
 40
213.0
 40
213.0
 40
213.0
 40
214.0
 40
214.0
 40
214.0
 40
215.0
 40
215.0
 40
215.0
 40
216.0
 40
216.0
 40
216.0
 40
217.0
 40
217.0
 40
217.0
 40
218.0
 40
218.0
 40
218.0
 40
219.0
 40
219.0
 40
219.0
 40
220.0
 40
220.0
 40
220.0
 40
221.0
 40
221.0
 40
221.0
 40
222.0
 40
222.0
 40
222.0
 40
223.0
 40
223.0
 40
223.0
 40
224.0
 40
224.0
 40
224.0
 40
225.0
 40
225.0
 40
225.0
 40
226.0
 40
226.0
 40
226.0
 40
227.0
 40
227.0
 40
227.0
 40
228.0
 40
228.0
 40
228.0
 40
229.0
 40
229.0
 40
229.0
 40
230.0
 40
230.0
 40
230.0
 40
231.0
 40
231.0
 40
231.0
 40
232.0
 40
232.0
 40
232.0
 40
233.0
 40
233.0
 40
233.0
 40
234.0
 40
234.0
 40
234.0
 40
235.0
 40
235.0
 40
235.0
 40
236.0
 40
236.0
 40
236.0
 40
237.0
 40
237.0
 40
237.0
 40
238.0
 40
238.0
 40
238.0
 40
239.0
 40
239.0
 40
239.0
 40
240.0
 40
240.0
 40
240.0
 40
241.0
 40
241.0
 40
241.0
 40
242.0
 40
242.0
 40
242.0
 40
243.0
 40
243.0
 40
243.0
 40
244.0
 40
244.0
 40
244.0
 40
245.0
 40
245.0
 40
245.0
 40
246.0
 40
246.0
 40
246.0
 40
247.0
 40
247.0
 40
247.0
 40
248.0
 40
248.0
 40
248.0
 40
249.0
 40
249.0
 40
249.0
 40
250.0
 40
250.0
 40
250.0
 40
251.0
 40
251.0
 40
251.0
 40
252.0
 40
252.0
 40
252.0
 40
253.0
 40
253.0
 40
253.0
 40
254.0
 40
254.0
 40
254.0
 40
255.0
 40
255.0
 40
255.0
 40
256.0
 40
256.0
 40
256.0
 40
257.0
 40
257.0
 40
257.0
 40
258.0
 40
258.0
 40
258.0
 40
259.0
 40
259.0
 40
259.0
 40
260.0
 40
260.0
 40
260.0
 40
261.0
 40
261.0
 40
261.0
 40
262.0
 40
262.0
 40
262.0
 40
263.0
 40
263.0
 40
263.0
 40
264.0
 40
264.0
 40
264.0
 40
265.0
 40
265.0
 40
265.0
 40
266.0
 40
266.0
 40
266.0
 40
267.0
 40
267.0
 40
267.0
 40
268.0
 40
268.0
 40
268.0
 40
269.0
 40
269.0
 40
269.0
 40
270.0
 40
270.0
 40
270.0
 40
271.0
 40
271.0
 40
271.0
 40
272.0
 40
272.0
 40
272.0
 40
273.0
 40
273.0
 40
273.0
 40
274.0
 40
274.0
 40
274.0
 40
275.0
 40
275.0
 40
275.0
 40
276.0
 40
276.0
 40
276.0
 40
277.0
 40
277.0
 40
277.0
 40
278.0
 40
278.0
 40
278.0
 40
279.0
 40
279.0
 40
279.0
 40
280.0
 40
280.0
 40
280.0
 40
281.0
 40
281.0
 40
281.0
 40
282.0
 40
282.0
 40
282.0
 40
283.0
 40
283.0
 40
283.0
 40
284.0
 40
284.0
 40
284.0
 40
285.0
 40
285.0
 40
285.0
 40
286.0
 40
286.0
 40
286.0
 40
287.0
 40
287.0
 40
287.0
 40
288.0
 40
288.0
 40
288.0
 40
289.0
 40
289.0
 40
289.0
 40
290.0
 40
290.0
 40
290.0
 40
291.0
 40
291.0
 40
291.0
 40
292.0
 40
292.0
 40
292.0
 40
293.0
 40
293.0
 40
293.0
 40
294.0
 40
294.0
 40
294.0
 40
295.0
 40
295.0
 40
295.0
 40
296.0
 40
296.0
 40
296.0
 40
297.0
 40
297.0
 40
297.0
 40
298.0
 40
298.0
 40
298.0
 40
299.0
 40
299.0
 40
299.0
 40
300.0
 40
300.0
 40
300.0
 40
301.0
 40
301.0
 40
301.0
 40
302.0
 40
302.0
 40
302.0
 40
303.0
 40
303.0
 40
303.0
 40
304.0
 40
304.0
 40
304.0
 40
305.0
 40
305.0
 40
305.0
 40
306.0
 40
306.0
 40
306.0
 40
307.0
 40
307.0
 40
307.0
 40
308.0
 40
308.0
 40
308.0
 40
309.0
 40
309.0
 40
309.0
 40
310.0
 40
310.0
 40
310.0
 40
311.0
 40
311.0
 40
311.0
 40
312.0
 40
312.0
 40
312.0
 40
313.0
 40
313.0
 40
313.0
 40
314.0
 40
314.0
 40
314.0
 40
315.0
 40
315.0
 40
315.0
 40
316.0
 40
316.0
 40
316.0
 40
317.0
 40
317.0
 40
317.0
 40
318.0
 40
318.0
 40
318.0
 40
319.0
 40
319.0
 40
319.0
 40
320.0
 40
320.0
 40
320.0
 40
321.0
 40
321.0
 40
321.0
 40
322.0
 40
322.0
 40
322.0
 40
323.0
 40
323.0
 40
323.0
 40
324.0
 40
324.0
 40
324.0
 40
325.0
 40
325.0
 40
325.0
 40
326.0
 40
326.0
 40
326.0
 40
327.0
 40
327.0
 40
327.0
 40
328.0
 40
328.0
 40
328.0
 40
329.0
 40
329.0
 40
329.0
 40
330.0
 40
330.0
 40
330.0
 40
331.0
 40
331.0
 40
331.0
 40
332.0
 40
332.0
 40
332.0
 40
333.0
 40
333.0
 40
333.0
 40
334.0
 40
334.0
 40
334.0
 40
335.0
 40
335.0
 40
335.0
 40
336.0
 40
336.0
 40
336.0
 40
337.0
 40
337.0
 40
337.0
 40
338.0
 40
338.0
 40
338.0
 40
339.0
 40
339.0
 40
339.0
 40
340.0
 40
340.0
 40
340.0
 40
341.0
 40
341.0
 40
341.0
 40
342.0
 40
342.0
 40
342.0
 40
343.0
 40
343.0
 40
343.0
 40
344.0
 40
344.0
 40
344.0
 40
345.0
 40
345.0
 40
345.0
 40
346.0
 40
346.0
 40
346.0
 40
347.0
 40
347.0
 40
347.0
 40
348.0
 40
348.0
 40
348.0
 40
349.0
 40
349.0
 40
349.0
 40
350.0
 40
350.0
 40
350.0
 40
351.0
 40
351.0
 40
351.0
 40
352.0
 40
352.0
 40
352.0
 40
353.0
 40
353.0
 40
353.0
 40
354.0
 40
354.0
 40
354.0
 40
355.0
 40
355.0
 40
355.0
 40
356.0
 40
356.0
 40
356.0
 40
357.0
 40
357.0
 40
357.0
 40
358.0
 40
358.0
 40
358.0
 40
359.0
 40
359.0
 40
359.0
 40
360.0
 40
360.0
 40
360.0
 40
361.0
 40
361.0
 40
361.0
 40
362.0
 40
362.0
 40
362.0
 40
363.0
 40
363.0
 40
363.0
 40
364.0
 40
364.0
 40
364.0
 40
365.0
 40
365.0
 40
365.0
 40
366.0
 40
366.0
 40
366.0
 40
367.0
 40
367.0
 40
367.0
 40
368.0
 40
368.0
 40
368.0
 40
369.0
 40
369.0
 40
369.0
 40
370.0
 40
370.0
 40
370.0
 40
371.0
 40
371.0
 40
371.0
 40
372.0
 40
372.0
 40
372.0
 40
373.0
 40
373.0
 40
373.0
 40
374.0
 40
374.0
 40
374.0
 40
375.0
 40
375.0
 40
375.0
 40
376.0
 40
376.0
 40
376.0
 40
377.0
 40
377.0
 40
377.0
 40
378.0
 40
378.0
 40
378.0
 40
379.0
 40
379.0
 40
379.0
 40
380.0
 40
380.0
 40
380.0
 40
381.0
 40
381.0
 40
381.0
 40
382.0
 40
382.0
 40
382.0
 40
383.0
 40
383.0
 40
383.0
 40
384.0
 40
384.0
 40
384.0
 40
385.0
 40
385.0
 40
385.0
 40
386.0
 40
386.0
 40
386.0
 40
387.0
 40
387.0
 40
387.0
 40
388.0
 40
388.0
 40
388.0
 40
389.0
 40
389.0
 40
389.0
 40
390.0
 40
390.0
 40
390.0
 40
391.0
 40
391.0
 40
391.0
 40
392.0
 40
392.0
 40
392.0
 40
393.0
 40
393.0
 40
393.0
 40
394.0
 40
394.0
 40
394.0
 40
395.0
 40
395.0
 40
395.0
 40
396.0
 40
396.0
 40
396.0
 40
397.0
 40
397.0
 40
397.0
 40
398.0
 40
398.0
 40
398.0
 40
399.0
 40
399.0
 40
399.0
 40
400.0
 40
400.0
 40
400.0
 40
401.0
 40
401.0
 40
401.0
 40
402.0
 40
402.0
 40
402.0
 40
403.0
 40
403.0
 40
403.0
 40
404.0
 40
404.0
 40
404.0
 40
405.0
 40
405.0
 40
405.0
 40
406.0
 40
406.0
 40
406.0
 40
407.0
 40
407.0
 40
407.0
 40
408.0
 40
408.0
 40
408.0
 40
409.0
 40
409.0
 40
409.0
 40
410.0
 40
410.0
 40
410.0
 40
411.0
 40
411.0
 40
411.0
 40
412.0
 40
412.0
 40
412.0
 40
413.0
 40
413.0
 40
413.0
 40
414.0
 40
414.0
 40
414.0
 40
415.0
 40
415.0
 40
415.0
 40
416.0
 40
416.0
 40
416.0
 40
417.0
 40
417.0
 40
417.0
 40
418.0
 40
418.0
 40
418.0
 40
419.0
 40
419.0
 40
419.0
 40
420.0
 40
420.0
 40
420.0
 40
420.0
 10
8.98700748802172
 20
-4.453009320928041
 10
8.866217298486212
 20
-4.453009320928041
 10
8.747288274125973
 20
-4.453009320928041
 10
8.626792274013647
 20
-4.453009320928041
 10
8.626792274013647
 20
-4.365679007546115
 10
8.626792274013647
 20
-4.279296773494821
 10
8.626792274013647
 20
-4.192167876108038
 10
8.48555327470937
 20
-4.192167876108038
 10
8.345887761573117
 20
-4.192167876108038
 10
8.204455891194685
 20
-4.192167876108038
 10
8.204455891194685
 20
-4.27948191344995
 10
8.204455891194685
 20
-4.365839326540228
 10
8.204455891194685
 20
-4.452833946596911
 10
8.083658987792685
 20
-4.452833946596911
 10
7.964631493390369
 20
-4.452833946596911
 10
7.845113072931225
 20
-4.452833946596911
 10
7.845113072931225
 20
-4.41861804838484
 10
7.845113072931225
 20
-4.385544728181508
 10
7.845113072931225
 20
-4.350576876920917
 10
7.932253770447018
 20
-4.350576876920917
 10
8.018562355417252
 20
-4.350576876920917
 10
8.105446705302874
 20
-4.350576876920917
 10
8.105446705302874
 20
-4.123455724894685
 10
8.105446705302874
 20
-3.8982368350447
 10
8.105446705302874
 20
-3.672608195887455
 10
7.964331607353162
 20
-3.672608195887455
 10
7.824257972513654
 20
-3.672608195887455
 10
7.682615123966571
 20
-3.672608195887455
 10
7.682615123966571
 20
-3.75989863297136
 10
7.682615123966571
 20
-3.84578200639631
 10
7.682615123966571
 20
-3.932530044446846
 10
7.650226007795228
 20
-3.932530044446846
 10
7.61941139504443
 20
-3.932530044446846
 10
7.586458314086699
 20
-3.932530044446846
 10
7.586458314086699
 20
-3.845461775309091
 10
7.586458314086699
 20
-3.759179638903877
 10
7.586458314086699
 20
-3.672165487599159
 10
7.444649449931502
 20
-3.672165487599159
 10
7.304979053983263
 20
-3.672165487599159
 10
7.164565860259017
 20
-3.672165487599159
 10
7.164565860259017
 20
-3.898949725597201
 10
7.164565860259017
 20
-4.124758214996543
 10
7.164565860259017
 20
-4.352945040742522
 10
7.251644708822773
 20
-4.352945040742522
 10
7.337915451999985
 20
-4.352945040742522
 10
7.424154049998176
 20
-4.352945040742522
 10
7.424154049998176
 20
-4.387779428475028
 10
7.424154049998176
 20
-4.420223679731913
 10
7.424154049998176
 20
-4.45303373498805
 10
7.304284473975801
 20
-4.45303373498805
 10
7.18564882523674
 20
-4.45303373498805
 10
7.06473921025766
 20
-4.45303373498805
 10
7.06473921025766
 20
-4.365858450887231
 10
7.06473921025766
 20
-4.27959340432402
 10
7.06473921025766
 20
-4.193784493782131
 10
6.922259976704531
 20
-4.193784493782131
 10
6.782062033609425
 20
-4.193784493782131
 10
6.640286942237266
 20
-4.193784493782131
 10
6.640286942237266
 20
-4.281103007035047
 10
6.640286942237266
 20
-4.366940807547962
 10
6.640286942237266
 20
-4.452721235019845
 10
6.520167529000711
 20
-4.452721235019845
 10
6.401643574586235
 20
-4.452721235019845
 10
6.283084423235247
 20
-4.452721235019845
 10
6.283084423235247
 20
-4.418366583566656
 10
6.283084423235247
 20
-4.385271697610329
 10
6.283084423235247
 20
-4.35017038282164
 10
6.370385744920895
 20
-4.35017038282164
 10
6.456669407204862
 20
-4.35017038282164
 10
6.542398158249713
 20
-4.35017038282164
 10
6.542398158249713
 20
-4.210136624280153
 10
6.542398158249713
 20
-4.072129639621039
 10
6.542398158249713
 20
-3.932462091979801
 10
6.455264174600416
 20
-3.932462091979801
 10
6.36942423785725
 20
-3.932462091979801
 10
6.283092561255241
 20
-3.932462091979801
 10
6.283092561255241
 20
-3.898247414470713
 10
6.283092561255241
 20
-3.865711610488751
 10
6.283092561255241
 20
-3.832176050749126
 10
6.402712300063462
 20
-3.832176050749126
 10
6.521281217038462
 20
-3.832176050749126
 10
6.642112300124495
 20
-3.832176050749126
 10
6.642112300124495
 20
-3.919424577029998
 10
6.642112300124495
 20
-4.005767748585261
 10
6.642112300124495
 20
-4.09249584848678
 10
6.783566956958945
 20
-4.09249584848678
 10
6.92275863388036
 20
-4.09249584848678
 10
7.062564527861696
 20
-4.09249584848678
 10
7.062564527861696
 20
-3.86588128820588
 10
7.062564527861696
 20
-3.64016882744257
 10
7.062564527861696
 20
-3.412559801116989
 10
6.975680788327572
 20
-3.412559801116989
 10
6.889920095554203
 20
-3.412559801116989
 10
6.804542296622091
 20
-3.412559801116989
 10
6.804542296622091
 20
-3.377080475299054
 10
6.804542296622091
 20
-3.343517042840908
 10
6.804542296622091
 20
-3.308043210186472
 10
6.891685028642895
 20
-3.308043210186472
 10
6.977451011129283
 20
-3.308043210186472
 10
7.063311394647699
 20
-3.308043210186472
 10
7.063311394647699
 20
-3.081319803887987
 10
7.063311394647699
 20
-2.856555422455333
 10
7.063311394647699
 20
-2.631474675494954
 10
6.922275438942531
 20
-2.631474675494954
 10
6.782186952216509
 20
-2.631474675494954
 10
6.640257035013747
 20
-2.631474675494954
 10
6.640257035013747
 20
-2.718622086877253
 10
6.640257035013747
 20
-2.804396207383636
 10
6.640257035013747
 20
-2.889854369263301
 10
6.607099079402373
 20
-2.889854369263301
 10
6.575803509669249
 20
-2.889854369263301
 10
6.542962733387589
 20
-2.889854369263301
 10
6.542962733387589
 20
-2.802699226761989
 10
6.542962733387589
 20
-2.716870174620579
 10
6.542962733387589
 20
-2.631066146890678
 10
6.402163187163587
 20
-2.631066146890678
 10
6.262956556630406
 20
-2.631066146890678
 10
6.123536811698336
 20
-2.631066146890678
 10
6.123536811698336
 20
-2.857744794079129
 10
6.123536811698336
 20
-3.083440368450915
 10
6.123536811698336
 20
-3.31072021186728
 10
6.210849119711004
 20
-3.31072021186728
 10
6.29668834437742
 20
-3.31072021186728
 10
6.382481690956056
 20
-3.31072021186728
 10
6.382481690956056
 20
-3.345297845068608
 10
6.382481690956056
 20
-3.378272898680355
 10
6.382481690956056
 20
-3.410790188666801
 10
6.174924135572509
 20
-3.410790188666801
 10
5.968615461084052
 20
-3.410790188666801
 10
5.76230770212285
 20
-3.410790188666801
 10
5.76230770212285
 20
-3.376319773879042
 10
5.76230770212285
 20
-3.343377272347311
 10
5.76230770212285
 20
-3.308075762266488
 10
5.849901077001454
 20
-3.308075762266488
 10
5.936129299024135
 20
-3.308075762266488
 10
6.021992429124313
 20
-3.308075762266488
 10
6.021992429124313
 20
-3.080924906467228
 10
6.021992429124313
 20
-2.856173138965573
 10
6.021992429124313
 20
-2.631001653082131
 10
5.881088105892748
 20
-2.631001653082131
 10
5.741343247061447
 20
-2.631001653082131
 10
5.599794087469692
 20
-2.631001653082131
 10
5.599794087469692
 20
-2.717693335344127
 10
5.599794087469692
 20
-2.803492276811526
 10
5.599794087469692
 20
-2.88996443598387
 10
5.566744062348637
 20
-2.88996443598387
 10
5.535510138117059
 20
-2.88996443598387
 10
5.502521300733936
 20
-2.88996443598387
 10
5.502521300733936
 20
-2.802933194837149
 10
5.502521300733936
 20
-2.717112891067245
 10
5.502521300733936
 20
-2.63118170677477
 10
5.361053317891725
 20
-2.63118170677477
 10
5.221356676828969
 20
-2.63118170677477
 10
5.081494071020718
 20
-2.63118170677477
 10
5.081494071020718
 20
-2.858041424908328
 10
5.081494071020718
 20
-3.083803731044163
 10
5.081494071020718
 20
-3.310974321541948
 10
5.168476484047422
 20
-3.310974321541948
 10
5.254370131722604
 20
-3.310974321541948
 10
5.340926163363658
 20
-3.310974321541948
 10
5.340926163363658
 20
-3.345880120399998
 10
5.340926163363658
 20
-3.379369293425599
 10
5.340926163363658
 20
-3.414743435334963
 10
5.25352337074105
 20
-3.414743435334963
 10
5.16723274027744
 20
-3.414743435334963
 10
5.081704286249987
 20
-3.414743435334963
 10
5.081704286249987
 20
-3.641881066851725
 10
5.081704286249987
 20
-3.867122336256708
 10
5.081704286249987
 20
-4.092037677960471
 10
5.22267101792248
 20
-4.092037677960471
 10
5.362323001600455
 20
-4.092037677960471
 10
5.503496642431602
 20
-4.092037677960471
 10
5.503496642431602
 20
-4.004805020818607
 10
5.503496642431602
 20
-3.918917985284654
 10
5.503496642431602
 20
-3.832541447847372
 10
5.624026771365291
 20
-3.832541447847372
 10
5.743019882633082
 20
-3.832541447847372
 10
5.862053785726149
 20
-3.832541447847372
 10
5.862053785726149
 20
-3.866989686530625
 10
5.862053785726149
 20
-3.900051206604922
 10
5.862053785726149
 20
-3.935194839097638
 10
5.774647076681427
 20
-3.935194839097638
 10
5.68834256072119
 20
-3.935194839097638
 10
5.60209490917575
 20
-3.935194839097638
 10
5.60209490917575
 20
-4.074805420598838
 10
5.60209490917575
 20
-4.212306627314622
 10
5.60209490917575
 20
-4.35116566266831
 10
5.609268370360079
 20
-4.35116566266831
 10
5.615298134557898
 20
-4.35116566266831
 10
5.621327898755718
 20
-4.35116566266831
 10
5.69632778940109
 20
-4.35116688337132
 10
5.771328697298941
 20
-4.351021212813217
 10
5.846325637912034
 20
-4.35148874206253
 10
5.851506606623287
 20
-4.351521294142559
 10
5.86106491457023
 20
-4.355977266996559
 10
5.861153008636797
 20
-4.358623344201343
 10
5.862196709702503
 20
-4.389979949084502
 10
5.861824802188241
 20
-4.421383347582693
 10
5.861824802188241
 20
-4.452997520799031
 10
5.740842860556364
 20
-4.452997520799031
 10
5.622207211817314
 20
-4.452997520799031
 10
5.501300546870488
 20
-4.452997520799031
 10
5.501300546870488
 20
-4.365777884489185
 10
5.501300546870488
 20
-4.279507548212968
 10
5.501300546870488
 20
-4.19344757975389
 10
5.35981252415402
 20
-4.19344757975389
 10
5.220602384099707
 20
-4.19344757975389
 10
5.081276277260321
 20
-4.19344757975389
 10
5.081276277260321
 20
-4.335488987830735
 10
5.081276277260321
 20
-4.476378459175799
 10
5.081276277260321
 20
-4.619151882152159
 10
5.133929978772597
 20
-4.616063910461055
 10
5.185593130662331
 20
-4.613034532514019
 10
5.239180110481369
 20
-4.60989162918789
 10
5.239180110481369
 20
-4.52342028381756
 10
5.239180110481369
 20
-4.438727095818396
 10
5.239180110481369
 20
-4.3532095263927
 10
5.274807141362404
 20
-4.3532095263927
 10
5.308396259446213
 20
-4.3532095263927
 10
5.343986313198835
 20
-4.3532095263927
 10
5.343986313198835
 20
-4.440399865830525
 10
5.343986313198835
 20
-4.526692988562748
 10
5.343986313198835
 20
-4.612850613261887
 10
5.571238283896668
 20
-4.612850613261887
 10
5.796486877519656
 20
-4.612850613261887
 10
6.02231662749629
 20
-4.612850613261887
 10
6.02231662749629
 20
-4.472016480452857
 10
6.02231662749629
 20
-4.332280166542571
 10
6.02231662749629
 20
-4.190645252565004
 10
5.935201157842508
 20
-4.190645252565004
 10
5.848891860795523
 20
-4.190645252565004
 10
5.762047895834169
 20
-4.190645252565004
 10
5.762047895834169
 20
-4.157428703209588
 10
5.762047895834169
 20
-4.126119298842468
 10
5.762047895834169
 20
-4.092722492343935
 10
5.849457656636408
 20
-4.092722492343935
 10
5.935762986398635
 20
-4.092722492343935
 10
6.022124977125157
 20
-4.092722492343935
 10
6.022124977125157
 20
-3.951425713097592
 10
6.022124977125157
 20
-3.812231798220675
 10
6.022124977125157
 20
-3.6722135019172
 10
5.7953658652639
 20
-3.6722135019172
 10
5.569633669802088
 20
-3.6722135019172
 10
5.341524918185554
 20
-3.6722135019172
 10
5.341524918185554
 20
-3.759470573119074
 10
5.341524918185554
 20
-3.845738061088279
 10
5.341524918185554
 20
-3.932352635610717
 10
5.306672830259534
 20
-3.932352635610717
 10
5.274205894271871
 20
-3.932352635610717
 10
5.241659866902296
 20
-3.932352635610717
 10
5.241659866902296
 20
-3.812221218794662
 10
5.241659866902296
 20
-3.69316117231233
 10
5.241659866902296
 20
-3.572568329761957
 10
5.328774370166191
 20
-3.572568329761957
 10
5.414605049911617
 20
-3.572568329761957
 10
5.500774169563997
 20
-3.572568329761957
 10
5.500774169563997
 20
-3.430822128360811
 10
5.500774169563997
 20
-3.290620523156728
 10
5.500774169563997
 20
-3.148708713048462
 10
5.413682300168236
 20
-3.148708713048462
 10
5.327842821188697
 20
-3.148708713048462
 10
5.241400060613614
 20
-3.148708713048462
 10
5.241400060613614
 20
-3.028441391298303
 10
5.241400060613614
 20
-2.909891598670318
 10
5.241400060613614
 20
-2.791390837612855
 10
5.275928916557543
 20
-2.791390837612855
 10
5.309412189518626
 20
-2.791390837612855
 10
5.344449315674524
 20
-2.791390837612855
 10
5.344449315674524
 20
-2.878538248995167
 10
5.344449315674524
 20
-2.964367708037571
 10
5.344449315674524
 20
-3.05030601309756
 10
5.483590231696161
 20
-3.05030601309756
 10
5.621139300142103
 20
-3.05030601309756
 10
5.760833601524117
 20
-3.05030601309756
 10
5.760833601524117
 20
-2.963225130028806
 10
5.760833601524117
 20
-2.876978800911616
 10
5.760833601524117
 20
-2.791220142643245
 10
5.795551513845276
 20
-2.791220142643245
 10
5.828112138788255
 20
-2.791220142643245
 10
5.860688836320731
 20
-2.791220142643245
 10
5.860688836320731
 20
-2.911422970584845
 10
5.860688836320731
 20
-3.030462061665667
 10
5.860688836320731
 20
-3.15132651063373
 10
5.773575909798195
 20
-3.15132651063373
 10
5.687810639388582
 20
-3.15132651063373
 10
5.602038044760952
 20
-3.15132651063373
 10
5.602038044760952
 20
-3.292288206906341
 10
5.602038044760952
 20
-3.43141193136071
 10
5.602038044760952
 20
-3.571324433404116
 10
5.916215462345449
 20
-3.571324433404116
 10
6.229299536942196
 20
-3.571324433404116
 10
6.543042485983644
 20
-3.571324433404116
 10
6.543042485983644
 20
-3.430541773571627
 10
6.543042485983644
 20
-3.290723672560286
 10
6.543042485983644
 20
-3.148570366708365
 10
6.45614409801351
 20
-3.148570366708365
 10
6.369851585632786
 20
-3.148570366708365
 10
6.282971406482412
 20
-3.148570366708365
 10
6.282971406482412
 20
-3.028168564177627
 10
6.282971406482412
 20
-2.910103187190455
 10
6.282971406482412
 20
-2.791372527067842
 10
6.317380684394884
 20
-2.791372527067842
 10
6.350849919271468
 20
-2.791372527067842
 10
6.38620442820757
 20
-2.791372527067842
 10
6.38620442820757
 20
-2.878466227518111
 10
6.38620442820757
 20
-2.96426374483201
 10
6.38620442820757
 20
-3.05001406162987
 10
6.525581957160865
 20
-3.05001406162987
 10
6.663054070455119
 20
-3.05001406162987
 10
6.802509012323728
 20
-3.05001406162987
 10
6.802509012323728
 20
-2.96310143212472
 10
6.802509012323728
 20
-2.877319580499337
 10
6.802509012323728
 20
-2.791368458057844
 10
6.837448787415294
 20
-2.791368458057844
 10
6.870387219937028
 20
-2.791368458057844
 10
6.90315373678613
 20
-2.791368458057844
 10
6.90315373678613
 20
-2.911285031145755
 10
6.90315373678613
 20
-3.029892807166283
 10
6.90315373678613
 20
-3.150321465163061
 10
6.816262062682502
 20
-3.150321465163061
 10
6.730472886839114
 20
-3.150321465163061
 10
6.644277013445958
 20
-3.150321465163061
 10
6.644277013445958
 20
-3.292331948763881
 10
6.644277013445958
 20
-3.432510970962438
 10
6.644277013445958
 20
-3.574278127765107
 10
6.731194932664102
 20
-3.574278127765107
 10
6.817024188256014
 20
-3.574278127765107
 10
6.903290048621228
 20
-3.574278127765107
 10
6.903290048621228
 20
-3.694451455384195
 10
6.903290048621228
 20
-3.813031358686228
 10
6.903290048621228
 20
-3.931997004136481
 10
6.868846082398489
 20
-3.931997004136481
 10
6.835409603052426
 20
-3.931997004136481
 10
6.80045273811883
 20
-3.931997004136481
 10
6.80045273811883
 20
-3.844704532547578
 10
6.80045273811883
 20
-3.758823600528634
 10
6.80045273811883
 20
-3.672445842388356
 10
6.573799318792402
 20
-3.672445842388356
 10
6.348696497452768
 20
-3.672445842388356
 10
6.123035611391249
 20
-3.672445842388356
 10
6.123035611391249
 20
-3.813477729083514
 10
6.123035611391249
 20
-3.953251884786823
 10
6.123035611391249
 20
-4.095108152908539
 10
6.210315367323889
 20
-4.095108152908539
 10
6.296633514467632
 20
-4.095108152908539
 10
6.382425742068524
 20
-4.095108152908539
 10
6.382425742068524
 20
-4.128567215260116
 10
6.382425742068524
 20
-4.159928702955274
 10
6.382425742068524
 20
-4.192989002326587
 10
6.295283925574974
 20
-4.192989002326587
 10
6.209429645571541
 20
-4.192989002326587
 10
6.12294507591869
 20
-4.192989002326587
 10
6.12294507591869
 20
-4.333950088247699
 10
6.12294507591869
 20
-4.473162313669629
 10
6.12294507591869
 20
-4.613160671824099
 10
6.349204818527356
 20
-4.613160671824099
 10
6.574573041044421
 20
-4.613160671824099
 10
6.801879333025795
 20
-4.613160671824099
 10
6.801879333025795
 20
-4.52708035831501
 10
6.801879333025795
 20
-4.441247847515102
 10
6.801879333025795
 20
-4.354920951999853
 10
6.837752335561504
 20
-4.354920951999853
 10
6.871668754637388
 20
-4.354920951999853
 10
6.906956023183195
 20
-4.354920951999853
 10
6.906956023183195
 20
-4.441756473765445
 10
6.906956023183195
 20
-4.527076289305013
 10
6.906956023183195
 20
-4.612914089817928
 10
7.13352968991358
 20
-4.612914089817928
 10
7.358703617203016
 20
-4.612914089817928
 10
7.58396095919751
 20
-4.612914089817928
 10
7.58396095919751
 20
-4.471741822277687
 10
7.58396095919751
 20
-4.331608779892122
 10
7.58396095919751
 20
-4.190063791035615
 10
7.496681711891116
 20
-4.190063791035615
 10
7.410808714441676
 20
-4.190063791035615
 10
7.324639493064031
 20
-4.190063791035615
 10
7.324639493064031
 20
-4.070047527202632
 10
7.324639493064031
 20
-3.951454196167611
 10
7.324639493064031
 20
-3.832399032497278
 10
7.359081831682765
 20
-3.832399032497278
 10
7.392575277168866
 20
-3.832399032497278
 10
7.42795063978124
 20
-3.832399032497278
 10
7.42795063978124
 20
-3.919926285963343
 10
7.42795063978124
 20
-4.006235277834573
 10
7.42795063978124
 20
-4.092300536006633
 10
7.567369367460818
 20
-4.092300536006633
 10
7.704885019162096
 20
-4.092300536006633
 10
7.844291132910661
 20
-4.092300536006633
 10
7.844291132910661
 20
-4.004913663385701
 10
7.844291132910661
 20
-3.918603857712444
 10
7.844291132910661
 20
-3.832450302023314
 10
7.879198966273722
 20
-3.832450302023314
 10
7.91219294078198
 20
-3.832450302023314
 10
7.945074000262669
 20
-3.832450302023314
 10
7.945074000262669
 20
-3.952773369210503
 10
7.945074000262669
 20
-4.071806967127815
 10
7.945074000262669
 20
-4.192607329188339
 10
7.857756504262245
 20
-4.192607329188339
 10
7.771855023742798
 20
-4.192607329188339
 10
7.685587942674588
 20
-4.192607329188339
 10
7.685587942674588
 20
-4.333967991891718
 10
7.685587942674588
 20
-4.473546021312889
 10
7.685587942674588
 20
-4.613947211457634
 10
7.693533091605937
 20
-4.613947211457634
 10
7.700176157336424
 20
-4.613947618358629
 10
7.70681922306691
 20
-4.613947618358629
 10
7.897374420153987
 20
-4.613947618358629
 10
8.087930024142059
 20
-4.614051785014706
 10
8.278484610877639
 20
-4.613692491431455
 10
8.290143952139513
 20
-4.61367051877744
 10
8.35704986981265
 20
-4.613621690657409
 10
8.364254052022513
 20
-4.613044705039025
 10
8.364254052022513
 20
-4.606612414026686
 10
8.36425445892352
 20
-4.600644397055652
 10
8.36425445892352
 20
-4.59467638008463
 10
8.36425445892352
 20
-4.524676387205393
 10
8.36425445892352
 20
-4.454676801227164
 10
8.36425445892352
 20
-4.384676808347927
 10
8.364254865824503
 20
-4.352289116330073
 10
8.36425445892352
 20
-4.352289523231081
 10
8.396681620338388
 20
-4.352289116330073
 10
8.42030222340433
 20
-4.352289116330073
 10
8.443923233371278
 20
-4.352288709429078
 10
8.469163302418286
 20
-4.352288709429078
 10
8.469163302418286
 20
-4.44116280520604
 10
8.469163302418286
 20
-4.527047806234994
 10
8.469163302418286
 20
-4.612747260407824
 10
8.696164825550467
 20
-4.612747260407824
 10
8.921428067609465
 20
-4.612747260407824
 10
9.14667706813346
 20
-4.612747260407824
 10
9.14667706813346
 20
-4.4717735605557
 10
9.14667706813346
 20
-4.332001846258385
 10
9.14667706813346
 20
-4.190643218060005
 10
9.059957106251936
 20
-4.190643218060005
 10
8.974127443759016
 20
-4.190643218060005
 10
8.887405854273513
 20
-4.190643218060005
 10
8.887405854273513
 20
-4.157748527395799
 10
8.887405854273513
 20
-4.12644481964268
 10
8.887405854273513
 20
-4.093338947359345
 10
8.974104250402004
 20
-4.093338947359345
 10
9.059903802220914
 20
-4.093338947359345
 10
9.146441472454297
 20
-4.093338947359345
 10
9.146441472454297
 20
-3.951937187654936
 10
9.146441472454297
 20
-3.812340033886749
 10
9.146441472454297
 20
-3.67217525322317
 10
8.920042976604538
 20
-3.67217525322317
 10
8.694793162278529
 20
-3.67217525322317
 10
8.467396945176107
 20
-3.67217525322317
 10
8.467396945176107
 20
-3.759403027553023
 10
8.467396945176107
 20
-3.845677025938256
 10
8.467396945176107
 20
-3.93249342335682
 10
8.432734269665717
 20
-3.93249342335682
 10
8.40022369354579
 20
-3.93249342335682
 10
8.366547752961043
 20
-3.93249342335682
 10
8.366547752961043
 20
-3.725222529727956
 10
8.366547752961043
 20
-3.518874487567725
 10
8.366547752961043
 20
-3.311731157402455
 10
8.400504862136964
 20
-3.311731157402455
 10
8.434039201173594
 20
-3.311731157402455
 10
8.469227592776354
 20
-3.311731157402455
 10
8.469227592776354
 20
-3.398720080845148
 10
8.469227592776354
 20
-3.484604878423599
 10
8.469227592776354
 20
-3.571038382000931
 10
8.696048451864398
 20
-3.571038382000931
 10
8.921206713465304
 20
-3.571038382000931
 10
9.14654116319937
 20
-3.571038382000931
 10
9.14654116319937
 20
-3.430053899272302
 10
9.14654116319937
 20
-3.29032287507501
 10
9.14654116319937
 20
-3.148646253744914
 10
9.059716627760785
 20
-3.148646253744914
 10
8.973914227634875
 20
-3.148646253744914
 10
8.887429047630524
 20
-3.148646253744914
 10
8.887429047630524
 20
-3.115875871336306
 10
8.887429047630524
 20
-3.085059020629993
 10
8.887429047630524
 20
-3.052362083851954
 10
8.97418196849306
 20
-3.052362083851954
 10
9.06001529309497
 20
-3.052362083851954
 10
9.146524887159355
 20
-3.052362083851954
 10
9.146524887159355
 20
-2.910834388287955
 10
9.146524887159355
 20
-2.771192271959232
 10
9.146524887159355
 20
-2.631606918320042
 10
8.919824063866372
 20
-2.631606918320042
 10
8.694188914293136
 20
-2.631606918320042
 10
8.466697482356645
 20
-2.631606918320042
 10
8.466697482356645
 20
-2.718880469012434
 10
8.466697482356645
 20
-2.804646654949301
 10
8.466697482356645
 20
-2.89035363679064
 10
8.431688940996006
 20
-2.89035363679064
 10
8.39855010973166
 20
-2.89035363679064
 10
8.363287255245849
 20
-2.89035363679064
 10
8.363287255245849
 20
-2.803285367652885
 10
8.363287255245849
 20
-2.717031103966191
 10
8.363287255245849
 20
-2.631464299519444
 10
8.135913824599431
 20
-2.631464299519444
 10
7.910681100115463
 20
-2.631464299519444
 10
7.685473603493493
 20
-2.631464299519444
 10
7.685473603493493
 20
-2.772527110690627
 10
7.685473603493493
 20
-2.912208289515383
 10
7.685473603493493
 20
-3.054050723003077
 10
7.772904014521499
 20
-3.054050723003077
 10
7.859159905812198
 20
-3.054050723003077
 10
7.945415390201902
 20
-3.054050723003077
 10
7.945415390201902
 20
-3.174297699703225
 10
7.945415390201902
 20
-3.292373656116398
 10
7.945415390201902
 20
-3.411370836394174
 10
7.911263375446866
 20
-3.411370836394174
 10
7.878202262273551
 20
-3.411370836394174
 10
7.842942256094753
 20
-3.411370836394174
 10
7.842942256094753
 20
-3.32421935600189
 10
7.842942256094753
 20
-3.237940067903663
 10
7.842942256094753
 20
-3.151531995638859
 10
7.703196583461451
 20
-3.151531995638859
 10
7.565651634888152
 20
-3.151531995638859
 10
7.426406450485198
 20
-3.151531995638859
 10
7.426406450485198
 20
-3.238236698732862
 10
7.426406450485198
 20
-3.324069006082279
 10
7.426406450485198
 20
-3.410850816915841
 10
7.391371664010054
 20
-3.410850816915841
 10
7.35804830314209
 20
-3.410850816915841
 10
7.325031745628293
 20
-3.410850816915841
 10
7.325031745628293
 20
-3.290319212966008
 10
7.325031745628293
 20
-3.171244314597162
 10
7.325031745628293
 20
-3.050568667693256
 10
7.412178953560101
 20
-3.050568667693256
 10
7.498007802251019
 20
-3.050568667693256
 10
7.583753032786363
 20
-3.050568667693256
 10
7.583753032786363
 20
-2.908865190897131
 10
7.583753032786363
 20
-2.768780773181106
 10
7.583753032786363
 20
-2.627053289225968
 10
7.49632811492188
 20
-2.627053289225968
 10
7.410517169874993
 20
-2.627053289225968
 10
7.324910082229216
 20
-2.627053289225968
 10
7.324910082229216
 20
-2.594060535420706
 10
7.324910082229216
 20
-2.562736482617563
 10
7.324910082229216
 20
-2.530124995049568
 10
7.411990761847467
 20
-2.530124995049568
 10
7.497869862811917
 20
-2.530124995049568
 10
7.584102357295099
 20
-2.530124995049568
 10
7.584102357295099
 20
-2.388610320317588
 10
7.584102357295099
 20
-2.248421329044491
 10
7.584102357295099
 20
-2.106878781593978
 10
7.496941518179786
 20
-2.106878781593978
 10
7.411044920472325
 20
-2.106878781593978
 10
7.324529833244456
 20
-2.106878781593978
 10
7.324529833244456
 20
-1.986921721856536
 10
7.324529833244456
 20
-1.868324525262008
 10
7.324529833244456
 20
-1.748968458301988
 10
7.358856001627613
 20
-1.748968458301988
 10
7.392347005707721
 20
-1.748968458301988
 10
7.427727454582585
 20
-1.748968458301988
 10
7.427727454582585
 20
-1.836394800319971
 10
7.427727454582585
 20
-1.922704402542712
 10
7.427727454582585
 20
-2.009066291543983
 10
7.567142316702656
 20
-2.009066291543983
 10
7.704657358052448
 20
-2.009066291543983
 10
7.844068151162522
 20
-2.009066291543983
 10
7.844068151162522
 20
-1.921782975227592
 10
7.844068151162522
 20
-1.83547398335635
 10
7.844068151162522
 20
-1.74901331913726
 10
7.878976187976074
 20
-1.74901331913726
 10
7.911973621142831
 20
-1.74901331913726
 10
7.945208277592769
 20
-1.74901331913726
 10
7.945208277592769
 20
-1.869260397562647
 10
7.945208277592769
 20
-1.988323902703491
 10
7.945208277592769
 20
-2.109718950575901
 10
7.857665561888691
 20
-2.109718950575901
 10
7.771393191107475
 20
-2.109718950575901
 10
7.68548581052351
 20
-2.109718950575901
 10
7.68548581052351
 20
-2.251231183901887
 10
7.68548581052351
 20
-2.390401498520797
 10
7.68548581052351
 20
-2.529717280247294
 10
7.912018176802361
 20
-2.529717280247294
 10
8.137341233308398
 20
-2.529717280247294
 10
8.364363508391584
 20
-2.529717280247294
 10
8.364363508391584
 20
-2.443006473638282
 10
8.364363508391584
 20
-2.357173149036372
 10
8.364363508391584
 20
-2.270158387380156
 10
8.39955149309334
 20
-2.270158387380156
 10
8.433042700623925
 20
-2.270158387380156
 10
8.468911023798126
 20
-2.270158387380156
 10
8.468911023798126
 20
-2.357264701761424
 10
8.468911023798126
 20
-2.44350004455162
 10
8.468911023798126
 20
-2.529254226908986
 10
8.696490753251686
 20
-2.529254226908986
 10
8.921695401566643
 20
-2.529254226908986
 10
9.146526514763359
 20
-2.529254226908986
 10
9.146526514763359
 20
-2.388138315157259
 10
9.146526514763359
 20
-2.248384097602967
 10
9.146526514763359
 20
-2.107043983400091
 10
9.059651930501735
 20
-2.107043983400091
 10
8.97382308181083
 20
-2.107043983400091
 10
8.887689464270705
 20
-2.107043983400091
 10
8.887689464270705
 20
-2.07418306551891
 10
8.887689464270705
 20
-2.04292716863333
 10
8.887689464270705
 20
-2.010103075292679
 10
8.97471256739742
 20
-2.010103075292679
 10
9.06054222989034
 20
-2.010103075292679
 10
9.146476872841326
 20
-2.010103075292679
 10
9.146476872841326
 20
-1.868827658348841
 10
9.146476872841326
 20
-1.729144241568608
 10
9.146476872841326
 20
-1.589049244426582
 10
8.91962508927726
 20
-1.589049244426582
 10
8.693885366146938
 20
-1.589049244426582
 10
8.466249891256338
 20
-1.589049244426582
 10
8.466249891256338
 20
-1.676535095715861
 10
8.466249891256338
 20
-1.762845003114345
 10
8.466249891256338
 20
-1.848794904852841
 10
8.431866756733143
 20
-1.848794904852841
 10
8.399398091416211
 20
-1.848794904852841
 10
8.366625064151119
 20
-1.848794904852841
 10
8.366625064151119
 20
-1.641194217963263
 10
8.366625064151119
 20
-1.434888595232299
 10
8.366625064151119
 20
-1.228227747928119
 10
8.40096262576228
 20
-1.228227747928119
 10
8.434044083985604
 20
-1.228227747928119
 10
8.46938628416645
 20
-1.228227747928119
 10
8.46938628416645
 20
-1.315414933883188
 10
8.46938628416645
 20
-1.401682218401902
 10
8.46938628416645
 20
-1.487965880685869
 10
8.696484649736679
 20
-1.487965880685869
 10
8.921308845616396
 20
-1.487965880685869
 10
9.146795069423534
 20
-1.487965880685869
 10
9.146795069423534
 20
-1.34716440168212
 10
9.146795069423534
 20
-1.207352709361531
 10
9.146795069423534
 20
-1.06568076739293
 10
9.060177646594083
 20
-1.06568076739293
 10
8.974326011447147
 20
-1.06568076739293
 10
8.887491710384564
 20
-1.06568076739293
 10
8.887491710384564
 20
-1.032482935483535
 10
8.887491710384564
 20
-1.001141589387885
 10
8.887491710384564
 20
-0.9674051222793751
 10
8.974447674846234
 20
-0.9674051222793751
 10
9.060655348368401
 20
-0.9674051222793751
 10
9.146240056459165
 20
-0.9674051222793751
 10
9.146240056459165
 20
-0.8258868363010126
 10
9.146240056459165
 20
-0.6867632644345146
 10
9.146240056459165
 20
-0.5479379001385875
 10
8.919625903079249
 20
-0.5479379001385875
 10
8.694360626515238
 20
-0.5479379001385875
 10
8.467273654173015
 20
-0.5479379001385875
 10
8.467273654173015
 20
-0.6348890326508783
 10
8.467273654173015
 20
-0.7206752584620137
 10
8.467273654173015
 20
-0.8067198155456986
 10
8.431917212457165
 20
-0.8067198155456986
 10
8.39839914946055
 20
-0.8067198155456986
 10
8.363308820998883
 20
-0.8067198155456986
 10
8.363308820998883
 20
-0.7197666485284091
 10
8.363308820998883
 20
-0.6339369860354888
 10
8.363308820998883
 20
-0.5477954847884929
 10
8.136477789385822
 20
-0.5477954847884929
 10
7.91123733378284
 20
-0.5477954847884929
 10
7.685757213490698
 20
-0.5477954847884929
 10
7.685757213490698
 20
-0.6889378959678475
 10
7.685757213490698
 20
-0.8290325370715107
 10
7.685757213490698
 20
-0.9706649079178203
 10
7.773103192561128
 20
-0.9706649079178203
 10
7.85898107282258
 20
-0.9706649079178203
 10
7.945074407163676
 20
-0.9706649079178203
 10
7.945074407163676
 20
-1.090645771363787
 10
7.945074407163676
 20
-1.209074409218942
 10
7.945074407163676
 20
-1.327728470228256
 10
7.910628202985436
 20
-1.327728470228256
 10
7.877628735313666
 20
-1.327728470228256
 10
7.842978063382778
 20
-1.327728470228256
 10
7.842978063382778
 20
-1.240670780516514
 10
7.842978063382778
 20
-1.154830538597594
 10
7.842978063382778
 20
-1.068160015187611
 10
7.703267180785019
 20
-1.068160015187611
 10
7.565228050946871
 20
-1.068160015187611
 10
7.424825436648638
 20
-1.068160015187611
 10
7.424825436648638
 20
-1.155090446611515
 10
7.424825436648638
 20
-1.241369531259238
 10
7.424825436648638
 20
-1.327801102056797
 10
7.389998983485636
 20
-1.327801102056797
 10
7.357547814911741
 20
-1.327801102056797
 10
7.324593920151996
 20
-1.327801102056797
 10
7.324593920151996
 20
-1.20800029230347
 10
7.324593920151996
 20
-1.089364847014912
 10
7.324593920151996
 20
-0.9684481112683316
 10
7.411713458815787
 20
-0.9684481112683316
 10
7.497971181160993
 20
-0.9684481112683316
 10
7.584439678224334
 20
-0.9684481112683316
 10
7.584439678224334
 20
-0.8269058181309421
 10
7.584439678224334
 20
-0.687648681011107
 10
7.584439678224334
 20
-0.5477480808219626
 10
7.357689619910338
 20
-0.5477480808219626
 10
7.131880520159471
 20
-0.5477480808219626
 10
6.904260710957386
 20
-0.5477480808219626
 10
6.904260710957386
 20
-0.6345166165103819
 10
6.904260710957386
 20
-0.7203142355495199
 10
6.904260710957386
 20
-0.8065143305405575
 10
6.869007011744088
 20
-0.8065143305405575
 10
6.835577246264531
 20
-0.8065143305405575
 10
6.800317036635255
 20
-0.8065143305405575
 10
6.800317036635255
 20
-0.7194117291309112
 10
6.800317036635255
 20
-0.6336357775700333
 10
6.800317036635255
 20
-0.5475147739609333
 10
6.573642661907292
 20
-0.5475147739609333
 10
6.348817347049842
 20
-0.5475147739609333
 10
6.123299486689929
 20
-0.5475147739609333
 10
6.123299486689929
 20
-0.6885169060204437
 10
6.123299486689929
 20
-0.8287544711004481
 10
6.123299486689929
 20
-0.9704622712196926
 10
6.21042197538596
 20
-0.9704622712196926
 10
6.296308604018918
 20
-0.9704622712196926
 10
6.382446595744782
 20
-0.9704622712196926
 10
6.382446595744782
 20
-1.003191963528277
 10
6.382446595744782
 20
-1.034431889549599
 10
6.382446595744782
 20
-1.06724489483799
 10
6.295338755484762
 20
-1.06724489483799
 10
6.209498411840589
 20
-1.06724489483799
 10
6.123424201846508
 20
-1.06724489483799
 10
6.123424201846508
 20
-1.208469042255779
 10
6.123424201846508
 20
-1.348090304908245
 10
6.123424201846508
 20
-1.487717772800958
 10
6.350042627686927
 20
-1.487717772800958
 10
6.575285321245397
 20
-1.487717772800958
 10
6.802235371401038
 20
-1.487717772800958
 10
6.802235371401038
 20
-1.400654081299459
 10
6.802235371401038
 20
-1.314809566920038
 10
6.802235371401038
 20
-1.228287155474151
 10
6.836947892283963
 20
-1.228287155474151
 10
6.869943697846742
 20
-1.228287155474151
 10
6.902981210762012
 20
-1.228287155474151
 10
6.902981210762012
 20
-1.3483303764984
 10
6.902981210762012
 20
-1.467362448536973
 10
6.902981210762012
 20
-1.587974822335367
 10
6.815865334207236
 20
-1.587974822335367
 10
6.730035468263824
 20
-1.587974822335367
 10
6.644476394936103
 20
-1.587974822335367
 10
6.644476394936103
 20
-1.729773615690785
 10
6.644476394936103
 20
-1.869979798531138
 10
6.644476394936103
 20
-2.011951626536933
 10
6.731580471361869
 20
-2.011951626536933
 10
6.817395688869257
 20
-2.011951626536933
 10
6.903117319146607
 20
-2.011951626536933
 10
6.903117319146607
 20
-2.132317214878652
 10
6.903117319146607
 20
-2.250903425146172
 10
6.903117319146607
 20
-2.369764903940361
 10
6.868873751666493
 20
-2.369764903940361
 10
6.835797176255179
 20
-2.369764903940361
 10
6.800521911288885
 20
-2.369764903940361
 10
6.800521911288885
 20
-2.282704162471128
 10
6.800521911288885
 20
-2.196487537126953
 10
6.800521911288885
 20
-2.110394813137355
 10
6.660389275804327
 20
-2.110394813137355
 10
6.522470385211768
 20
-2.110394813137355
 10
6.383135784313999
 20
-2.110394813137355
 10
6.383135784313999
 20
-2.197686064023262
 10
6.383135784313999
 20
-2.2835568235172
 10
6.383135784313999
 20
-2.369245087912519
 10
6.348796696824087
 20
-2.369245087912519
 10
6.315902819961884
 20
-2.369245087912519
 10
6.283210765995831
 20
-2.369245087912519
 10
6.283210765995831
 20
-2.249237572451041
 10
6.283210765995831
 20
-2.13062877917802
 10
6.283210765995831
 20
-2.009980191190607
 10
6.370628257917057
 20
-2.009980191190607
 10
6.456899916621524
 20
-2.009980191190607
 10
6.542380458056199
 20
-2.009980191190607
 10
6.542380458056199
 20
-1.868242738160966
 10
6.542380458056199
 20
-1.728557083425206
 10
6.542380458056199
 20
-1.589228891218214
 10
6.228075171832377
 20
-1.589228891218214
 10
5.915092517309934
 20
-1.589228891218214
 10
5.602078836586239
 20
-1.589228891218214
 10
5.602078836586239
 20
-1.730325983798656
 10
5.602078836586239
 20
-1.870048157899179
 10
5.602078836586239
 20
-2.011869839435879
 10
5.689496531957969
 20
-2.011869839435879
 10
5.775802675522199
 20
-2.011869839435879
 10
5.861911573826559
 20
-2.011869839435879
 10
5.861911573826559
 20
-2.132556879567813
 10
5.861911573826559
 20
-2.251134138013324
 10
5.861911573826559
 20
-2.369444265952148
 10
5.82702042340452
 20
-2.369444265952148
 10
5.793403788640577
 20
-2.369444265952148
 10
5.758122114983507
 20
-2.369444265952148
 10
5.758122114983507
 20
-2.282390238349409
 10
5.758122114983507
 20
-2.196518665053468
 10
5.758122114983507
 20
-2.109977943062581
 10
5.618958921132124
 20
-2.109977943062581
 10
5.481495403621491
 20
-2.109977943062581
 10
5.34166819820027
 20
-2.109977943062581
 10
5.34166819820027
 20
-2.197155261668399
 10
5.34166819820027
 20
-2.28335561097256
 10
5.34166819820027
 20
-2.369720755181838
 10
5.306787016852732
 20
-2.369720755181838
 10
5.274278780413561
 20
-2.369720755181838
 10
5.24135387735008
 20
-2.369720755181838
 10
5.24135387735008
 20
-2.249683739397836
 10
5.24135387735008
 20
-2.130567540577469
 10
5.24135387735008
 20
-2.009952521922577
 10
5.328188127550056
 20
-2.009952521922577
 10
5.414052020589616
 20
-2.009952521922577
 10
5.500797515508894
 20
-2.009952521922577
 10
5.500797515508894
 20
-1.868292786984006
 10
5.500797515508894
 20
-1.728136754691933
 10
5.500797515508894
 20
-1.586389739488797
 10
5.41368825109536
 20
-1.586389739488797
 10
5.327810574284436
 20
-1.586389739488797
 10
5.24172288569471
 20
-1.586389739488797
 10
5.24172288569471
 20
-1.465799033168663
 10
5.24172288569471
 20
-1.346806328801879
 10
5.24172288569471
 20
-1.228252161988128
 10
5.276205202336718
 20
-1.228252161988128
 10
5.309325417880321
 20
-1.228252161988128
 10
5.343688868567634
 20
-1.228252161988128
 10
5.343688868567634
 20
-1.315136613599002
 10
5.343688868567634
 20
-1.401060270222981
 10
5.343688868567634
 20
-1.487727436699717
 10
5.570141075349435
 20
-1.487727436699717
 10
5.795322632032619
 20
-1.487727436699717
 10
6.02095147464038
 20
-1.487727436699717
 10
6.02095147464038
 20
-1.346810702987631
 10
6.02095147464038
 20
-1.20712413272463
 10
6.02095147464038
 20
-1.065283428566166
 10
5.934132635815786
 20
-1.065283428566166
 10
5.848379267260421
 20
-1.065283428566166
 10
5.762034366375915
 20
-1.065283428566166
 10
5.762034366375915
 20
-1.032325769972178
 10
5.762034366375915
 20
-1.00153404540265
 10
5.762034366375915
 20
-0.9685197258443798
 10
5.849468948139158
 20
-0.9685197258443798
 10
5.935817409407428
 20
-0.9685197258443798
 10
6.022190691636713
 20
-0.9685197258443798
 10
6.022190691636713
 20
-0.8270501662607961
 10
6.022190691636713
 20
-0.6878165276737161
 10
6.022190691636713
 20
-0.5476698541046592
 10
5.795431783225947
 20
-0.5476698541046592
 10
5.569632449099092
 20
-0.5476698541046592
 10
5.341933090751454
 20
-0.5476698541046592
 10
5.341933090751454
 20
-0.6343758796269109
 10
5.341933090751454
 20
-0.72020350761482
 10
5.341933090751454
 20
-0.8064500401825145
 10
5.306582650825349
 20
-0.8064500401825145
 10
5.273149172374158
 20
-0.8064500401825145
 10
5.237776302030422
 20
-0.8064500401825145
 10
5.237776302030422
 20
-0.7192975934003445
 10
5.237776302030422
 20
-0.6335375109784738
 10
5.237776302030422
 20
-0.547839531821776
 10
5.184424205813785
 20
-0.547839531821776
 10
5.13304491823438
 20
-0.547839531821776
 10
5.081347688385866
 20
-0.547839531821776
 10
5.081347688385866
 20
-0.6880769443138963
 10
5.081347688385866
 20
-0.827225642317166
 10
5.081347688385866
 20
-0.9668368850324971
 10
5.221989102708638
 20
-0.9668368850324971
 10
5.361675113482773
 20
-0.9668368850324971
 10
5.503167001758735
 20
-0.9668368850324971
 10
5.503167001758735
 20
-0.8800660096633237
 10
5.503167001758735
 20
-0.7942696113271823
 10
5.503167001758735
 20
-0.7080697706492679
 10
5.62396471896275
 20
-0.7080697706492679
 10
5.742949488760031
 20
-0.7080697706492679
 10
5.862020623294635
 20
-0.7080697706492679
 10
5.862020623294635
 20
-0.7424434447242068
 10
5.862020623294635
 20
-0.7754664617913628
 10
5.862020623294635
 20
-0.8106343048935969
 10
5.774632326520165
 20
-0.8106343048935969
 10
5.688373586922453
 20
-0.8106343048935969
 10
5.602122781894258
 20
-0.8106343048935969
 10
5.602122781894258
 20
-0.9502667573235613
 10
5.602122781894258
 20
-1.087726968763566
 10
5.602122781894258
 20
-1.227114670241867
 10
5.689079458432691
 20
-1.227114670241867
 10
5.774878705075833
 20
-1.227114670241867
 10
5.860483249590339
 20
-1.227114670241867
 10
5.860483249590339
 20
-1.262001039577159
 10
5.860483249590339
 20
-1.294932351331378
 10
5.860483249590339
 20
-1.327459101766067
 10
5.740375026131296
 20
-1.327459101766067
 10
5.621842018169572
 20
-1.327459101766067
 10
5.501590819871555
 20
-1.327459101766067
 10
5.501590819871555
 20
-1.240085555152872
 10
5.501590819871555
 20
-1.154201774826914
 10
5.501590819871555
 20
-1.068663555175451
 10
5.36020757416265
 20
-1.068663555175451
 10
5.220562456939054
 20
-1.068663555175451
 10
5.081254965820436
 20
-1.068663555175451
 10
5.081254965820436
 20
-1.295402016810941
 10
5.081254965820436
 20
-1.52078224290752
 10
5.081254965820436
 20
-1.748470411477633
 10
5.168280357765272
 20
-1.748470411477633
 10
5.25447414579081
 20
-1.748470411477633
 10
5.34078390060141
 20
-1.748470411477633
 10
5.34078390060141
 20
-1.783783721687478
 10
5.34078390060141
 20
-1.816774440987741
 10
5.34078390060141
 20
-1.851418195601607
 10
5.253693658809665
 20
-1.851418195601607
 10
5.167854790181612
 20
-1.851418195601607
 10
5.081736278841137
 20
-1.851418195601607
 10
5.081736278841137
 20
-2.0787466636875
 10
5.081736278841137
 20
-2.304399716904767
 10
5.081736278841137
 20
-2.529293289405005
 10
5.222768012948412
 20
-2.529293289405005
 10
5.362454786661917
 20
-2.529293289405005
 10
5.503768299711902
 20
-2.529293289405005
 10
5.503768299711902
 20
-2.4421279743787
 10
5.503768299711902
 20
-2.356271049518758
 10
5.503768299711902
 20
-2.270279033526738
 10
5.536686641496734
 20
-2.270279033526738
 10
5.56795245659421
 20
-2.270279033526738
 10
5.600676655739297
 20
-2.270279033526738
 10
5.600676655739297
 20
-2.357444145102552
 10
5.600676655739297
 20
-2.443296594051478
 10
5.600676655739297
 20
-2.529780960253838
 10
5.741865402770056
 20
-2.529780960253838
 10
5.881569571501321
 20
-2.529780960253838
 10
6.02199843091407
 20
-2.529780960253838
 10
6.02199843091407
 20
-2.303236997296481
 10
6.02199843091407
 20
-2.077527384840184
 10
6.02199843091407
 20
-1.849920393019602
 10
5.934554083526816
 20
-1.849920393019602
 10
5.848244277853584
 20
-1.849920393019602
 10
5.762269046527838
 20
-1.849920393019602
 10
5.762269046527838
 20
-1.815014187260545
 10
5.762269046527838
 20
-1.782020619653281
 10
5.762269046527838
 20
-1.749044752239532
 10
5.969971051766467
 20
-1.749044752239532
 10
6.176321738783208
 20
-1.749044752239532
 10
6.382843120769557
 20
-1.749044752239532
 10
6.382843120769557
 20
-1.783367563689441
 10
6.382843120769557
 20
-1.816472723896027
 10
6.382843120769557
 20
-1.851054426107364
 10
6.296102000036019
 20
-1.851054426107364
 10
6.210227171532083
 20
-1.851054426107364
 10
6.123272224322906
 20
-1.851054426107364
 10
6.123272224322906
 20
-2.078246582358159
 10
6.123272224322906
 20
-2.303949684398453
 10
6.123272224322906
 20
-2.529674962543266
 10
6.26425365529403
 20
-2.529674962543266
 10
6.404013366011845
 20
-2.529674962543266
 10
6.54617318227977
 20
-2.529674962543266
 10
6.54617318227977
 20
-2.442506799209948
 10
6.54617318227977
 20
-2.356249280315246
 10
6.54617318227977
 20
-2.270491639299381
 10
6.579362876169157
 20
-2.270491639299381
 10
6.610128050448414
 20
-2.270491639299381
 10
6.642576981066806
 20
-2.270491639299381
 10
6.642576981066806
 20
-2.357885225786857
 10
6.642576981066806
 20
-2.443757612884787
 10
6.642576981066806
 20
-2.529383824877565
 10
6.784027975792254
 20
-2.529383824877565
 10
6.923730720370018
 20
-2.529383824877565
 10
7.063310173944703
 20
-2.529383824877565
 10
7.063310173944703
 20
-2.302825416934714
 10
7.063310173944703
 20
-2.077498291418654
 10
7.063310173944703
 20
-1.850583641650044
 10
6.976554404775166
 20
-1.850583641650044
 10
6.890724742282246
 20
-1.850583641650044
 10
6.804108540155804
 20
-1.850583641650044
 10
6.804108540155804
 20
-1.815464219766858
 10
6.804108540155804
 20
-1.781937510123978
 10
6.804108540155804
 20
-1.746610161829658
 10
6.890846202230831
 20
-1.746610161829658
 10
6.976647585104224
 20
-1.746610161829658
 10
7.063339877717718
 20
-1.746610161829658
 10
7.063339877717718
 20
-1.519563879587445
 10
7.063339877717718
 20
-1.294320473952212
 10
7.063339877717718
 20
-1.068473125507315
 10
6.922498624141199
 20
-1.068473125507315
 10
6.782366192107133
 20
-1.068473125507315
 10
6.640588048977469
 20
-1.068473125507315
 10
6.640588048977469
 20
-1.155475476683023
 10
6.640588048977469
 20
-1.241325585951207
 10
6.640588048977469
 20
-1.327577509957147
 10
6.52047331510241
 20
-1.327577509957147
 10
6.402012633793484
 20
-1.327577509957147
 10
6.283365998727428
 20
-1.327577509957147
 10
6.283365998727428
 20
-1.293198342718698
 10
6.283365998727428
 20
-1.260220135624208
 10
6.283365998727428
 20
-1.225508835444278
 10
6.370548098420019
 20
-1.225508835444278
 10
6.456428928713699
 20
-1.225508835444278
 10
6.542993250962619
 20
-1.225508835444278
 10
6.542993250962619
 20
-1.0861547032985
 10
6.542993250962619
 20
-0.9485587903749066
 10
6.542993250962619
 20
-0.8086400830912528
 10
6.456237888694077
 20
-0.8086400830912528
 10
6.369941205578091
 20
-0.8086400830912528
 10
6.282924714592632
 20
-0.8086400830912528
 10
6.282924714592632
 20
-0.7738026944638629
 10
6.282924714592632
 20
-0.7412889139985483
 10
6.282924714592632
 20
-0.707992510321838
 10
6.402843322185554
 20
-0.707992510321838
 10
6.521877327003873
 20
-0.707992510321838
 10
6.642782059170953
 20
-0.707992510321838
 10
6.642782059170953
 20
-0.7950559983728327
 10
6.642782059170953
 20
-0.8808687236116081
 10
6.642782059170953
 20
-0.9664872553480057
 10
6.784861715941815
 20
-0.9664872553480057
 10
6.925063321145911
 20
-0.9664872553480057
 10
7.067099642960253
 20
-0.9664872553480057
 10
7.067099642960253
 20
-0.8793806866536013
 10
7.067099642960253
 20
-0.7936041247412251
 10
7.067099642960253
 20
-0.7081932142402189
 10
7.187430848167448
 20
-0.7081932142402189
 10
7.305912077976889
 20
-0.7081932142402189
 10
7.423918047418018
 20
-0.7081932142402189
 10
7.423918047418018
 20
-0.742675225706484
 10
7.423918047418018
 20
-0.775675456317635
 10
7.423918047418018
 20
-0.8104004894063084
 10
7.336669521137158
 20
-0.8104004894063084
 10
7.250871393471761
 20
-0.8104004894063084
 10
7.164889550004735
 20
-0.8104004894063084
 10
7.164889550004735
 20
-1.037311121027541
 10
7.164889550004735
 20
-1.262460125630709
 10
7.164889550004735
 20
-1.488068826638924
 10
7.305855111836851
 20
-1.488068826638924
 10
7.445656733357686
 20
-1.488068826638924
 10
7.587345154816792
 20
-1.488068826638924
 10
7.587345154816792
 20
-1.400901782283376
 10
7.587345154816792
 20
-1.314602454310893
 10
7.587345154816792
 20
-1.228587855313359
 10
7.620543597077686
 20
-1.228587855313359
 10
7.651836318503809
 20
-1.228587855313359
 10
7.684432343833805
 20
-1.228587855313359
 10
7.684432343833805
 20
-1.315748592703421
 10
7.684432343833805
 20
-1.401608569320855
 10
7.684432343833805
 20
-1.487840148276784
 10
7.825523027723496
 20
-1.487840148276784
 10
7.965265241698287
 20
-1.487840148276784
 10
8.105558196176958
 20
-1.487840148276784
 10
8.105558196176958
 20
-1.261465761311292
 10
8.105558196176958
 20
-1.036207198613801
 10
8.105558196176958
 20
-0.8089649935399671
 10
8.093679128374939
 20
-0.8089649935399671
 10
8.082698904882527
 20
-0.8089652987157225
 10
8.071718477939624
 20
-0.8089649935399671
 10
8.001163065195012
 20
-0.8089631116228398
 10
7.930607245549405
 20
-0.809033556358511
 10
7.860052443156304
 20
-0.8088371757632506
 10
7.853619338341963
 20
-0.808819272119245
 10
7.844340164481196
 20
-0.8119823679075023
 10
7.844329178154188
 20
-0.7999439475012574
 10
7.844301101985176
 20
-0.7695322684659863
 10
7.84431961598068
 20
-0.7391205894307151
 10
7.84431961598068
 20
-0.7079138767035272
 10
7.965045311707639
 20
-0.7079138767035272
 10
8.084052867960938
 20
-0.7079138767035272
 10
8.204830647015935
 20
-0.7079138767035272
 10
8.204830647015935
 20
-0.7949004604654798
 10
8.204830647015935
 20
-0.8807181193788867
 10
8.204830647015935
 20
-0.9666389276958524
 10
8.346818751061745
 20
-0.9666389276958524
 10
8.487031546043353
 20
-0.9666389276958524
 10
8.629238969728299
 20
-0.9666389276958524
 10
8.629238969728299
 20
-0.8796922202319339
 10
8.629238969728299
 20
-0.7939191169780694
 10
8.629238969728299
 20
-0.7080672783806423
 10
8.74973130773161
 20
-0.7080672783806423
 10
8.868218437605567
 20
-0.7080672783806423
 10
8.986450440552339
 20
-0.7080672783806423
 10
8.986450440552339
 20
-0.7424697915639752
 10
8.986450440552339
 20
-0.7755243943212741
 10
8.986450440552339
 20
-0.8103792288290429
 10
8.899522959160675
 20
-0.8103792288290429
 10
8.8137352074708
 20
-0.8103792288290429
 10
8.728027208376968
 20
-0.8103792288290429
 10
8.728027208376968
 20
-0.9500742931504267
 10
8.728027208376968
 20
-1.08793275894445
 10
8.728027208376968
 20
-1.227641200136216
 10
8.81530014871785
 20
-1.227641200136216
 10
8.901066334654717
 20
-1.227641200136216
 10
8.986590414496428
 20
-1.227641200136216
 10
8.986590414496428
 20
-1.262081707700455
 10
8.986590414496428
 20
-1.29465250516844
 10
8.986590414496428
 20
-1.328003738754938
 10
8.866954196197714
 20
-1.328003738754938
 10
8.748339706310666
 20
-1.328003738754938
 10
8.62745104673311
 20
-1.328003738754938
 10
8.62745104673311
 20
-1.240834761619617
 10
8.62745104673311
 20
-1.154591484259931
 10
8.62745104673311
 20
-1.067941407625211
 10
8.485898733658587
 20
-1.067941407625211
 10
8.346621404076611
 20
-1.067941407625211
 10
8.206769123381239
 20
-1.067941407625211
 10
8.206769123381239
 20
-1.382074981626917
 10
8.206769123381239
 20
-1.695571755563214
 10
8.206769123381239
 20
-2.008819099186313
 10
8.347822575829417
 20
-2.008819099186313
 10
8.487488902767659
 20
-2.008819099186313
 10
8.628908566116074
 20
-2.008819099186313
 10
8.628908566116074
 20
-1.921701188126538
 10
8.628908566116074
 20
-1.835807235275575
 10
8.628908566116074
 20
-1.748963575489976
 10
8.749178736173235
 20
-1.748963575489976
 10
8.86768539729519
 20
-1.748963575489976
 10
8.986155437327144
 20
-1.748963575489976
 10
8.986155437327144
 20
-1.783592885118348
 10
8.986155437327144
 20
-1.817072292519924
 10
8.986155437327144
 20
-1.851731712822319
 10
8.899312184442552
 20
-1.851731712822319
 10
8.813917499118917
 20
-1.851731712822319
 10
8.727702094477738
 20
-1.851731712822319
 10
8.727702094477738
 20
-1.990846688905195
 10
8.727702094477738
 20
-2.128737706779235
 10
8.727702094477738
 20
-2.268404644068975
 10
8.814697935237442
 20
-2.268404644068975
 10
8.900515797601352
 20
-2.268404644068975
 10
8.986563965931408
 20
-2.268404644068975
 10
8.986563965931408
 20
-2.303227028221967
 10
8.986563965931408
 20
-2.336262506632263
 10
8.986563965931408
 20
-2.369252208680033
 10
8.866503349889399
 20
-2.369252208680033
 10
8.747495386735105
 20
-2.369252208680033
 10
8.626874874916716
 20
-2.369252208680033
 10
8.626874874916716
 20
-2.282060648539186
 10
8.626874874916716
 20
-2.196245024130778
 10
8.626874874916716
 20
-2.110246090821761
 10
8.485046682964013
 20
-2.110246090821761
 10
8.344845688111414
 20
-2.110246090821761
 10
8.203289712927901
 20
-2.110246090821761
 10
8.203289712927901
 20
-2.19741303345207
 10
8.203289712927901
 20
-2.283308410456534
 10
8.203289712927901
 20
-2.369805594040397
 10
8.083330415234956
 20
-2.369805594040397
 10
7.964733625541434
 20
-2.369805594040397
 10
7.845395869126415
 20
-2.369805594040397
 10
7.845395869126415
 20
-2.335472304889726
 10
7.845395869126415
 20
-2.301981097359127
 10
7.845395869126415
 20
-2.266598003627753
 10
7.932828721560402
 20
-2.266598003627753
 10
8.019137713431657
 20
-2.266598003627753
 10
8.105141936453668
 20
-2.266598003627753
 10
8.105141936453668
 20
-2.039488041379008
 10
8.105141936453668
 20
-1.814281155108562
 10
8.105141936453668
 20
-1.588964609018527
 10
7.96407587007449
 20
-1.588964609018527
 10
7.824355221852707
 20
-1.588964609018527
 10
7.682529267855519
 20
-1.588964609018527
 10
7.682529267855519
 20
-1.676351888540492
 10
7.682529267855519
 20
-1.762655692423967
 10
7.682529267855519
 20
-1.848959089406447
 10
7.649567031625274
 20
-1.848959089406447
 10
7.618727597913473
 20
-1.848959089406447
 10
7.585806051783252
 20
-1.848959089406447
 10
7.585806051783252
 20
-1.761549837230468
 10
7.585806051783252
 20
-1.675245728171237
 10
7.585806051783252
 20
-1.589122995232881
 10
7.444010208460074
 20
-1.589122995232881
 10
7.304325774427323
 20
-1.589122995232881
 10
7.164947126496271
 20
-1.589122995232881
 10
7.164947126496271
 20
-1.816153510061314
 10
7.164947126496271
 20
-2.041916019647652
 10
7.164947126496271
 20
-2.269556173899749
 10
7.251970026172507
 20
-2.269556173899749
 10
7.337790126491907
 20
-2.269556173899749
 10
7.424206133326227
 20
-2.269556173899749
 10
7.424206133326227
 20
-2.304420468855773
 10
7.424206133326227
 20
-2.337394301764523
 10
7.424206133326227
 20
-2.372777598946401
 10
7.336873378538282
 20
-2.372777598946401
 10
7.250684829363144
 20
-2.372777598946401
 10
7.164872867063726
 20
-2.372777598946401
 10
7.164872867063726
 20
-2.51266385587529
 10
7.164872867063726
 20
-2.650129458753541
 10
7.164872867063726
 20
-2.789450733643535
 10
7.251830052228406
 20
-2.789450733643535
 10
7.337657883666818
 20
-2.789450733643535
 10
7.424080807818124
 20
-2.789450733643535
 10
7.424080807818124
 20
-2.824805547755406
 10
7.424080807818124
 20
-2.858285158607499
 10
7.424080807818124
 20
-2.893476398517237
 10
7.336972458931856
 20
-2.893476398517237
 10
7.251152562062948
 20
-2.893476398517237
 10
7.164720889540123
 20
-2.893476398517237
 10
7.164720889540123
 20
-3.120381893013346
 10
7.164720889540123
 20
-3.345563754872286
 10
7.164720889540123
 20
-3.57091712550285
 10
7.305869353371867
 20
-3.57091712550285
 10
7.446019689049926
 20
-3.57091712550285
 10
7.587564881356936
 20
-3.57091712550285
 10
7.587564881356936
 20
-3.483674906187477
 10
7.587564881356936
 20
-3.397794787970547
 10
7.587564881356936
 20
-3.311786292487997
 10
7.62026853200152
 20
-3.311786292487997
 10
7.651556777516614
 20
-3.311786292487997
 10
7.684133475049116
 20
-3.311786292487997
 10
7.684133475049116
 20
-3.398836047630236
 10
7.684133475049116
 20
-3.484721862461179
 10
7.684133475049116
 20
-3.570655895060668
 10
7.825518144911497
 20
-3.570655895060668
 10
7.965583234830003
 20
-3.570655895060668
 10
8.105717701369068
 20
-3.570655895060668
 10
8.105717701369068
 20
-3.344178867317851
 10
8.105717701369068
 20
-3.119335750541634
 10
8.105717701369068
 20
-2.892199339727868
 10
8.01866937038033
 20
-2.892199339727868
 10
7.932348985281085
 20
-2.892199339727868
 10
7.845570022754524
 20
-2.892199339727868
 10
7.845570022754524
 20
-2.856969037322111
 10
7.845570022754524
 20
-2.824047084290909
 10
7.845570022754524
 20
-2.791389413459354
 10
7.966034081138306
 20
-2.791389413459354
 10
8.085177745776212
 20
-2.791389413459354
 10
8.206217365624878
 20
-2.791389413459354
 10
8.206217365624878
 20
-2.87849328643463
 10
8.206217365624878
 20
-2.964285310585018
 10
8.206217365624878
 20
-3.050009585718865
 10
8.347820948225413
 20
-3.050009585718865
 10
8.487513723728675
 20
-3.050009585718865
 10
8.629187700202287
 20
-3.050009585718865
 10
8.629187700202287
 20
-2.963093701005719
 10
8.629187700202287
 20
-2.877313273533837
 10
8.629187700202287
 20
-2.791371916716344
 10
8.74966864497757
 20
-2.791371916716344
 10
8.868158216257521
 20
-2.791371916716344
 10
8.98647973742436
 20
-2.791371916716344
 10
8.98647973742436
 20
-2.82574670976904
 10
8.98647973742436
 20
-2.858802533229348
 10
8.98647973742436
 20
-2.893661335021862
 10
8.899581552904717
 20
-2.893661335021862
 10
8.813792987412828
 20
-2.893661335021862
 10
8.727615424564696
 20
-2.893661335021862
 10
8.727615424564696
 20
-3.033451359864191
 10
8.727615424564696
 20
-3.171408702601272
 10
8.727615424564696
 20
-3.310952145437429
 10
8.81453802314435
 20
-3.310952145437429
 10
8.900367685637244
 20
-3.310952145437429
 10
8.986207927556178
 20
-3.310952145437429
 10
8.986207927556178
 20
-3.345471388345219
 10
8.986207927556178
 20
-3.378385610257434
 10
8.986207927556178
 20
-3.411352525849186
 10
8.86611557323613
 20
-3.411352525849186
 10
8.747428654971069
 20
-3.411352525849186
 10
8.626740597586629
 20
-3.411352525849186
 10
8.626740597586629
 20
-3.324139196504827
 10
8.626740597586629
 20
-3.237848311728107
 10
8.626740597586629
 20
-3.15148398132083
 10
8.485521129530348
 20
-3.15148398132083
 10
8.346309717910394
 20
-3.15148398132083
 10
8.207002684555391
 20
-3.15148398132083
 10
8.207002684555391
 20
-3.46573545488737
 10
8.207002684555391
 20
-3.779139760571347
 10
8.207002684555391
 20
-4.092643553549894
 10
8.34791331475248
 20
-4.092643553549894
 10
8.487205292770467
 20
-4.092643553549894
 10
8.628787716519001
 20
-4.092643553549894
 10
8.628787716519001
 20
-4.005606615789146
 10
8.628787716519001
 20
-3.919284196184902
 10
8.628787716519001
 20
-3.832471460875329
 10
8.749564478321492
 20
-3.832471460875329
 10
8.868044690878452
 20
-3.832471460875329
 10
8.986570476347424
 20
-3.832471460875329
 10
8.986570476347424
 20
-3.866869243834533
 10
8.986570476347424
 20
-3.899952736562859
 10
8.986570476347424
 20
-3.934806655543373
 10
8.899739023591842
 20
-3.934806655543373
 10
8.813932147554926
 20
-3.934806655543373
 10
8.727875841204877
 20
-3.934806655543373
 10
8.727875841204877
 20
-4.074506755264641
 10
8.727875841204877
 20
-4.212412421574691
 10
8.727875841204877
 20
-4.35210926608795
 10
8.815021421532668
 20
-4.35210926608795
 10
8.900809987024559
 20
-4.35210926608795
 10
8.98700748802172
 20
-4.35210926608795
 10
8.98700748802172
 20
-4.386554249563194
 10
8.98700748802172
 20
-4.419199509914228
 10
8.98700748802172
 20
-4.453009320928041
 97
        0
 97
        0
 75
     2
 76
     1
 98
        0
  0
ENDBLK
  5
44
330
41
100
AcDbEntity
  8
0
100
AcDbBlockEnd
  0
ENDSEC
  0
SECTION
  2
ENTITIES
  0
INSERT
  5
42
330
1F
100
AcDbEntity
  8
Layer 1
100
AcDbBlockReference
  2
block 2
 10
0.0
 20
0.0
 30
0.0
  0
ENDSEC
  0
SECTION
  2
OBJECTS
  0
DICTIONARY
  5
C
330
0
100
AcDbDictionary
281
     1
  3
ACAD_GROUP
350
D
  3
ACAD_LAYOUT
350
1A
  3
ACAD_MATERIAL
350
3B
  3
ACAD_MLEADERSTYLE
350
48
  3
ACAD_MLINESTYLE
350
17
  3
ACAD_PLOTSETTINGS
350
19
  3
ACAD_PLOTSTYLENAME
350
E
  3
ACAD_TABLESTYLE
350
47
  3
ACAD_VISUALSTYLE
350
2A
  0
SUN
  5
3F
330
29
100
AcDbSun
 90
        1
290
     0
 63
     7
421
 16777215
 40
1.0
291
     1
 91
  2455826
 92
 54000000
292
     0
 70
     2
 71
   256
280
     1
  0
DICTIONARY
  5
D
102
{ACAD_REACTORS
330
C
102
}
330
C
100
AcDbDictionary
281
     1
  0
DICTIONARY
  5
1A
102
{ACAD_REACTORS
330
C
102
}
330
C
100
AcDbDictionary
281
     1
  3
Layout1
350
1E
  3
Layout2
350
26
  3
Model
350
22
  0
DICTIONARY
  5
3B
102
{ACAD_REACTORS
330
C
102
}
330
C
100
AcDbDictionary
281
     1
  3
ByBlock
350
3D
  3
ByLayer
350
3C
  3
Global
350
3E
  0
DICTIONARY
  5
48
102
{ACAD_REACTORS
330
C
102
}
330
C
100
AcDbDictionary
281
     1
  0
DICTIONARY
  5
17
102
{ACAD_REACTORS
330
C
102
}
330
C
100
AcDbDictionary
281
     1
  3
Standard
350
18
  0
DICTIONARY
  5
19
102
{ACAD_REACTORS
330
C
102
}
330
C
100
AcDbDictionary
281
     1
  0
ACDBDICTIONARYWDFLT
  5
E
102
{ACAD_REACTORS
330
C
102
}
330
C
100
AcDbDictionary
281
     1
  3
Normal
350
F
100
AcDbDictionaryWithDefault
340
F
  0
DICTIONARY
  5
47
102
{ACAD_REACTORS
330
C
102
}
330
C
100
AcDbDictionary
281
     1
  0
DICTIONARY
  5
2A
102
{ACAD_REACTORS
330
C
102
}
330
C
100
AcDbDictionary
281
     1
  3
2dWireframe
350
2F
  3
3D Hidden
350
31
  3
3dWireframe
350
30
  3
Basic
350
32
  3
Brighten
350
36
  3
ColorChange
350
3A
  3
Conceptual
350
34
  3
Dim
350
35
  3
Facepattern
350
39
  3
Flat
350
2B
  3
FlatWithEdges
350
2C
  3
Gouraud
350
2D
  3
GouraudWithEdges
350
2E
  3
Linepattern
350
38
  3
Realistic
350
33
  3
Thicken
350
37
  0
LAYOUT
  5
1E
102
{ACAD_REACTORS
330
1A
102
}
330
1A
100
AcDbPlotSettings
  1

  2
none_device
  4

  6

 40
0.0
 41
0.0
 42
0.0
 43
0.0
 44
0.0
 45
0.0
 46
0.0
 47
0.0
 48
0.0
 49
0.0
140
0.0
141
0.0
142
1.0
143
1.0
 70
   688
 72
     0
 73
     0
 74
     5
  7

 75
    16
 76
     0
 77
     2
 78
   300
147
1.0
148
0.0
149
0.0
100
AcDbLayout
  1
Layout1
 70
     1
 71
     1
 10
0.0
 20
0.0
 11
12.0
 21
9.0
 12
0.0
 22
0.0
 32
0.0
 14
1.000000000000000E+20
 24
1.000000000000000E+20
 34
1.000000000000000E+20
 15
-1.000000000000000E+20
 25
-1.000000000000000E+20
 35
-1.000000000000000E+20
146
0.0
 13
0.0
 23
0.0
 33
0.0
 16
1.0
 26
0.0
 36
0.0
 17
0.0
 27
1.0
 37
0.0
 76
     0
330
1B
  0
LAYOUT
  5
26
102
{ACAD_REACTORS
330
1A
102
}
330
1A
100
AcDbPlotSettings
  1

  2
none_device
  4

  6

 40
0.0
 41
0.0
 42
0.0
 43
0.0
 44
0.0
 45
0.0
 46
0.0
 47
0.0
 48
0.0
 49
0.0
140
0.0
141
0.0
142
1.0
143
1.0
 70
   688
 72
     0
 73
     0
 74
     5
  7

 75
    16
 76
     0
 77
     2
 78
   300
147
1.0
148
0.0
149
0.0
100
AcDbLayout
  1
Layout2
 70
     1
 71
     2
 10
0.0
 20
0.0
 11
0.0
 21
0.0
 12
0.0
 22
0.0
 32
0.0
 14
0.0
 24
0.0
 34
0.0
 15
0.0
 25
0.0
 35
0.0
146
0.0
 13
0.0
 23
0.0
 33
0.0
 16
1.0
 26
0.0
 36
0.0
 17
0.0
 27
1.0
 37
0.0
 76
     0
330
23
  0
LAYOUT
  5
22
102
{ACAD_REACTORS
330
1A
102
}
330
1A
100
AcDbPlotSettings
  1

  2
none_device
  4

  6

 40
0.0
 41
0.0
 42
0.0
 43
0.0
 44
0.0
 45
0.0
 46
0.0
 47
0.0
 48
0.0
 49
0.0
140
0.0
141
0.0
142
1.0
143
1.0
 70
  1712
 72
     0
 73
     0
 74
     0
  7

 75
     0
 76
     0
 77
     2
 78
   300
147
1.0
148
0.0
149
0.0
100
AcDbLayout
  1
Model
 70
     1
 71
     0
 10
0.0
 20
0.0
 11
12.0
 21
9.0
 12
0.0
 22
0.0
 32
0.0
 14
1.000000000000000E+20
 24
1.000000000000000E+20
 34
1.000000000000000E+20
 15
-1.000000000000000E+20
 25
-1.000000000000000E+20
 35
-1.000000000000000E+20
146
0.0
 13
0.0
 23
0.0
 33
0.0
 16
1.0
 26
0.0
 36
0.0
 17
0.0
 27
1.0
 37
0.0
 76
     0
330
1F
331
29
  0
MATERIAL
  5
3D
102
{ACAD_REACTORS
330
3B
102
}
330
3B
100
AcDbMaterial
  1
ByBlock
 72
     1
 94
      127
  0
MATERIAL
  5
3C
102
{ACAD_REACTORS
330
3B
102
}
330
3B
100
AcDbMaterial
  1
ByLayer
 72
     1
 94
      127
  0
MATERIAL
  5
3E
102
{ACAD_REACTORS
330
3B
102
}
330
3B
100
AcDbMaterial
  1
Global
 72
     1
 94
      127
  0
MLINESTYLE
  5
18
102
{ACAD_REACTORS
330
17
102
}
330
17
100
AcDbMlineStyle
  2
Standard
 70
     0
  3

 62
   256
 51
90.0
 52
90.0
 71
     2
 49
0.5
 62
   256
  6
BYLAYER
 49
-0.5
 62
   256
  6
BYLAYER
  0
ACDBPLACEHOLDER
  5
F
102
{ACAD_REACTORS
330
E
102
}
330
E
  0
VISUALSTYLE
  5
2F
102
{ACAD_REACTORS
330
2A
102
}
330
2A
100
AcDbVisualStyle
  2
2dWireframe
 70
     4
177
     2
291
     0
 71
     0
176
     1
 72
     2
176
     1
 73
     0
176
     1
 90
        0
176
     1
 40
-0.6
176
     1
 41
-30.0
176
     1
 62
     5
 63
     7
421
 16777215
176
     1
 74
     1
176
     1
 91
        4
176
     1
 64
     7
176
     1
 65
   257
176
     1
 75
     1
176
     1
175
     1
176
     1
 42
1.0
176
     1
 92
        0
176
     1
 66
   257
176
     1
 43
1.0
176
     1
 76
     1
176
     1
 77
     6
176
     1
 78
     2
176
     1
 67
     7
176
     1
 79
     5
176
     1
170
     0
176
     1
171
     0
176
     1
290
     0
176
     1
 93
        1
176
     1
 44
0.0
176
     1
173
     0
176
     1
  0
VISUALSTYLE
  5
31
102
{ACAD_REACTORS
330
2A
102
}
330
2A
100
AcDbVisualStyle
  2
3D Hidden
 70
     6
177
     2
291
     0
 71
     1
176
     1
 72
     2
176
     1
 73
     2
176
     1
 90
        0
176
     1
 40
-0.6
176
     1
 41
-30.0
176
     1
 62
     5
 63
     7
421
 16777215
176
     1
 74
     2
176
     1
 91
        2
176
     1
 64
     7
176
     1
 65
   257
176
     1
 75
     2
176
     1
175
     1
176
     1
 42
40.0
176
     1
 92
        0
176
     1
 66
   257
176
     1
 43
1.0
176
     1
 76
     1
176
     1
 77
     6
176
     1
 78
     2
176
     1
 67
     7
176
     1
 79
     3
176
     1
170
     0
176
     1
171
     0
176
     1
290
     0
176
     1
 93
        1
176
     1
 44
0.0
176
     1
173
     0
176
     1
  0
VISUALSTYLE
  5
30
102
{ACAD_REACTORS
330
2A
102
}
330
2A
100
AcDbVisualStyle
  2
3dWireframe
 70
     5
177
     2
291
     0
 71
     0
176
     1
 72
     2
176
     1
 73
     0
176
     1
 90
        0
176
     1
 40
-0.6
176
     1
 41
-30.0
176
     1
 62
     5
 63
     7
421
 16777215
176
     1
 74
     1
176
     1
 91
        4
176
     1
 64
     7
176
     1
 65
   257
176
     1
 75
     1
176
     1
175
     1
176
     1
 42
1.0
176
     1
 92
        0
176
     1
 66
   257
176
     1
 43
1.0
176
     1
 76
     1
176
     1
 77
     6
176
     1
 78
     2
176
     1
 67
     7
176
     1
 79
     5
176
     1
170
     0
176
     1
171
     0
176
     1
290
     0
176
     1
 93
        1
176
     1
 44
0.0
176
     1
173
     0
176
     1
  0
VISUALSTYLE
  5
32
102
{ACAD_REACTORS
330
2A
102
}
330
2A
100
AcDbVisualStyle
  2
Basic
 70
     7
177
     2
291
     1
 71
     1
176
     1
 72
     0
176
     1
 73
     1
176
     1
 90
        0
176
     1
 40
-0.6
176
     1
 41
-30.0
176
     1
 62
     5
 63
     7
421
 16777215
176
     1
 74
     0
176
     1
 91
        4
176
     1
 64
     7
176
     1
 65
   257
176
     1
 75
     1
176
     1
175
     1
176
     1
 42
1.0
176
     1
 92
        8
176
     1
 66
     7
176
     1
 43
1.0
176
     1
 76
     1
176
     1
 77
     6
176
     1
 78
     2
176
     1
 67
     7
176
     1
 79
     5
176
     1
170
     0
176
     1
171
     0
176
     1
290
     0
176
     1
 93
        1
176
     1
 44
0.0
176
     1
173
     0
176
     1
  0
VISUALSTYLE
  5
36
102
{ACAD_REACTORS
330
2A
102
}
330
2A
100
AcDbVisualStyle
  2
Brighten
 70
    12
177
     2
291
     1
 71
     2
176
     1
 72
     2
176
     1
 73
     0
176
     1
 90
        0
176
     1
 40
-0.6
176
     1
 41
-30.0
176
     1
 62
     5
 63
     7
421
 16777215
176
     1
 74
     1
176
     1
 91
        4
176
     1
 64
     7
176
     1
 65
   257
176
     1
 75
     1
176
     1
175
     1
176
     1
 42
1.0
176
     1
 92
        8
176
     1
 66
     7
176
     1
 43
1.0
176
     1
 76
     1
176
     1
 77
     6
176
     1
 78
     2
176
     1
 67
     7
176
     1
 79
     5
176
     1
170
     0
176
     1
171
     0
176
     1
290
     0
176
     1
 93
        1
176
     1
 44
50.0
176
     1
173
     0
176
     1
  0
VISUALSTYLE
  5
3A
102
{ACAD_REACTORS
330
2A
102
}
330
2A
100
AcDbVisualStyle
  2
ColorChange
 70
    16
177
     2
291
     1
 71
     2
176
     1
 72
     2
176
     1
 73
     3
176
     1
 90
        0
176
     1
 40
-0.6
176
     1
 41
-30.0
176
     1
 62
     5
 63
     8
421
  8421504
176
     1
 74
     1
176
     1
 91
        4
176
     1
 64
     7
176
     1
 65
   257
176
     1
 75
     1
176
     1
175
     1
176
     1
 42
1.0
176
     1
 92
        8
176
     1
 66
     8
424
  8421504
176
     1
 43
1.0
176
     1
 76
     1
176
     1
 77
     6
176
     1
 78
     2
176
     1
 67
     7
176
     1
 79
     5
176
     1
170
     0
176
     1
171
     0
176
     1
290
     0
176
     1
 93
        1
176
     1
 44
0.0
176
     1
173
     0
176
     1
  0
VISUALSTYLE
  5
34
102
{ACAD_REACTORS
330
2A
102
}
330
2A
100
AcDbVisualStyle
  2
Conceptual
 70
     9
177
     2
291
     0
 71
     3
176
     1
 72
     2
176
     1
 73
     0
176
     1
 90
        0
176
     1
 40
-0.6
176
     1
 41
-30.0
176
     1
 62
     5
 63
     7
421
 16777215
176
     1
 74
     2
176
     1
 91
        2
176
     1
 64
     7
176
     1
 65
   257
176
     1
 75
     1
176
     1
175
     1
176
     1
 42
40.0
176
     1
 92
        8
176
     1
 66
     7
176
     1
 43
1.0
176
     1
 76
     1
176
     1
 77
     6
176
     1
 78
     2
176
     1
 67
     7
176
     1
 79
     3
176
     1
170
     0
176
     1
171
     0
176
     1
290
     0
176
     1
 93
        1
176
     1
 44
0.0
176
     1
173
     0
176
     1
  0
VISUALSTYLE
  5
35
102
{ACAD_REACTORS
330
2A
102
}
330
2A
100
AcDbVisualStyle
  2
Dim
 70
    11
177
     2
291
     1
 71
     2
176
     1
 72
     2
176
     1
 73
     0
176
     1
 90
        0
176
     1
 40
-0.6
176
     1
 41
-30.0
176
     1
 62
     5
 63
     7
421
 16777215
176
     1
 74
     1
176
     1
 91
        4
176
     1
 64
     7
176
     1
 65
   257
176
     1
 75
     1
176
     1
175
     1
176
     1
 42
1.0
176
     1
 92
        8
176
     1
 66
     7
176
     1
 43
1.0
176
     1
 76
     1
176
     1
 77
     6
176
     1
 78
     2
176
     1
 67
     7
176
     1
 79
     5
176
     1
170
     0
176
     1
171
     0
176
     1
290
     0
176
     1
 93
        1
176
     1
 44
-50.0
176
     1
173
     0
176
     1
  0
VISUALSTYLE
  5
39
102
{ACAD_REACTORS
330
2A
102
}
330
2A
100
AcDbVisualStyle
  2
Facepattern
 70
    15
177
     2
291
     1
 71
     2
176
     1
 72
     2
176
     1
 73
     0
176
     1
 90
        0
176
     1
 40
-0.6
176
     1
 41
-30.0
176
     1
 62
     5
 63
     7
421
 16777215
176
     1
 74
     1
176
     1
 91
        4
176
     1
 64
     7
176
     1
 65
   257
176
     1
 75
     1
176
     1
175
     1
176
     1
 42
1.0
176
     1
 92
        8
176
     1
 66
     7
176
     1
 43
1.0
176
     1
 76
     1
176
     1
 77
     6
176
     1
 78
     2
176
     1
 67
     7
176
     1
 79
     5
176
     1
170
     0
176
     1
171
     0
176
     1
290
     0
176
     1
 93
        1
176
     1
 44
0.0
176
     1
173
     0
176
     1
  0
VISUALSTYLE
  5
2B
102
{ACAD_REACTORS
330
2A
102
}
330
2A
100
AcDbVisualStyle
  2
Flat
 70
     0
177
     2
291
     1
 71
     2
176
     1
 72
     1
176
     1
 73
     1
176
     1
 90
        2
176
     1
 40
-0.6
176
     1
 41
30.0
176
     1
 62
     5
 63
     7
421
 16777215
176
     1
 74
     0
176
     1
 91
        4
176
     1
 64
     7
176
     1
 65
   257
176
     1
 75
     1
176
     1
175
     1
176
     1
 42
1.0
176
     1
 92
        8
176
     1
 66
     7
176
     1
 43
1.0
176
     1
 76
     1
176
     1
 77
     6
176
     1
 78
     2
176
     1
 67
     7
176
     1
 79
     5
176
     1
170
     0
176
     1
171
     0
176
     1
290
     0
176
     1
 93
       13
176
     1
 44
0.0
176
     1
173
     0
176
     1
  0
VISUALSTYLE
  5
2C
102
{ACAD_REACTORS
330
2A
102
}
330
2A
100
AcDbVisualStyle
  2
FlatWithEdges
 70
     1
177
     2
291
     1
 71
     2
176
     1
 72
     1
176
     1
 73
     1
176
     1
 90
        2
176
     1
 40
-0.6
176
     1
 41
30.0
176
     1
 62
     5
 63
     7
421
 16777215
176
     1
 74
     1
176
     1
 91
        4
176
     1
 64
     7
176
     1
 65
   257
176
     1
 75
     1
176
     1
175
     1
176
     1
 42
1.0
176
     1
 92
        0
176
     1
 66
   257
176
     1
 43
1.0
176
     1
 76
     1
176
     1
 77
     6
176
     1
 78
     2
176
     1
 67
     7
176
     1
 79
     5
176
     1
170
     0
176
     1
171
     0
176
     1
290
     0
176
     1
 93
       13
176
     1
 44
0.0
176
     1
173
     0
176
     1
  0
VISUALSTYLE
  5
2D
102
{ACAD_REACTORS
330
2A
102
}
330
2A
100
AcDbVisualStyle
  2
Gouraud
 70
     2
177
     2
291
     1
 71
     2
176
     1
 72
     2
176
     1
 73
     1
176
     1
 90
        2
176
     1
 40
-0.6
176
     1
 41
30.0
176
     1
 62
     5
 63
     7
421
 16777215
176
     1
 74
     0
176
     1
 91
        4
176
     1
 64
     7
176
     1
 65
   257
176
     1
 75
     1
176
     1
175
     1
176
     1
 42
1.0
176
     1
 92
        0
176
     1
 66
     7
176
     1
 43
1.0
176
     1
 76
     1
176
     1
 77
     6
176
     1
 78
     2
176
     1
 67
     7
176
     1
 79
     5
176
     1
170
     0
176
     1
171
     0
176
     1
290
     0
176
     1
 93
       13
176
     1
 44
0.0
176
     1
173
     0
176
     1
  0
VISUALSTYLE
  5
2E
102
{ACAD_REACTORS
330
2A
102
}
330
2A
100
AcDbVisualStyle
  2
GouraudWithEdges
 70
     3
177
     2
291
     1
 71
     2
176
     1
 72
     2
176
     1
 73
     1
176
     1
 90
        2
176
     1
 40
-0.6
176
     1
 41
30.0
176
     1
 62
     5
 63
     7
421
 16777215
176
     1
 74
     1
176
     1
 91
        4
176
     1
 64
     7
176
     1
 65
   257
176
     1
 75
     1
176
     1
175
     1
176
     1
 42
1.0
176
     1
 92
        0
176
     1
 66
   257
176
     1
 43
1.0
176
     1
 76
     1
176
     1
 77
     6
176
     1
 78
     2
176
     1
 67
     7
176
     1
 79
     5
176
     1
170
     0
176
     1
171
     0
176
     1
290
     0
176
     1
 93
       13
176
     1
 44
0.0
176
     1
173
     0
176
     1
  0
VISUALSTYLE
  5
38
102
{ACAD_REACTORS
330
2A
102
}
330
2A
100
AcDbVisualStyle
  2
Linepattern
 70
    14
177
     2
291
     1
 71
     2
176
     1
 72
     2
176
     1
 73
     0
176
     1
 90
        0
176
     1
 40
-0.6
176
     1
 41
-30.0
176
     1
 62
     5
 63
     7
421
 16777215
176
     1
 74
     1
176
     1
 91
        4
176
     1
 64
     7
176
     1
 65
   257
176
     1
 75
     7
176
     1
175
     7
176
     1
 42
1.0
176
     1
 92
        8
176
     1
 66
     7
176
     1
 43
1.0
176
     1
 76
     1
176
     1
 77
     6
176
     1
 78
     2
176
     1
 67
     7
176
     1
 79
     5
176
     1
170
     0
176
     1
171
     0
176
     1
290
     0
176
     1
 93
        1
176
     1
 44
0.0
176
     1
173
     0
176
     1
  0
VISUALSTYLE
  5
33
102
{ACAD_REACTORS
330
2A
102
}
330
2A
100
AcDbVisualStyle
  2
Realistic
 70
     8
177
     2
291
     0
 71
     2
176
     1
 72
     2
176
     1
 73
     0
176
     1
 90
        0
176
     1
 40
-0.6
176
     1
 41
-30.0
176
     1
 62
     5
 63
     7
421
 16777215
176
     1
 74
     1
176
     1
 91
        0
176
     1
 64
     7
176
     1
 65
   257
176
     1
 75
     1
176
     1
175
     1
176
     1
 42
1.0
176
     1
 92
        8
176
     1
 66
     8
424
  7895160
176
     1
 43
1.0
176
     1
 76
     1
176
     1
 77
     6
176
     1
 78
     2
176
     1
 67
     7
176
     1
 79
     5
176
     1
170
     0
176
     1
171
     0
176
     1
290
     0
176
     1
 93
       13
176
     1
 44
0.0
176
     1
173
     0
176
     1
  0
VISUALSTYLE
  5
37
102
{ACAD_REACTORS
330
2A
102
}
330
2A
100
AcDbVisualStyle
  2
Thicken
 70
    13
177
     2
291
     1
 71
     2
176
     1
 72
     2
176
     1
 73
     0
176
     1
 90
        0
176
     1
 40
-0.6
176
     1
 41
-30.0
176
     1
 62
     5
 63
     7
421
 16777215
176
     1
 74
     1
176
     1
 91
        4
176
     1
 64
     7
176
     1
 65
   257
176
     1
 75
     1
176
     1
175
     1
176
     1
 42
1.0
176
     1
 92
       12
176
     1
 66
     7
176
     1
 43
1.0
176
     1
 76
     1
176
     1
 77
     6
176
     1
 78
     2
176
     1
 67
     7
176
     1
 79
     5
176
     1
170
     0
176
     1
171
     0
176
     1
290
     0
176
     1
 93
        1
176
     1
 44
0.0
176
     1
173
     0
176
     1
  0
ENDSEC
  0
EOF
