  0
SECTION
  2
HEADER
  9
$ACADVER
  1
AC1024
  9
$ACADMAINTVER
 70
     6
  9
$DWGCODEPAGE
  3
UNDEFINED
  9
$INSBASE
 10
0.0
 20
0.0
 30
0.0
  9
$EXTMIN
 10
1.000000000000000E+20
 20
1.000000000000000E+20
 30
1.000000000000000E+20
  9
$EXTMAX
 10
-1.000000000000000E+20
 20
-1.000000000000000E+20
 30
-1.000000000000000E+20
  9
$LIMMIN
 10
0.0
 20
0.0
  9
$LIMMAX
 10
12.0
 20
9.0
  9
$ORTHOMODE
 70
     0
  9
$REGENMODE
 70
     1
  9
$FILLMODE
 70
     1
  9
$QTEXTMODE
 70
     0
  9
$MIRRTEXT
 70
     1
  9
$LTSCALE
 40
1.0
  9
$ATTMODE
 70
     1
  9
$TEXTSIZE
 40
0.2
  9
$TRACEWID
 40
0.05
  9
$TEXTSTYLE
  7
Standard
  9
$CLAYER
  8
0
  9
$CELTYPE
  6
ByLayer
  9
$CECOLOR
 62
   256
  9
$CELTSCALE
 40
1.0
  9
$DISPSILH
 70
     0
  9
$DIMSCALE
 40
1.0
  9
$DIMASZ
 40
0.18
  9
$DIMEXO
 40
0.0625
  9
$DIMDLI
 40
0.38
  9
$DIMRND
 40
0.0
  9
$DIMDLE
 40
0.0
  9
$DIMEXE
 40
0.18
  9
$DIMTP
 40
0.0
  9
$DIMTM
 40
0.0
  9
$DIMTXT
 40
0.18
  9
$DIMCEN
 40
0.09
  9
$DIMTSZ
 40
0.0
  9
$DIMTOL
 70
     0
  9
$DIMLIM
 70
     0
  9
$DIMTIH
 70
     1
  9
$DIMTOH
 70
     1
  9
$DIMSE1
 70
     0
  9
$DIMSE2
 70
     0
  9
$DIMTAD
 70
     0
  9
$DIMZIN
 70
     0
  9
$DIMBLK
  1

  9
$DIMASO
 70
     1
  9
$DIMSHO
 70
     1
  9
$DIMPOST
  1

  9
$DIMAPOST
  1

  9
$DIMALT
 70
     0
  9
$DIMALTD
 70
     2
  9
$DIMALTF
 40
25.4
  9
$DIMLFAC
 40
1.0
  9
$DIMTOFL
 70
     0
  9
$DIMTVP
 40
0.0
  9
$DIMTIX
 70
     0
  9
$DIMSOXD
 70
     0
  9
$DIMSAH
 70
     0
  9
$DIMBLK1
  1

  9
$DIMBLK2
  1

  9
$DIMSTYLE
  2
Standard
  9
$DIMCLRD
 70
     0
  9
$DIMCLRE
 70
     0
  9
$DIMCLRT
 70
     0
  9
$DIMTFAC
 40
1.0
  9
$DIMGAP
 40
0.09
  9
$DIMJUST
 70
     0
  9
$DIMSD1
 70
     0
  9
$DIMSD2
 70
     0
  9
$DIMTOLJ
 70
     1
  9
$DIMTZIN
 70
     0
  9
$DIMALTZ
 70
     0
  9
$DIMALTTZ
 70
     0
  9
$DIMUPT
 70
     0
  9
$DIMDEC
 70
     4
  9
$DIMTDEC
 70
     4
  9
$DIMALTU
 70
     2
  9
$DIMALTTD
 70
     2
  9
$DIMTXSTY
  7
Standard
  9
$DIMAUNIT
 70
     0
  9
$DIMADEC
 70
     0
  9
$DIMALTRND
 40
0.0
  9
$DIMAZIN
 70
     0
  9
$DIMDSEP
 70
    46
  9
$DIMATFIT
 70
     3
  9
$DIMFRAC
 70
     0
  9
$DIMLDRBLK
  1

  9
$DIMLUNIT
 70
     2
  9
$DIMLWD
 70
    -2
  9
$DIMLWE
 70
    -2
  9
$DIMTMOVE
 70
     0
  9
$DIMFXL
 40
1.0
  9
$DIMFXLON
 70
     0
  9
$DIMJOGANG
 40
0.7853981633974483
  9
$DIMTFILL
 70
     0
  9
$DIMTFILLCLR
 70
     0
  9
$DIMARCSYM
 70
     0
  9
$DIMLTYPE
  6

  9
$DIMLTEX1
  6

  9
$DIMLTEX2
  6

  9
$DIMTXTDIRECTION
 70
     0
  9
$LUNITS
 70
     2
  9
$LUPREC
 70
     4
  9
$SKETCHINC
 40
0.1
  9
$FILLETRAD
 40
0.5
  9
$AUNITS
 70
     0
  9
$AUPREC
 70
     0
  9
$MENU
  1
.
  9
$ELEVATION
 40
0.0
  9
$PELEVATION
 40
0.0
  9
$THICKNESS
 40
0.0
  9
$LIMCHECK
 70
     0
  9
$CHAMFERA
 40
0.5
  9
$CHAMFERB
 40
0.5
  9
$CHAMFERC
 40
1.0
  9
$CHAMFERD
 40
0.0
  9
$SKPOLY
 70
     0
  9
$TDCREATE
 40
2458164.640081007
  9
$TDUCREATE
 40
2458164.973414352
  9
$TDUPDATE
 40
2458164.640081007
  9
$TDUUPDATE
 40
2458164.973414352
  9
$TDINDWG
 40
0.0000000116
  9
$TDUSRTIMER
 40
0.0000000116
  9
$USRTIMER
 70
     1
  9
$ANGBASE
 50
0.0
  9
$ANGDIR
 70
     0
  9
$PDMODE
 70
     0
  9
$PDSIZE
 40
0.0
  9
$PLINEWID
 40
0.0
  9
$SPLFRAME
 70
     0
  9
$SPLINETYPE
 70
     6
  9
$SPLINESEGS
 70
     8
  9
$HANDSEED
  5
4A
  9
$SURFTAB1
 70
     6
  9
$SURFTAB2
 70
     6
  9
$SURFTYPE
 70
     6
  9
$SURFU
 70
     6
  9
$SURFV
 70
     6
  9
$UCSBASE
  2

  9
$UCSNAME
  2

  9
$UCSORG
 10
0.0
 20
0.0
 30
0.0
  9
$UCSXDIR
 10
1.0
 20
0.0
 30
0.0
  9
$UCSYDIR
 10
0.0
 20
1.0
 30
0.0
  9
$UCSORTHOREF
  2

  9
$UCSORTHOVIEW
 70
     0
  9
$UCSORGTOP
 10
0.0
 20
0.0
 30
0.0
  9
$UCSORGBOTTOM
 10
0.0
 20
0.0
 30
0.0
  9
$UCSORGLEFT
 10
0.0
 20
0.0
 30
0.0
  9
$UCSORGRIGHT
 10
0.0
 20
0.0
 30
0.0
  9
$UCSORGFRONT
 10
0.0
 20
0.0
 30
0.0
  9
$UCSORGBACK
 10
0.0
 20
0.0
 30
0.0
  9
$PUCSBASE
  2

  9
$PUCSNAME
  2

  9
$PUCSORG
 10
0.0
 20
0.0
 30
0.0
  9
$PUCSXDIR
 10
1.0
 20
0.0
 30
0.0
  9
$PUCSYDIR
 10
0.0
 20
1.0
 30
0.0
  9
$PUCSORTHOREF
  2

  9
$PUCSORTHOVIEW
 70
     0
  9
$PUCSORGTOP
 10
0.0
 20
0.0
 30
0.0
  9
$PUCSORGBOTTOM
 10
0.0
 20
0.0
 30
0.0
  9
$PUCSORGLEFT
 10
0.0
 20
0.0
 30
0.0
  9
$PUCSORGRIGHT
 10
0.0
 20
0.0
 30
0.0
  9
$PUCSORGFRONT
 10
0.0
 20
0.0
 30
0.0
  9
$PUCSORGBACK
 10
0.0
 20
0.0
 30
0.0
  9
$USERI1
 70
     0
  9
$USERI2
 70
     0
  9
$USERI3
 70
     0
  9
$USERI4
 70
     0
  9
$USERI5
 70
     0
  9
$USERR1
 40
0.0
  9
$USERR2
 40
0.0
  9
$USERR3
 40
0.0
  9
$USERR4
 40
0.0
  9
$USERR5
 40
0.0
  9
$WORLDVIEW
 70
     1
  9
$SHADEDGE
 70
     3
  9
$SHADEDIF
 70
    70
  9
$TILEMODE
 70
     1
  9
$MAXACTVP
 70
    64
  9
$PINSBASE
 10
0.0
 20
0.0
 30
0.0
  9
$PLIMCHECK
 70
     0
  9
$PEXTMIN
 10
1.000000000000000E+20
 20
1.000000000000000E+20
 30
1.000000000000000E+20
  9
$PEXTMAX
 10
-1.000000000000000E+20
 20
-1.000000000000000E+20
 30
-1.000000000000000E+20
  9
$PLIMMIN
 10
0.0
 20
0.0
  9
$PLIMMAX
 10
12.0
 20
9.0
  9
$UNITMODE
 70
     0
  9
$VISRETAIN
 70
     1
  9
$PLINEGEN
 70
     0
  9
$PSLTSCALE
 70
     1
  9
$TREEDEPTH
 70
  3020
  9
$CMLSTYLE
  2
Standard
  9
$CMLJUST
 70
     0
  9
$CMLSCALE
 40
1.0
  9
$PROXYGRAPHICS
 70
     1
  9
$MEASUREMENT
 70
     0
  9
$CELWEIGHT
370
    -1
  9
$ENDCAPS
280
     0
  9
$JOINSTYLE
280
     0
  9
$LWDISPLAY
290
     1
  9
$INSUNITS
 70
     1
  9
$HYPERLINKBASE
  1

  9
$STYLESHEET
  1

  9
$XEDIT
290
     1
  9
$CEPSNTYPE
380
     0
  9
$PSTYLEMODE
290
     1
  9
$FINGERPRINTGUID
  2
{BEB4AD73-B828-AAFC-09D5-8C0AEE719359}
  9
$VERSIONGUID
  2
{FAEB1C32-E019-11D5-929B-00C0DF256EC4}
  9
$EXTNAMES
290
     1
  9
$PSVPSCALE
 40
0.0
  9
$OLESTARTUP
290
     0
  9
$SORTENTS
280
   127
  9
$INDEXCTL
280
     0
  9
$HIDETEXT
280
     1
  9
$XCLIPFRAME
280
     2
  9
$HALOGAP
280
     0
  9
$OBSCOLOR
 70
   257
  9
$OBSLTYPE
280
     0
  9
$INTERSECTIONDISPLAY
280
     0
  9
$INTERSECTIONCOLOR
 70
   257
  9
$DIMASSOC
280
     2
  9
$PROJECTNAME
  1

  9
$CAMERADISPLAY
290
     0
  9
$LENSLENGTH
 40
50.0
  9
$CAMERAHEIGHT
 40
0.0
  9
$STEPSPERSEC
 40
2.0
  9
$STEPSIZE
 40
6.0
  9
$3DDWFPREC
 40
2.0
  9
$PSOLWIDTH
 40
0.25
  9
$PSOLHEIGHT
 40
4.0
  9
$LOFTANG1
 40
1.570796326794897
  9
$LOFTANG2
 40
1.570796326794897
  9
$LOFTMAG1
 40
0.0
  9
$LOFTMAG2
 40
0.0
  9
$LOFTPARAM
 70
     7
  9
$LOFTNORMALS
280
     1
  9
$LATITUDE
 40
37.795
  9
$LONGITUDE
 40
-122.394
  9
$NORTHDIRECTION
 40
0.0
  9
$TIMEZONE
 70
 -8000
  9
$LIGHTGLYPHDISPLAY
280
     1
  9
$TILEMODELIGHTSYNCH
280
     1
  9
$CMATERIAL
347
3C
  9
$SOLIDHIST
280
     1
  9
$SHOWHIST
280
     1
  9
$DWFFRAME
280
     2
  9
$DGNFRAME
280
     2
  9
$REALWORLDSCALE
290
     1
  9
$INTERFERECOLOR
 62
   256
  9
$CSHADOW
280
     0
  9
$SHADOWPLANELOCATION
 40
0.0
  0
ENDSEC
  0
SECTION
  2
CLASSES
  0
CLASS
  1
ACDBDICTIONARYWDFLT
  2
AcDbDictionaryWithDefault
  3
ObjectDBX Classes
 90
        0
 91
        4
280
     0
281
     0
  0
CLASS
  1
VISUALSTYLE
  2
AcDbVisualStyle
  3
ObjectDBX Classes
 90
     4095
 91
        4
280
     0
281
     0
  0
CLASS
  1
MATERIAL
  2
AcDbMaterial
  3
ObjectDBX Classes
 90
     1153
 91
        4
280
     0
281
     0
  0
CLASS
  1
SUN
  2
AcDbSun
  3
SCENEOE
 90
     1024
 91
        4
280
     0
281
     0
  0
ENDSEC
  0
SECTION
  2
TABLES
  0
TABLE
  2
VPORT
  5
8
330
0
100
AcDbSymbolTable
 70
     1
  0
VPORT
  5
29
330
8
100
AcDbSymbolTableRecord
100
AcDbViewportTableRecord
  2
*Active
 70
     0
 10
0.0
 20
0.0
 11
1.0
 21
1.0
 12
0.0
 22
0.0
 13
0.0
 23
0.0
 14
0.5
 24
0.5
 15
0.5
 25
0.5
 16
0.0
 26
0.0
 36
1.0
 17
4.698412698412698
 27
-4.763888888888895
 37
0.0
 40
4.380341880341891
 41
0.9999999999999998
 42
50.0
 43
0.0
 44
0.0
 50
0.0
 51
0.0
 71
     0
 72
   100
 73
     1
 74
     3
 75
     0
 76
     0
 77
     0
 78
     0
281
     0
 65
     1
110
0.0
120
0.0
130
0.0
111
1.0
121
0.0
131
0.0
112
0.0
122
1.0
132
0.0
 79
     0
146
0.0
 60
     3
 61
     5
292
     1
282
     1
141
0.0
142
0.0
 63
   250
361
3F
  0
ENDTAB
  0
TABLE
  2
LTYPE
  5
5
330
0
100
AcDbSymbolTable
 70
     1
  0
LTYPE
  5
14
330
5
100
AcDbSymbolTableRecord
100
AcDbLinetypeTableRecord
  2
ByBlock
 70
     0
  3

 72
    65
 73
     0
 40
0.0
  0
LTYPE
  5
15
330
5
100
AcDbSymbolTableRecord
100
AcDbLinetypeTableRecord
  2
ByLayer
 70
     0
  3

 72
    65
 73
     0
 40
0.0
  0
LTYPE
  5
16
330
5
100
AcDbSymbolTableRecord
100
AcDbLinetypeTableRecord
  2
Continuous
 70
     0
  3
Solid line
 72
    65
 73
     0
 40
0.0
  0
ENDTAB
  0
TABLE
  2
LAYER
  5
2
330
0
100
AcDbSymbolTable
 70
     2
  0
LAYER
  5
10
330
2
100
AcDbSymbolTableRecord
100
AcDbLayerTableRecord
  2
0
 70
     0
 62
     7
  6
Continuous
370
    -3
390
F
347
3E
  0
LAYER
  5
40
330
2
100
AcDbSymbolTableRecord
100
AcDbLayerTableRecord
  2
Layer 1
 70
     0
 62
     7
  6
Continuous
370
    -3
390
F
347
3E
  0
ENDTAB
  0
TABLE
  2
STYLE
  5
3
330
0
100
AcDbSymbolTable
 70
     1
  0
STYLE
  5
11
330
3
100
AcDbSymbolTableRecord
100
AcDbTextStyleTableRecord
  2
Standard
 70
     0
 40
0.0
 41
1.0
 50
0.0
 71
     0
 42
0.2
  3
txt
  4

  0
ENDTAB
  0
TABLE
  2
VIEW
  5
6
330
0
100
AcDbSymbolTable
 70
     0
  0
ENDTAB
  0
TABLE
  2
UCS
  5
7
330
0
100
AcDbSymbolTable
 70
     0
  0
ENDTAB
  0
TABLE
  2
APPID
  5
9
330
0
100
AcDbSymbolTable
 70
     1
  0
APPID
  5
12
330
9
100
AcDbSymbolTableRecord
100
AcDbRegAppTableRecord
  2
ACAD
 70
     0
  0
ENDTAB
  0
TABLE
  2
DIMSTYLE
  5
A
330
0
100
AcDbSymbolTable
 70
     1
100
AcDbDimStyleTable
  0
DIMSTYLE
105
27
330
A
100
AcDbSymbolTableRecord
100
AcDbDimStyleTableRecord
  2
Standard
 70
     0
178
     0
340
11
  0
ENDTAB
  0
TABLE
  2
BLOCK_RECORD
  5
1
330
0
100
AcDbSymbolTable
 70
     2
  0
BLOCK_RECORD
  5
1F
330
1
100
AcDbSymbolTableRecord
100
AcDbBlockTableRecord
  2
*Model_Space
340
22
 70
     0
280
     1
281
     0
  0
BLOCK_RECORD
  5
1B
330
1
100
AcDbSymbolTableRecord
100
AcDbBlockTableRecord
  2
*Paper_Space
340
1E
 70
     0
280
     1
281
     0
  0
BLOCK_RECORD
  5
23
330
1
100
AcDbSymbolTableRecord
100
AcDbBlockTableRecord
  2
*Paper_Space0
340
26
 70
     0
280
     1
281
     0
  0
BLOCK_RECORD
  5
41
330
1
100
AcDbSymbolTableRecord
100
AcDbBlockTableRecord
  2
block 2
340
0
102
{BLKREFS
331
42
102
}
 70
     0
280
     1
281
     0
  0
ENDTAB
  0
ENDSEC
  0
SECTION
  2
BLOCKS
  0
BLOCK
  5
20
330
1F
100
AcDbEntity
  8
0
100
AcDbBlockBegin
  2
*Model_Space
 70
     0
 10
0.0
 20
0.0
 30
0.0
  3
*Model_Space
  1

  0
ENDBLK
  5
21
330
1F
100
AcDbEntity
  8
0
100
AcDbBlockEnd
  0
BLOCK
  5
1C
330
1B
100
AcDbEntity
 67
     1
  8
0
100
AcDbBlockBegin
  2
*Paper_Space
 70
     0
 10
0.0
 20
0.0
 30
0.0
  3
*Paper_Space
  1

  0
ENDBLK
  5
1D
330
1B
100
AcDbEntity
 67
     1
  8
0
100
AcDbBlockEnd
  0
BLOCK
  5
24
330
23
100
AcDbEntity
  8
0
100
AcDbBlockBegin
  2
*Paper_Space0
 70
     0
 10
0.0
 20
0.0
 30
0.0
  3
*Paper_Space0
  1

  0
ENDBLK
  5
25
330
23
100
AcDbEntity
  8
0
100
AcDbBlockEnd
  0
BLOCK
  5
43
330
41
100
AcDbEntity
  8
0
100
AcDbBlockBegin
  2
block 2
 70
     0
 10
0.0
 20
0.0
 30
0.0
  3
block 2
  1

  0
SPLINE
  5
45
330
41
100
AcDbEntity
  8
Layer 1
370
     0
100
AcDbSpline
210
0.0
220
0.0
230
1.0
 70
    11
 71
     3
 72
   317
 73
   313
 74
     0
 42
0.0000000001
 43
0.0000000001
 12
1.0
 22
0.0
 32
0.0
 13
1.0
 23
0.0
 33
0.0
 40
0.0
 40
0.0
 40
0.0
 40
0.0
 40
1.0
 40
1.0
 40
1.0
 40
2.0
 40
2.0
 40
2.0
 40
3.0
 40
3.0
 40
3.0
 40
4.0
 40
4.0
 40
4.0
 40
5.0
 40
5.0
 40
5.0
 40
6.0
 40
6.0
 40
6.0
 40
7.0
 40
7.0
 40
7.0
 40
8.0
 40
8.0
 40
8.0
 40
9.0
 40
9.0
 40
9.0
 40
10.0
 40
10.0
 40
10.0
 40
11.0
 40
11.0
 40
11.0
 40
12.0
 40
12.0
 40
12.0
 40
13.0
 40
13.0
 40
13.0
 40
14.0
 40
14.0
 40
14.0
 40
15.0
 40
15.0
 40
15.0
 40
16.0
 40
16.0
 40
16.0
 40
17.0
 40
17.0
 40
17.0
 40
18.0
 40
18.0
 40
18.0
 40
19.0
 40
19.0
 40
19.0
 40
20.0
 40
20.0
 40
20.0
 40
21.0
 40
21.0
 40
21.0
 40
22.0
 40
22.0
 40
22.0
 40
23.0
 40
23.0
 40
23.0
 40
24.0
 40
24.0
 40
24.0
 40
25.0
 40
25.0
 40
25.0
 40
26.0
 40
26.0
 40
26.0
 40
27.0
 40
27.0
 40
27.0
 40
28.0
 40
28.0
 40
28.0
 40
29.0
 40
29.0
 40
29.0
 40
30.0
 40
30.0
 40
30.0
 40
31.0
 40
31.0
 40
31.0
 40
32.0
 40
32.0
 40
32.0
 40
33.0
 40
33.0
 40
33.0
 40
34.0
 40
34.0
 40
34.0
 40
35.0
 40
35.0
 40
35.0
 40
36.0
 40
36.0
 40
36.0
 40
37.0
 40
37.0
 40
37.0
 40
38.0
 40
38.0
 40
38.0
 40
39.0
 40
39.0
 40
39.0
 40
40.0
 40
40.0
 40
40.0
 40
41.0
 40
41.0
 40
41.0
 40
42.0
 40
42.0
 40
42.0
 40
43.0
 40
43.0
 40
43.0
 40
44.0
 40
44.0
 40
44.0
 40
45.0
 40
45.0
 40
45.0
 40
46.0
 40
46.0
 40
46.0
 40
47.0
 40
47.0
 40
47.0
 40
48.0
 40
48.0
 40
48.0
 40
49.0
 40
49.0
 40
49.0
 40
50.0
 40
50.0
 40
50.0
 40
51.0
 40
51.0
 40
51.0
 40
52.0
 40
52.0
 40
52.0
 40
53.0
 40
53.0
 40
53.0
 40
54.0
 40
54.0
 40
54.0
 40
55.0
 40
55.0
 40
55.0
 40
56.0
 40
56.0
 40
56.0
 40
57.0
 40
57.0
 40
57.0
 40
58.0
 40
58.0
 40
58.0
 40
59.0
 40
59.0
 40
59.0
 40
60.0
 40
60.0
 40
60.0
 40
61.0
 40
61.0
 40
61.0
 40
62.0
 40
62.0
 40
62.0
 40
63.0
 40
63.0
 40
63.0
 40
64.0
 40
64.0
 40
64.0
 40
65.0
 40
65.0
 40
65.0
 40
66.0
 40
66.0
 40
66.0
 40
67.0
 40
67.0
 40
67.0
 40
68.0
 40
68.0
 40
68.0
 40
69.0
 40
69.0
 40
69.0
 40
70.0
 40
70.0
 40
70.0
 40
71.0
 40
71.0
 40
71.0
 40
72.0
 40
72.0
 40
72.0
 40
73.0
 40
73.0
 40
73.0
 40
74.0
 40
74.0
 40
74.0
 40
75.0
 40
75.0
 40
75.0
 40
76.0
 40
76.0
 40
76.0
 40
77.0
 40
77.0
 40
77.0
 40
78.0
 40
78.0
 40
78.0
 40
79.0
 40
79.0
 40
79.0
 40
80.0
 40
80.0
 40
80.0
 40
81.0
 40
81.0
 40
81.0
 40
82.0
 40
82.0
 40
82.0
 40
83.0
 40
83.0
 40
83.0
 40
84.0
 40
84.0
 40
84.0
 40
85.0
 40
85.0
 40
85.0
 40
86.0
 40
86.0
 40
86.0
 40
87.0
 40
87.0
 40
87.0
 40
88.0
 40
88.0
 40
88.0
 40
89.0
 40
89.0
 40
89.0
 40
90.0
 40
90.0
 40
90.0
 40
91.0
 40
91.0
 40
91.0
 40
92.0
 40
92.0
 40
92.0
 40
93.0
 40
93.0
 40
93.0
 40
94.0
 40
94.0
 40
94.0
 40
95.0
 40
95.0
 40
95.0
 40
96.0
 40
96.0
 40
96.0
 40
97.0
 40
97.0
 40
97.0
 40
98.0
 40
98.0
 40
98.0
 40
99.0
 40
99.0
 40
99.0
 40
100.0
 40
100.0
 40
100.0
 40
101.0
 40
101.0
 40
101.0
 40
102.0
 40
102.0
 40
102.0
 40
103.0
 40
103.0
 40
103.0
 40
104.0
 40
104.0
 40
104.0
 40
104.0
 10
3.921138588231441
 20
-6.385430249205733
 30
0.0
 10
4.300594116037473
 20
-6.385430249205733
 30
0.0
 10
4.678994142648801
 20
-6.385430249205733
 30
0.0
 10
5.05872860109053
 20
-6.385430249205733
 30
0.0
 10
5.05872860109053
 20
-6.246733160450149
 30
0.0
 10
5.05872860109053
 20
-6.109256774695394
 30
0.0
 10
5.05872860109053
 20
-5.971499627250447
 30
0.0
 10
5.095891276346606
 20
-5.971499627250447
 30
0.0
 10
5.131710771400776
 20
-5.971499627250447
 30
0.0
 10
5.169821729437987
 20
-5.971499627250447
 30
0.0
 10
5.169821729437987
 20
-6.109932230355853
 30
0.0
 10
5.169821729437987
 20
-6.247423671447627
 30
0.0
 10
5.169821729437987
 20
-6.385624340982859
 30
0.0
 10
5.550089228190068
 20
-6.385624340982859
 30
0.0
 10
5.928053056929103
 20
-6.385624340982859
 30
0.0
 10
6.306595905791507
 20
-6.385624340982859
 30
0.0
 10
6.306595905791507
 20
-6.145006689678515
 30
0.0
 10
6.306595905791507
 20
-5.905424804870361
 30
0.0
 10
6.306595905791507
 20
-5.664065576493006
 30
0.0
 10
6.167906548154948
 20
-5.664065576493006
 30
0.0
 10
6.030458238569205
 20
-5.664065576493006
 30
0.0
 10
5.892928955684397
 20
-5.664065576493006
 30
0.0
 10
5.892928955684397
 20
-5.62595238050028
 30
0.0
 10
5.892928955684397
 20
-5.589629752359264
 30
0.0
 10
5.892928955684397
 20
-5.550955643337677
 30
0.0
 10
6.031580471527958
 20
-5.550955643337677
 30
0.0
 10
6.169041395044713
 20
-5.550955643337677
 30
0.0
 10
6.306537312047491
 20
-5.550955643337677
 30
0.0
 10
6.306537312047491
 20
-5.30951483130976
 30
0.0
 10
6.306537312047491
 20
-5.070451948727459
 30
0.0
 10
6.306537312047491
 20
-4.831109525157962
 30
0.0
 10
5.927533037450758
 20
-4.831109525157962
 30
0.0
 10
5.549840204777903
 20
-4.831109525157962
 30
0.0
 10
5.169286858073128
 20
-4.831109525157962
 30
0.0
 10
5.169286858073128
 20
-4.969538669604857
 30
0.0
 10
5.169286858073128
 20
-5.107449015276416
 30
0.0
 10
5.169286858073128
 20
-5.245359564398478
 30
0.0
 10
5.130672563498567
 20
-5.245359564398478
 30
0.0
 10
5.094934448644456
 20
-5.245359564398478
 30
0.0
 10
5.059520430437058
 20
-5.245359564398478
 30
0.0
 10
5.059520430437058
 20
-4.930986020531842
 30
0.0
 10
5.059520430437058
 20
-4.617935311817114
 30
0.0
 10
5.059520430437058
 20
-4.30504736350248
 30
0.0
 10
5.09644873071698
 20
-4.30504736350248
 30
0.0
 10
5.13224604966663
 20
-4.30504736350248
 30
0.0
 10
5.169077304057989
 20
-4.30504736350248
 30
0.0
 10
5.169077304057989
 20
-4.443206529135725
 30
0.0
 10
5.169077304057989
 20
-4.580198702700145
 30
0.0
 10
5.169077304057989
 20
-4.717468993098274
 30
0.0
 10
5.54861909487608
 20
-4.717468993098274
 30
0.0
 10
5.927096025776462
 20
-4.717468993098274
 30
0.0
 10
6.306710651873598
 20
-4.717468993098274
 30
0.0
 10
6.306710651873598
 20
-4.47690505272596
 30
0.0
 10
6.306710651873598
 20
-4.237755195054837
 30
0.0
 10
6.306710651873598
 20
-3.997051585914177
 30
0.0
 10
6.168226779242155
 20
-3.997051585914177
 30
0.0
 10
6.030731676041379
 20
-3.997051585914177
 30
0.0
 10
5.892930786738904
 20
-3.997051585914177
 30
0.0
 10
5.892930786738904
 20
-3.959205622153389
 30
0.0
 10
5.892930786738904
 20
-3.922922768585156
 30
0.0
 10
5.892930786738904
 20
-3.884858705888228
 30
0.0
 10
6.031674872560024
 20
-3.884858705888228
 30
0.0
 10
6.169230197108832
 20
-3.884858705888228
 30
0.0
 10
6.306855101728703
 20
-3.884858705888228
 30
0.0
 10
6.306855101728703
 20
-3.643851345150854
 30
0.0
 10
6.306855101728703
 20
-3.404645742042703
 30
0.0
 10
6.306855101728703
 20
-3.164394403363846
 30
0.0
 10
5.927849199527978
 20
-3.164394403363846
 30
0.0
 10
5.549836339218396
 20
-3.164394403363846
 30
0.0
 10
5.168992668649921
 20
-3.164394403363846
 30
0.0
 10
5.168992668649921
 20
-3.303115041514818
 30
0.0
 10
5.168992668649921
 20
-3.441015062073486
 30
0.0
 10
5.168992668649921
 20
-3.578672823949129
 30
0.0
 10
5.130391598357884
 20
-3.578672823949129
 30
0.0
 10
5.094636393661769
 20
-3.578672823949129
 30
0.0
 10
5.05714494239746
 20
-3.578672823949129
 30
0.0
 10
5.05714494239746
 20
-3.439847256202698
 30
0.0
 10
5.05714494239746
 20
-3.302354390957425
 30
0.0
 10
5.05714494239746
 20
-3.164856948075908
 30
0.0
 10
4.676893312784387
 20
-3.164856948075908
 30
0.0
 10
4.298417399136509
 20
-3.164856948075908
 30
0.0
 10
3.920064369590717
 20
-3.164856948075908
 30
0.0
 10
3.920064369590717
 20
-3.405507049735029
 30
0.0
 10
3.920064369590717
 20
-3.644646327980139
 30
0.0
 10
3.920064369590717
 20
-3.885706891023296
 30
0.0
 10
4.058599816923939
 20
-3.885706891023296
 30
0.0
 10
4.196063487022444
 20
-3.885706891023296
 30
0.0
 10
4.334138424148616
 20
-3.885706891023296
 30
0.0
 10
4.334138424148616
 20
-4.062313623546212
 30
0.0
 10
4.334138424148616
 20
-4.236994493634825
 30
0.0
 10
4.334138424148616
 20
-4.41241795804894
 30
0.0
 10
4.297366373852785
 20
-4.41241795804894
 30
0.0
 10
4.261551558160136
 20
-4.41241795804894
 30
0.0
 10
4.223169197155736
 20
-4.41241795804894
 30
0.0
 10
4.223169197155736
 20
-4.27369391210209
 30
0.0
 10
4.223169197155736
 20
-4.135871660497097
 30
0.0
 10
4.223169197155736
 20
-3.998227936705967
 30
0.0
 10
3.981406322986105
 20
-3.998227936705967
 30
0.0
 10
3.742214961412957
 20
-3.998227936705967
 30
0.0
 10
3.501383381907708
 20
-3.998227936705967
 30
0.0
 10
3.501383381907708
 20
-4.13713447775145
 30
0.0
 10
3.501383381907708
 20
-4.275056318376262
 30
0.0
 10
3.501383381907708
 20
-4.412790475914713
 30
0.0
 10
3.463906985980417
 20
-4.412790475914713
 30
0.0
 10
3.428083218465745
 20
-4.412790475914713
 30
0.0
 10
3.392162099886743
 20
-4.412790475914713
 30
0.0
 10
3.392162099886743
 20
-4.236926235992036
 30
0.0
 10
3.392162099886743
 20
-4.062174768579881
 30
0.0
 10
3.392162099886743
 20
-3.885239666949726
 30
0.0
 10
3.530504269244854
 20
-3.885239666949726
 30
0.0
 10
3.667885847066549
 20
-3.885239666949726
 30
0.0
 10
3.80583454315739
 20
-3.885239666949726
 30
0.0
 10
3.80583454315739
 20
-3.643841986427851
 30
0.0
 10
3.80583454315739
 20
-3.404631907408695
 30
0.0
 10
3.80583454315739
 20
-3.164877700026914
 30
0.0
 10
3.564074110393752
 20
-3.164877700026914
 30
0.0
 10
3.323221015998115
 20
-3.164877700026914
 30
0.0
 10
3.081705893675033
 20
-3.164877700026914
 30
0.0
 10
3.081705893675033
 20
-3.266006534954398
 30
0.0
 10
3.081705893675033
 20
-3.366151635851098
 30
0.0
 10
3.081705893675033
 20
-3.468803755535747
 30
0.0
 10
3.222353665825936
 20
-3.468803755535747
 30
0.0
 10
3.361396518706505
 20
-3.468803755535747
 30
0.0
 10
3.500384439952035
 20
-3.468803755535747
 30
0.0
 10
3.500384439952035
 20
-3.507583455366911
 30
0.0
 10
3.500384439952035
 20
-3.543833553404612
 30
0.0
 10
3.500384439952035
 20
-3.580314974660988
 30
0.0
 10
3.361543918593851
 20
-3.580314974660988
 30
0.0
 10
3.224075721721722
 20
-3.580314974660988
 30
0.0
 10
3.08618322883155
 20
-3.580314974660988
 30
0.0
 10
3.08618322883155
 20
-3.960309849742885
 30
0.0
 10
3.08618322883155
 20
-4.338883012729828
 30
0.0
 10
3.08618322883155
 20
-4.717730630441464
 30
0.0
 10
3.327009772936928
 20
-4.717730630441464
 30
0.0
 10
3.566743686131304
 20
-4.717730630441464
 30
0.0
 10
3.807472523133987
 20
-4.717730630441464
 30
0.0
 10
3.807472523133987
 20
-4.579618665324258
 30
0.0
 10
3.807472523133987
 20
-4.442652940324844
 30
0.0
 10
3.807472523133987
 20
-4.304812785075834
 30
0.0
 10
3.84480487610718
 20
-4.304812785075834
 30
0.0
 10
3.881138694025695
 20
-4.304812785075834
 30
0.0
 10
3.920829953822742
 20
-4.304812785075834
 30
0.0
 10
3.920829953822742
 20
-4.443031154804607
 30
0.0
 10
3.920829953822742
 20
-4.580330335173749
 30
0.0
 10
3.920829953822742
 20
-4.717764810125471
 30
0.0
 10
4.162233737859613
 20
-4.717764810125471
 30
0.0
 10
4.400277536886733
 20
-4.717764810125471
 30
0.0
 10
4.639750168776319
 20
-4.717764810125471
 30
0.0
 10
4.639750168776319
 20
-4.338698890027205
 30
0.0
 10
4.639750168776319
 20
-3.960751235602932
 30
0.0
 10
4.639750168776319
 20
-3.581031120421471
 30
0.0
 10
4.501523864478056
 20
-3.581031120421471
 30
0.0
 10
4.364068841025806
 20
-3.581031120421471
 30
0.0
 10
4.225867968040057
 20
-3.581031120421471
 30
0.0
 10
4.225867968040057
 20
-3.543441606016106
 30
0.0
 10
4.225867968040057
 20
-3.507623840291191
 30
0.0
 10
4.225867968040057
 20
-3.470917707957419
 30
0.0
 10
4.40130313085793
 20
-3.470917707957419
 30
0.0
 10
4.57593649525476
 20
-3.470917707957419
 30
0.0
 10
4.753604323861143
 20
-3.470917707957419
 30
0.0
 10
4.753604323861143
 20
-3.606975331649475
 30
0.0
 10
4.753604323861143
 20
-3.742130550648173
 30
0.0
 10
4.753604323861143
 20
-3.879736737822024
 30
0.0
 10
4.993987193288338
 20
-3.879736737822024
 30
0.0
 10
5.231341702021003
 20
-3.879736737822024
 30
0.0
 10
5.472563194409759
 20
-3.879736737822024
 30
0.0
 10
5.472563194409759
 20
-3.743413000875787
 30
0.0
 10
5.472563194409759
 20
-3.607222829182888
 30
0.0
 10
5.472563194409759
 20
-3.471086063246275
 30
0.0
 10
5.651112167132232
 20
-3.471086063246275
 30
0.0
 10
5.825799852812603
 20
-3.471086063246275
 30
0.0
 10
6.000676340557106
 20
-3.471086063246275
 30
0.0
 10
6.000676340557106
 20
-3.507958109462922
 30
0.0
 10
6.000676340557106
 20
-3.54372674189205
 30
0.0
 10
6.000676340557106
 20
-3.580766634771294
 30
0.0
 10
5.861479984274183
 20
-3.580766634771294
 30
0.0
 10
5.723359067334981
 20
-3.580766634771294
 30
0.0
 10
5.584494945718789
 20
-3.580766634771294
 30
0.0
 10
5.584494945718789
 20
-3.822314360037025
 30
0.0
 10
5.584494945718789
 20
-4.062572209131885
 30
0.0
 10
5.584494945718789
 20
-4.303871216161206
 30
0.0
 10
5.723704322833719
 20
-4.303871216161206
 30
0.0
 10
5.861836836451428
 20
-4.303871216161206
 30
0.0
 10
6.000859446007224
 20
-4.303871216161206
 30
0.0
 10
6.000859446007224
 20
-4.34068843246804
 30
0.0
 10
6.000859446007224
 20
-4.376466627070688
 30
0.0
 10
6.000859446007224
 20
-4.41303075095536
 30
0.0
 10
5.825493252908902
 20
-4.41303075095536
 30
0.0
 10
5.650830591640051
 20
-4.41303075095536
 30
0.0
 10
5.474161094637844
 20
-4.41303075095536
 30
0.0
 10
5.474161094637844
 20
-4.275338199044199
 30
0.0
 10
5.474161094637844
 20
-4.138500342684122
 30
0.0
 10
5.474161094637844
 20
-4.002760203497524
 30
0.0
 10
5.233557684868489
 20
-4.002760203497524
 30
0.0
 10
4.994966197095019
 20
-4.002760203497524
 30
0.0
 10
4.756806634733303
 20
-4.002760203497524
 30
0.0
 10
4.756806634733303
 20
-4.520832457111598
 30
0.0
 10
4.756806634733303
 20
-5.036711107433184
 30
0.0
 10
4.756806634733303
 20
-5.553508540213392
 30
0.0
 10
4.996537241857064
 20
-5.553508540213392
 30
0.0
 10
5.234553371616167
 20
-5.553508540213392
 30
0.0
 10
5.474952313632873
 20
-5.553508540213392
 30
0.0
 10
5.474952313632873
 20
-5.414232838235421
 30
0.0
 10
5.474952313632873
 20
-5.275817324972018
 30
0.0
 10
5.474952313632873
 20
-5.137511674978706
 30
0.0
 10
5.65157989983206
 20
-5.137511674978706
 30
0.0
 10
5.825823453070623
 20
-5.137511674978706
 30
0.0
 10
6.000473703858966
 20
-5.137511674978706
 30
0.0
 10
6.000473703858966
 20
-5.174614535787732
 30
0.0
 10
6.000473703858966
 20
-5.210850900916689
 30
0.0
 10
6.000473703858966
 20
-5.248469915644566
 30
0.0
 10
5.861631554896777
 20
-5.248469915644566
 30
0.0
 10
5.724069313030959
 20
-5.248469915644566
 30
0.0
 10
5.584968375032607
 20
-5.248469915644566
 30
0.0
 10
5.584968375032607
 20
-5.489535564950225
 30
0.0
 10
5.584968375032607
 20
-5.729199236859446
 30
0.0
 10
5.584968375032607
 20
-5.969820753723297
 30
0.0
 10
5.723974708548401
 20
-5.969820753723297
 30
0.0
 10
5.862073042482077
 20
-5.969820753723297
 30
0.0
 10
6.000634836655081
 20
-5.969820753723297
 30
0.0
 10
6.000634836655081
 20
-6.00704771933743
 30
0.0
 10
6.000634836655081
 20
-6.043310329580891
 30
0.0
 10
6.000634836655081
 20
-6.079397565493233
 30
0.0
 10
5.824831224981456
 20
-6.079397565493233
 30
0.0
 10
5.650153101474593
 20
-6.079397565493233
 30
0.0
 10
5.474047772709266
 20
-6.079397565493233
 30
0.0
 10
5.474047772709266
 20
-5.940212398987821
 30
0.0
 10
5.474047772709266
 20
-5.802190969343201
 30
0.0
 10
5.474047772709266
 20
-5.664280216770635
 30
0.0
 10
5.232846421920006
 20
-5.664280216770635
 30
0.0
 10
4.993079397156735
 20
-5.664280216770635
 30
0.0
 10
4.751816604316432
 20
-5.664280216770635
 30
0.0
 10
4.751816604316432
 20
-5.803179128422357
 30
0.0
 10
4.751816604316432
 20
-5.941158240362963
 30
0.0
 10
4.751816604316432
 20
-6.079713727570454
 30
0.0
 10
4.575613619311045
 20
-6.079713727570454
 30
0.0
 10
4.400909657590672
 20
-6.079713727570454
 30
0.0
 10
4.225769701448485
 20
-6.079713727570454
 30
0.0
 10
4.225769701448485
 20
-6.042576280176389
 30
0.0
 10
4.225769701448485
 20
-6.006302683605908
 30
0.0
 10
4.225769701448485
 20
-5.968182163395189
 30
0.0
 10
4.365046624129478
 20
-5.968182163395189
 30
0.0
 10
4.503078429749595
 20
-5.968182163395189
 30
0.0
 10
4.640879115601579
 20
-5.968182163395189
 30
0.0
 10
4.640879115601579
 20
-5.587807853130522
 30
0.0
 10
4.640879115601579
 20
-5.209300404655147
 30
0.0
 10
4.640879115601579
 20
-4.830992744570873
 30
0.0
 10
4.400243153752209
 20
-4.830992744570873
 30
0.0
 10
4.161015883165797
 20
-4.830992744570873
 30
0.0
 10
3.918946714268208
 20
-4.830992744570873
 30
0.0
 10
3.918946714268208
 20
-4.969839979795564
 30
0.0
 10
3.918946714268208
 20
-5.107732625273607
 30
0.0
 10
3.918946714268208
 20
-5.24530544656544
 30
0.0
 10
3.880341981867155
 20
-5.24530544656544
 30
0.0
 10
3.844598679025289
 20
-5.24530544656544
 30
0.0
 10
3.807496225117259
 20
-5.24530544656544
 30
0.0
 10
3.807496225117259
 20
-5.106457194088256
 30
0.0
 10
3.807496225117259
 20
-4.96897877382849
 30
0.0
 10
3.807496225117259
 20
-4.831781318709406
 30
0.0
 10
3.56475424541572
 20
-4.831781318709406
 30
0.0
 10
3.323414599148994
 20
-4.831781318709406
 30
0.0
 10
3.082235271876395
 20
-4.831781318709406
 30
0.0
 10
3.082235271876395
 20
-5.211076324070846
 30
0.0
 10
3.082235271876395
 20
-5.589157340297953
 30
0.0
 10
3.082235271876395
 20
-5.969303582551952
 30
0.0
 10
3.222324267228664
 20
-5.969303582551952
 30
0.0
 10
3.361398858387247
 20
-5.969303582551952
 30
0.0
 10
3.50052349836887
 20
-5.969303582551952
 30
0.0
 10
3.50052349836887
 20
-6.007697947135865
 30
0.0
 10
3.50052349836887
 20
-6.044013861410374
 30
0.0
 10
3.50052349836887
 20
-6.081983421349983
 30
0.0
 10
3.360727980363044
 20
-6.081983421349983
 30
0.0
 10
3.222162574943682
 20
-6.081983421349983
 30
0.0
 10
3.083813640856457
 20
-6.081983421349983
 30
0.0
 10
3.083813640856457
 20
-6.184373547653068
 30
0.0
 10
3.083813640856457
 20
-6.285077069310015
 30
0.0
 10
3.083813640856457
 20
-6.385740307767946
 30
0.0
 10
3.32512465146528
 20
-6.385740307767946
 30
0.0
 10
3.564928704219584
 20
-6.385740307767946
 30
0.0
 10
3.806843352462313
 20
-6.385740307767946
 30
0.0
 10
3.806843352462313
 20
-6.145232112832673
 30
0.0
 10
3.806843352462313
 20
-5.905638224445005
 30
0.0
 10
3.806843352462313
 20
-5.664222436828595
 30
0.0
 10
3.668714195777865
 20
-5.664222436828595
 30
0.0
 10
3.53071087322774
 20
-5.664222436828595
 30
0.0
 10
3.392119985633232
 20
-5.664222436828595
 30
0.0
 10
3.392119985633232
 20
-5.487728110707015
 30
0.0
 10
3.392119985633232
 20
-5.31305059755165
 30
0.0
 10
3.392119985633232
 20
-5.137641069496794
 30
0.0
 10
3.428805671191741
 20
-5.137641069496794
 30
0.0
 10
3.464550194736603
 20
-5.137641069496794
 30
0.0
 10
3.502335326797846
 20
-5.137641069496794
 30
0.0
 10
3.502335326797846
 20
-5.276507632518991
 30
0.0
 10
3.502335326797846
 20
-5.414405364259538
 30
0.0
 10
3.502335326797846
 20
-5.552311030569588
 30
0.0
 10
3.744113052853991
 20
-5.552311030569588
 30
0.0
 10
3.983844575504993
 20
-5.552311030569588
 30
0.0
 10
4.22537866958722
 20
-5.552311030569588
 30
0.0
 10
4.22537866958722
 20
-5.413389535912352
 30
0.0
 10
4.22537866958722
 20
-5.275472476374286
 30
0.0
 10
4.22537866958722
 20
-5.138063229284575
 30
0.0
 10
4.262935631912569
 20
-5.138063229284575
 30
0.0
 10
4.298672729514187
 20
-5.138063229284575
 30
0.0
 10
4.333722164425327
 20
-5.138063229284575
 30
0.0
 10
4.333722164425327
 20
-5.314110981558366
 30
0.0
 10
4.333722164425327
 20
-5.488750856371198
 30
0.0
 10
4.333722164425327
 20
-5.664545312772323
 30
0.0
 10
4.195416514432003
 20
-5.664545312772323
 30
0.0
 10
4.058477644898605
 20
-5.664545312772323
 30
0.0
 10
3.921138588231441
 20
-5.664545312772323
 30
0.0
 10
3.921138588231441
 20
-5.905497640149406
 30
0.0
 10
3.921138588231441
 20
-6.145251237179663
 30
0.0
 10
3.921138588231441
 20
-6.385430249205733
 30
0.0
  0
SPLINE
  5
46
330
41
100
AcDbEntity
  8
Layer 1
370
     0
100
AcDbSpline
210
0.0
220
0.0
230
1.0
 70
    11
 71
     3
 72
   317
 73
   313
 74
     0
 42
0.0000000001
 43
0.0000000001
 12
1.0
 22
0.0
 32
0.0
 13
1.0
 23
0.0
 33
0.0
 40
0.0
 40
0.0
 40
0.0
 40
0.0
 40
1.0
 40
1.0
 40
1.0
 40
2.0
 40
2.0
 40
2.0
 40
3.0
 40
3.0
 40
3.0
 40
4.0
 40
4.0
 40
4.0
 40
5.0
 40
5.0
 40
5.0
 40
6.0
 40
6.0
 40
6.0
 40
7.0
 40
7.0
 40
7.0
 40
8.0
 40
8.0
 40
8.0
 40
9.0
 40
9.0
 40
9.0
 40
10.0
 40
10.0
 40
10.0
 40
11.0
 40
11.0
 40
11.0
 40
12.0
 40
12.0
 40
12.0
 40
13.0
 40
13.0
 40
13.0
 40
14.0
 40
14.0
 40
14.0
 40
15.0
 40
15.0
 40
15.0
 40
16.0
 40
16.0
 40
16.0
 40
17.0
 40
17.0
 40
17.0
 40
18.0
 40
18.0
 40
18.0
 40
19.0
 40
19.0
 40
19.0
 40
20.0
 40
20.0
 40
20.0
 40
21.0
 40
21.0
 40
21.0
 40
22.0
 40
22.0
 40
22.0
 40
23.0
 40
23.0
 40
23.0
 40
24.0
 40
24.0
 40
24.0
 40
25.0
 40
25.0
 40
25.0
 40
26.0
 40
26.0
 40
26.0
 40
27.0
 40
27.0
 40
27.0
 40
28.0
 40
28.0
 40
28.0
 40
29.0
 40
29.0
 40
29.0
 40
30.0
 40
30.0
 40
30.0
 40
31.0
 40
31.0
 40
31.0
 40
32.0
 40
32.0
 40
32.0
 40
33.0
 40
33.0
 40
33.0
 40
34.0
 40
34.0
 40
34.0
 40
35.0
 40
35.0
 40
35.0
 40
36.0
 40
36.0
 40
36.0
 40
37.0
 40
37.0
 40
37.0
 40
38.0
 40
38.0
 40
38.0
 40
39.0
 40
39.0
 40
39.0
 40
40.0
 40
40.0
 40
40.0
 40
41.0
 40
41.0
 40
41.0
 40
42.0
 40
42.0
 40
42.0
 40
43.0
 40
43.0
 40
43.0
 40
44.0
 40
44.0
 40
44.0
 40
45.0
 40
45.0
 40
45.0
 40
46.0
 40
46.0
 40
46.0
 40
47.0
 40
47.0
 40
47.0
 40
48.0
 40
48.0
 40
48.0
 40
49.0
 40
49.0
 40
49.0
 40
50.0
 40
50.0
 40
50.0
 40
51.0
 40
51.0
 40
51.0
 40
52.0
 40
52.0
 40
52.0
 40
53.0
 40
53.0
 40
53.0
 40
54.0
 40
54.0
 40
54.0
 40
55.0
 40
55.0
 40
55.0
 40
56.0
 40
56.0
 40
56.0
 40
57.0
 40
57.0
 40
57.0
 40
58.0
 40
58.0
 40
58.0
 40
59.0
 40
59.0
 40
59.0
 40
60.0
 40
60.0
 40
60.0
 40
61.0
 40
61.0
 40
61.0
 40
62.0
 40
62.0
 40
62.0
 40
63.0
 40
63.0
 40
63.0
 40
64.0
 40
64.0
 40
64.0
 40
65.0
 40
65.0
 40
65.0
 40
66.0
 40
66.0
 40
66.0
 40
67.0
 40
67.0
 40
67.0
 40
68.0
 40
68.0
 40
68.0
 40
69.0
 40
69.0
 40
69.0
 40
70.0
 40
70.0
 40
70.0
 40
71.0
 40
71.0
 40
71.0
 40
72.0
 40
72.0
 40
72.0
 40
73.0
 40
73.0
 40
73.0
 40
74.0
 40
74.0
 40
74.0
 40
75.0
 40
75.0
 40
75.0
 40
76.0
 40
76.0
 40
76.0
 40
77.0
 40
77.0
 40
77.0
 40
78.0
 40
78.0
 40
78.0
 40
79.0
 40
79.0
 40
79.0
 40
80.0
 40
80.0
 40
80.0
 40
81.0
 40
81.0
 40
81.0
 40
82.0
 40
82.0
 40
82.0
 40
83.0
 40
83.0
 40
83.0
 40
84.0
 40
84.0
 40
84.0
 40
85.0
 40
85.0
 40
85.0
 40
86.0
 40
86.0
 40
86.0
 40
87.0
 40
87.0
 40
87.0
 40
88.0
 40
88.0
 40
88.0
 40
89.0
 40
89.0
 40
89.0
 40
90.0
 40
90.0
 40
90.0
 40
91.0
 40
91.0
 40
91.0
 40
92.0
 40
92.0
 40
92.0
 40
93.0
 40
93.0
 40
93.0
 40
94.0
 40
94.0
 40
94.0
 40
95.0
 40
95.0
 40
95.0
 40
96.0
 40
96.0
 40
96.0
 40
97.0
 40
97.0
 40
97.0
 40
98.0
 40
98.0
 40
98.0
 40
99.0
 40
99.0
 40
99.0
 40
100.0
 40
100.0
 40
100.0
 40
101.0
 40
101.0
 40
101.0
 40
102.0
 40
102.0
 40
102.0
 40
103.0
 40
103.0
 40
103.0
 40
104.0
 40
104.0
 40
104.0
 40
104.0
 10
3.921138588231441
 20
-6.385430249205733
 30
0.0
 10
3.921138588231441
 20
-6.145251237179663
 30
0.0
 10
3.921138588231441
 20
-5.905497640149406
 30
0.0
 10
3.921138588231441
 20
-5.664545312772323
 30
0.0
 10
4.058477644898605
 20
-5.664545312772323
 30
0.0
 10
4.195416514432003
 20
-5.664545312772323
 30
0.0
 10
4.333722164425327
 20
-5.664545312772323
 30
0.0
 10
4.333722164425327
 20
-5.488750856371198
 30
0.0
 10
4.333722164425327
 20
-5.314110981558366
 30
0.0
 10
4.333722164425327
 20
-5.138063229284575
 30
0.0
 10
4.298672729514187
 20
-5.138063229284575
 30
0.0
 10
4.262935631912569
 20
-5.138063229284575
 30
0.0
 10
4.22537866958722
 20
-5.138063229284575
 30
0.0
 10
4.22537866958722
 20
-5.275472476374286
 30
0.0
 10
4.22537866958722
 20
-5.413389535912352
 30
0.0
 10
4.22537866958722
 20
-5.552311030569588
 30
0.0
 10
3.983844575504993
 20
-5.552311030569588
 30
0.0
 10
3.744113052853991
 20
-5.552311030569588
 30
0.0
 10
3.502335326797846
 20
-5.552311030569588
 30
0.0
 10
3.502335326797846
 20
-5.414405364259538
 30
0.0
 10
3.502335326797846
 20
-5.276507632518991
 30
0.0
 10
3.502335326797846
 20
-5.137641069496794
 30
0.0
 10
3.464550194736603
 20
-5.137641069496794
 30
0.0
 10
3.428805671191741
 20
-5.137641069496794
 30
0.0
 10
3.392119985633232
 20
-5.137641069496794
 30
0.0
 10
3.392119985633232
 20
-5.31305059755165
 30
0.0
 10
3.392119985633232
 20
-5.487728110707015
 30
0.0
 10
3.392119985633232
 20
-5.664222436828595
 30
0.0
 10
3.53071087322774
 20
-5.664222436828595
 30
0.0
 10
3.668714195777865
 20
-5.664222436828595
 30
0.0
 10
3.806843352462313
 20
-5.664222436828595
 30
0.0
 10
3.806843352462313
 20
-5.905638224445005
 30
0.0
 10
3.806843352462313
 20
-6.145232112832673
 30
0.0
 10
3.806843352462313
 20
-6.385740307767946
 30
0.0
 10
3.564928704219584
 20
-6.385740307767946
 30
0.0
 10
3.32512465146528
 20
-6.385740307767946
 30
0.0
 10
3.083813640856457
 20
-6.385740307767946
 30
0.0
 10
3.083813640856457
 20
-6.285077069310015
 30
0.0
 10
3.083813640856457
 20
-6.184373547653068
 30
0.0
 10
3.083813640856457
 20
-6.081983421349983
 30
0.0
 10
3.222162574943682
 20
-6.081983421349983
 30
0.0
 10
3.360727980363044
 20
-6.081983421349983
 30
0.0
 10
3.50052349836887
 20
-6.081983421349983
 30
0.0
 10
3.50052349836887
 20
-6.044013861410374
 30
0.0
 10
3.50052349836887
 20
-6.007697947135865
 30
0.0
 10
3.50052349836887
 20
-5.969303582551952
 30
0.0
 10
3.361398858387247
 20
-5.969303582551952
 30
0.0
 10
3.222324267228664
 20
-5.969303582551952
 30
0.0
 10
3.082235271876395
 20
-5.969303582551952
 30
0.0
 10
3.082235271876395
 20
-5.589157340297953
 30
0.0
 10
3.082235271876395
 20
-5.211076324070846
 30
0.0
 10
3.082235271876395
 20
-4.831781318709406
 30
0.0
 10
3.323414599148994
 20
-4.831781318709406
 30
0.0
 10
3.56475424541572
 20
-4.831781318709406
 30
0.0
 10
3.807496225117259
 20
-4.831781318709406
 30
0.0
 10
3.807496225117259
 20
-4.96897877382849
 30
0.0
 10
3.807496225117259
 20
-5.106457194088256
 30
0.0
 10
3.807496225117259
 20
-5.24530544656544
 30
0.0
 10
3.844598679025289
 20
-5.24530544656544
 30
0.0
 10
3.880341981867155
 20
-5.24530544656544
 30
0.0
 10
3.918946714268208
 20
-5.24530544656544
 30
0.0
 10
3.918946714268208
 20
-5.107732625273607
 30
0.0
 10
3.918946714268208
 20
-4.969839979795564
 30
0.0
 10
3.918946714268208
 20
-4.830992744570873
 30
0.0
 10
4.161015883165797
 20
-4.830992744570873
 30
0.0
 10
4.400243153752209
 20
-4.830992744570873
 30
0.0
 10
4.640879115601579
 20
-4.830992744570873
 30
0.0
 10
4.640879115601579
 20
-5.209300404655147
 30
0.0
 10
4.640879115601579
 20
-5.587807853130522
 30
0.0
 10
4.640879115601579
 20
-5.968182163395189
 30
0.0
 10
4.503078429749595
 20
-5.968182163395189
 30
0.0
 10
4.365046624129478
 20
-5.968182163395189
 30
0.0
 10
4.225769701448485
 20
-5.968182163395189
 30
0.0
 10
4.225769701448485
 20
-6.006302683605908
 30
0.0
 10
4.225769701448485
 20
-6.042576280176389
 30
0.0
 10
4.225769701448485
 20
-6.079713727570454
 30
0.0
 10
4.400909657590672
 20
-6.079713727570454
 30
0.0
 10
4.575613619311045
 20
-6.079713727570454
 30
0.0
 10
4.751816604316432
 20
-6.079713727570454
 30
0.0
 10
4.751816604316432
 20
-5.941158240362963
 30
0.0
 10
4.751816604316432
 20
-5.803179128422357
 30
0.0
 10
4.751816604316432
 20
-5.664280216770635
 30
0.0
 10
4.993079397156735
 20
-5.664280216770635
 30
0.0
 10
5.232846421920006
 20
-5.664280216770635
 30
0.0
 10
5.474047772709266
 20
-5.664280216770635
 30
0.0
 10
5.474047772709266
 20
-5.802190969343201
 30
0.0
 10
5.474047772709266
 20
-5.940212398987821
 30
0.0
 10
5.474047772709266
 20
-6.079397565493233
 30
0.0
 10
5.650153101474593
 20
-6.079397565493233
 30
0.0
 10
5.824831224981456
 20
-6.079397565493233
 30
0.0
 10
6.000634836655081
 20
-6.079397565493233
 30
0.0
 10
6.000634836655081
 20
-6.043310329580891
 30
0.0
 10
6.000634836655081
 20
-6.00704771933743
 30
0.0
 10
6.000634836655081
 20
-5.969820753723297
 30
0.0
 10
5.862073042482077
 20
-5.969820753723297
 30
0.0
 10
5.723974708548401
 20
-5.969820753723297
 30
0.0
 10
5.584968375032607
 20
-5.969820753723297
 30
0.0
 10
5.584968375032607
 20
-5.729199236859446
 30
0.0
 10
5.584968375032607
 20
-5.489535564950225
 30
0.0
 10
5.584968375032607
 20
-5.248469915644566
 30
0.0
 10
5.724069313030959
 20
-5.248469915644566
 30
0.0
 10
5.861631554896777
 20
-5.248469915644566
 30
0.0
 10
6.000473703858966
 20
-5.248469915644566
 30
0.0
 10
6.000473703858966
 20
-5.210850900916689
 30
0.0
 10
6.000473703858966
 20
-5.174614535787732
 30
0.0
 10
6.000473703858966
 20
-5.137511674978706
 30
0.0
 10
5.825823453070623
 20
-5.137511674978706
 30
0.0
 10
5.65157989983206
 20
-5.137511674978706
 30
0.0
 10
5.474952313632873
 20
-5.137511674978706
 30
0.0
 10
5.474952313632873
 20
-5.275817324972018
 30
0.0
 10
5.474952313632873
 20
-5.414232838235421
 30
0.0
 10
5.474952313632873
 20
-5.553508540213392
 30
0.0
 10
5.234553371616167
 20
-5.553508540213392
 30
0.0
 10
4.996537241857064
 20
-5.553508540213392
 30
0.0
 10
4.756806634733303
 20
-5.553508540213392
 30
0.0
 10
4.756806634733303
 20
-5.036711107433184
 30
0.0
 10
4.756806634733303
 20
-4.520832457111598
 30
0.0
 10
4.756806634733303
 20
-4.002760203497524
 30
0.0
 10
4.994966197095019
 20
-4.002760203497524
 30
0.0
 10
5.233557684868489
 20
-4.002760203497524
 30
0.0
 10
5.474161094637844
 20
-4.002760203497524
 30
0.0
 10
5.474161094637844
 20
-4.138500342684122
 30
0.0
 10
5.474161094637844
 20
-4.275338199044199
 30
0.0
 10
5.474161094637844
 20
-4.41303075095536
 30
0.0
 10
5.650830591640051
 20
-4.41303075095536
 30
0.0
 10
5.825493252908902
 20
-4.41303075095536
 30
0.0
 10
6.000859446007224
 20
-4.41303075095536
 30
0.0
 10
6.000859446007224
 20
-4.376466627070688
 30
0.0
 10
6.000859446007224
 20
-4.34068843246804
 30
0.0
 10
6.000859446007224
 20
-4.303871216161206
 30
0.0
 10
5.861836836451428
 20
-4.303871216161206
 30
0.0
 10
5.723704322833719
 20
-4.303871216161206
 30
0.0
 10
5.584494945718789
 20
-4.303871216161206
 30
0.0
 10
5.584494945718789
 20
-4.062572209131885
 30
0.0
 10
5.584494945718789
 20
-3.822314360037025
 30
0.0
 10
5.584494945718789
 20
-3.580766634771294
 30
0.0
 10
5.723359067334981
 20
-3.580766634771294
 30
0.0
 10
5.861479984274183
 20
-3.580766634771294
 30
0.0
 10
6.000676340557106
 20
-3.580766634771294
 30
0.0
 10
6.000676340557106
 20
-3.54372674189205
 30
0.0
 10
6.000676340557106
 20
-3.507958109462922
 30
0.0
 10
6.000676340557106
 20
-3.471086063246275
 30
0.0
 10
5.825799852812603
 20
-3.471086063246275
 30
0.0
 10
5.651112167132232
 20
-3.471086063246275
 30
0.0
 10
5.472563194409759
 20
-3.471086063246275
 30
0.0
 10
5.472563194409759
 20
-3.607222829182888
 30
0.0
 10
5.472563194409759
 20
-3.743413000875787
 30
0.0
 10
5.472563194409759
 20
-3.879736737822024
 30
0.0
 10
5.231341702021003
 20
-3.879736737822024
 30
0.0
 10
4.993987193288338
 20
-3.879736737822024
 30
0.0
 10
4.753604323861143
 20
-3.879736737822024
 30
0.0
 10
4.753604323861143
 20
-3.742130550648173
 30
0.0
 10
4.753604323861143
 20
-3.606975331649475
 30
0.0
 10
4.753604323861143
 20
-3.470917707957419
 30
0.0
 10
4.57593649525476
 20
-3.470917707957419
 30
0.0
 10
4.40130313085793
 20
-3.470917707957419
 30
0.0
 10
4.225867968040057
 20
-3.470917707957419
 30
0.0
 10
4.225867968040057
 20
-3.507623840291191
 30
0.0
 10
4.225867968040057
 20
-3.543441606016106
 30
0.0
 10
4.225867968040057
 20
-3.581031120421471
 30
0.0
 10
4.364068841025806
 20
-3.581031120421471
 30
0.0
 10
4.501523864478056
 20
-3.581031120421471
 30
0.0
 10
4.639750168776319
 20
-3.581031120421471
 30
0.0
 10
4.639750168776319
 20
-3.960751235602932
 30
0.0
 10
4.639750168776319
 20
-4.338698890027205
 30
0.0
 10
4.639750168776319
 20
-4.717764810125471
 30
0.0
 10
4.400277536886733
 20
-4.717764810125471
 30
0.0
 10
4.162233737859613
 20
-4.717764810125471
 30
0.0
 10
3.920829953822742
 20
-4.717764810125471
 30
0.0
 10
3.920829953822742
 20
-4.580330335173749
 30
0.0
 10
3.920829953822742
 20
-4.443031154804607
 30
0.0
 10
3.920829953822742
 20
-4.304812785075834
 30
0.0
 10
3.881138694025695
 20
-4.304812785075834
 30
0.0
 10
3.84480487610718
 20
-4.304812785075834
 30
0.0
 10
3.807472523133987
 20
-4.304812785075834
 30
0.0
 10
3.807472523133987
 20
-4.442652940324844
 30
0.0
 10
3.807472523133987
 20
-4.579618665324258
 30
0.0
 10
3.807472523133987
 20
-4.717730630441464
 30
0.0
 10
3.566743686131304
 20
-4.717730630441464
 30
0.0
 10
3.327009772936928
 20
-4.717730630441464
 30
0.0
 10
3.08618322883155
 20
-4.717730630441464
 30
0.0
 10
3.08618322883155
 20
-4.338883012729828
 30
0.0
 10
3.08618322883155
 20
-3.960309849742885
 30
0.0
 10
3.08618322883155
 20
-3.580314974660988
 30
0.0
 10
3.224075721721722
 20
-3.580314974660988
 30
0.0
 10
3.361543918593851
 20
-3.580314974660988
 30
0.0
 10
3.500384439952035
 20
-3.580314974660988
 30
0.0
 10
3.500384439952035
 20
-3.543833553404612
 30
0.0
 10
3.500384439952035
 20
-3.507583455366911
 30
0.0
 10
3.500384439952035
 20
-3.468803755535747
 30
0.0
 10
3.361396518706505
 20
-3.468803755535747
 30
0.0
 10
3.222353665825936
 20
-3.468803755535747
 30
0.0
 10
3.081705893675033
 20
-3.468803755535747
 30
0.0
 10
3.081705893675033
 20
-3.366151635851098
 30
0.0
 10
3.081705893675033
 20
-3.266006534954398
 30
0.0
 10
3.081705893675033
 20
-3.164877700026914
 30
0.0
 10
3.323221015998115
 20
-3.164877700026914
 30
0.0
 10
3.564074110393752
 20
-3.164877700026914
 30
0.0
 10
3.80583454315739
 20
-3.164877700026914
 30
0.0
 10
3.80583454315739
 20
-3.404631907408695
 30
0.0
 10
3.80583454315739
 20
-3.643841986427851
 30
0.0
 10
3.80583454315739
 20
-3.885239666949726
 30
0.0
 10
3.667885847066549
 20
-3.885239666949726
 30
0.0
 10
3.530504269244854
 20
-3.885239666949726
 30
0.0
 10
3.392162099886743
 20
-3.885239666949726
 30
0.0
 10
3.392162099886743
 20
-4.062174768579881
 30
0.0
 10
3.392162099886743
 20
-4.236926235992036
 30
0.0
 10
3.392162099886743
 20
-4.412790475914713
 30
0.0
 10
3.428083218465745
 20
-4.412790475914713
 30
0.0
 10
3.463906985980417
 20
-4.412790475914713
 30
0.0
 10
3.501383381907708
 20
-4.412790475914713
 30
0.0
 10
3.501383381907708
 20
-4.275056318376262
 30
0.0
 10
3.501383381907708
 20
-4.13713447775145
 30
0.0
 10
3.501383381907708
 20
-3.998227936705967
 30
0.0
 10
3.742214961412957
 20
-3.998227936705967
 30
0.0
 10
3.981406322986105
 20
-3.998227936705967
 30
0.0
 10
4.223169197155736
 20
-3.998227936705967
 30
0.0
 10
4.223169197155736
 20
-4.135871660497097
 30
0.0
 10
4.223169197155736
 20
-4.27369391210209
 30
0.0
 10
4.223169197155736
 20
-4.41241795804894
 30
0.0
 10
4.261551558160136
 20
-4.41241795804894
 30
0.0
 10
4.297366373852785
 20
-4.41241795804894
 30
0.0
 10
4.334138424148616
 20
-4.41241795804894
 30
0.0
 10
4.334138424148616
 20
-4.236994493634825
 30
0.0
 10
4.334138424148616
 20
-4.062313623546212
 30
0.0
 10
4.334138424148616
 20
-3.885706891023296
 30
0.0
 10
4.196063487022444
 20
-3.885706891023296
 30
0.0
 10
4.058599816923939
 20
-3.885706891023296
 30
0.0
 10
3.920064369590717
 20
-3.885706891023296
 30
0.0
 10
3.920064369590717
 20
-3.644646327980139
 30
0.0
 10
3.920064369590717
 20
-3.405507049735029
 30
0.0
 10
3.920064369590717
 20
-3.164856948075908
 30
0.0
 10
4.298417399136509
 20
-3.164856948075908
 30
0.0
 10
4.676893312784387
 20
-3.164856948075908
 30
0.0
 10
5.05714494239746
 20
-3.164856948075908
 30
0.0
 10
5.05714494239746
 20
-3.302354390957425
 30
0.0
 10
5.05714494239746
 20
-3.439847256202698
 30
0.0
 10
5.05714494239746
 20
-3.578672823949129
 30
0.0
 10
5.094636393661769
 20
-3.578672823949129
 30
0.0
 10
5.130391598357884
 20
-3.578672823949129
 30
0.0
 10
5.168992668649921
 20
-3.578672823949129
 30
0.0
 10
5.168992668649921
 20
-3.441015062073486
 30
0.0
 10
5.168992668649921
 20
-3.303115041514818
 30
0.0
 10
5.168992668649921
 20
-3.164394403363846
 30
0.0
 10
5.549836339218396
 20
-3.164394403363846
 30
0.0
 10
5.927849199527978
 20
-3.164394403363846
 30
0.0
 10
6.306855101728703
 20
-3.164394403363846
 30
0.0
 10
6.306855101728703
 20
-3.404645742042703
 30
0.0
 10
6.306855101728703
 20
-3.643851345150854
 30
0.0
 10
6.306855101728703
 20
-3.884858705888228
 30
0.0
 10
6.169230197108832
 20
-3.884858705888228
 30
0.0
 10
6.031674872560024
 20
-3.884858705888228
 30
0.0
 10
5.892930786738904
 20
-3.884858705888228
 30
0.0
 10
5.892930786738904
 20
-3.922922768585156
 30
0.0
 10
5.892930786738904
 20
-3.959205622153389
 30
0.0
 10
5.892930786738904
 20
-3.997051585914177
 30
0.0
 10
6.030731676041379
 20
-3.997051585914177
 30
0.0
 10
6.168226779242155
 20
-3.997051585914177
 30
0.0
 10
6.306710651873598
 20
-3.997051585914177
 30
0.0
 10
6.306710651873598
 20
-4.237755195054837
 30
0.0
 10
6.306710651873598
 20
-4.47690505272596
 30
0.0
 10
6.306710651873598
 20
-4.717468993098274
 30
0.0
 10
5.927096025776462
 20
-4.717468993098274
 30
0.0
 10
5.54861909487608
 20
-4.717468993098274
 30
0.0
 10
5.169077304057989
 20
-4.717468993098274
 30
0.0
 10
5.169077304057989
 20
-4.580198702700145
 30
0.0
 10
5.169077304057989
 20
-4.443206529135725
 30
0.0
 10
5.169077304057989
 20
-4.30504736350248
 30
0.0
 10
5.13224604966663
 20
-4.30504736350248
 30
0.0
 10
5.09644873071698
 20
-4.30504736350248
 30
0.0
 10
5.059520430437058
 20
-4.30504736350248
 30
0.0
 10
5.059520430437058
 20
-4.617935311817114
 30
0.0
 10
5.059520430437058
 20
-4.930986020531842
 30
0.0
 10
5.059520430437058
 20
-5.245359564398478
 30
0.0
 10
5.094934448644456
 20
-5.245359564398478
 30
0.0
 10
5.130672563498567
 20
-5.245359564398478
 30
0.0
 10
5.169286858073128
 20
-5.245359564398478
 30
0.0
 10
5.169286858073128
 20
-5.107449015276416
 30
0.0
 10
5.169286858073128
 20
-4.969538669604857
 30
0.0
 10
5.169286858073128
 20
-4.831109525157962
 30
0.0
 10
5.549840204777903
 20
-4.831109525157962
 30
0.0
 10
5.927533037450758
 20
-4.831109525157962
 30
0.0
 10
6.306537312047491
 20
-4.831109525157962
 30
0.0
 10
6.306537312047491
 20
-5.070451948727459
 30
0.0
 10
6.306537312047491
 20
-5.30951483130976
 30
0.0
 10
6.306537312047491
 20
-5.550955643337677
 30
0.0
 10
6.169041395044713
 20
-5.550955643337677
 30
0.0
 10
6.031580471527958
 20
-5.550955643337677
 30
0.0
 10
5.892928955684397
 20
-5.550955643337677
 30
0.0
 10
5.892928955684397
 20
-5.589629752359264
 30
0.0
 10
5.892928955684397
 20
-5.62595238050028
 30
0.0
 10
5.892928955684397
 20
-5.664065576493006
 30
0.0
 10
6.030458238569205
 20
-5.664065576493006
 30
0.0
 10
6.167906548154948
 20
-5.664065576493006
 30
0.0
 10
6.306595905791507
 20
-5.664065576493006
 30
0.0
 10
6.306595905791507
 20
-5.905424804870361
 30
0.0
 10
6.306595905791507
 20
-6.145006689678515
 30
0.0
 10
6.306595905791507
 20
-6.385624340982859
 30
0.0
 10
5.928053056929103
 20
-6.385624340982859
 30
0.0
 10
5.550089228190068
 20
-6.385624340982859
 30
0.0
 10
5.169821729437987
 20
-6.385624340982859
 30
0.0
 10
5.169821729437987
 20
-6.247423671447627
 30
0.0
 10
5.169821729437987
 20
-6.109932230355853
 30
0.0
 10
5.169821729437987
 20
-5.971499627250447
 30
0.0
 10
5.131710771400776
 20
-5.971499627250447
 30
0.0
 10
5.095891276346606
 20
-5.971499627250447
 30
0.0
 10
5.05872860109053
 20
-5.971499627250447
 30
0.0
 10
5.05872860109053
 20
-6.109256774695394
 30
0.0
 10
5.05872860109053
 20
-6.246733160450149
 30
0.0
 10
5.05872860109053
 20
-6.385430249205733
 30
0.0
 10
4.678994142648801
 20
-6.385430249205733
 30
0.0
 10
4.300594116037473
 20
-6.385430249205733
 30
0.0
 10
3.921138588231441
 20
-6.385430249205733
 30
0.0
  0
HATCH
  5
47
330
41
100
AcDbEntity
  8
Layer 1
 62
     7
420
 16777215
100
AcDbHatch
 10
0.0
 20
0.0
 30
0.0
210
0.0
220
0.0
230
1.0
  2
SOLID
 70
     1
 71
     0
 91
        1
 92
        1
 93
        1
 72
     4
 94
        3
 73
     0
 74
     1
 95
      317
 96
      313
 40
0.0
 40
0.0
 40
0.0
 40
0.0
 40
1.0
 40
1.0
 40
1.0
 40
2.0
 40
2.0
 40
2.0
 40
3.0
 40
3.0
 40
3.0
 40
4.0
 40
4.0
 40
4.0
 40
5.0
 40
5.0
 40
5.0
 40
6.0
 40
6.0
 40
6.0
 40
7.0
 40
7.0
 40
7.0
 40
8.0
 40
8.0
 40
8.0
 40
9.0
 40
9.0
 40
9.0
 40
10.0
 40
10.0
 40
10.0
 40
11.0
 40
11.0
 40
11.0
 40
12.0
 40
12.0
 40
12.0
 40
13.0
 40
13.0
 40
13.0
 40
14.0
 40
14.0
 40
14.0
 40
15.0
 40
15.0
 40
15.0
 40
16.0
 40
16.0
 40
16.0
 40
17.0
 40
17.0
 40
17.0
 40
18.0
 40
18.0
 40
18.0
 40
19.0
 40
19.0
 40
19.0
 40
20.0
 40
20.0
 40
20.0
 40
21.0
 40
21.0
 40
21.0
 40
22.0
 40
22.0
 40
22.0
 40
23.0
 40
23.0
 40
23.0
 40
24.0
 40
24.0
 40
24.0
 40
25.0
 40
25.0
 40
25.0
 40
26.0
 40
26.0
 40
26.0
 40
27.0
 40
27.0
 40
27.0
 40
28.0
 40
28.0
 40
28.0
 40
29.0
 40
29.0
 40
29.0
 40
30.0
 40
30.0
 40
30.0
 40
31.0
 40
31.0
 40
31.0
 40
32.0
 40
32.0
 40
32.0
 40
33.0
 40
33.0
 40
33.0
 40
34.0
 40
34.0
 40
34.0
 40
35.0
 40
35.0
 40
35.0
 40
36.0
 40
36.0
 40
36.0
 40
37.0
 40
37.0
 40
37.0
 40
38.0
 40
38.0
 40
38.0
 40
39.0
 40
39.0
 40
39.0
 40
40.0
 40
40.0
 40
40.0
 40
41.0
 40
41.0
 40
41.0
 40
42.0
 40
42.0
 40
42.0
 40
43.0
 40
43.0
 40
43.0
 40
44.0
 40
44.0
 40
44.0
 40
45.0
 40
45.0
 40
45.0
 40
46.0
 40
46.0
 40
46.0
 40
47.0
 40
47.0
 40
47.0
 40
48.0
 40
48.0
 40
48.0
 40
49.0
 40
49.0
 40
49.0
 40
50.0
 40
50.0
 40
50.0
 40
51.0
 40
51.0
 40
51.0
 40
52.0
 40
52.0
 40
52.0
 40
53.0
 40
53.0
 40
53.0
 40
54.0
 40
54.0
 40
54.0
 40
55.0
 40
55.0
 40
55.0
 40
56.0
 40
56.0
 40
56.0
 40
57.0
 40
57.0
 40
57.0
 40
58.0
 40
58.0
 40
58.0
 40
59.0
 40
59.0
 40
59.0
 40
60.0
 40
60.0
 40
60.0
 40
61.0
 40
61.0
 40
61.0
 40
62.0
 40
62.0
 40
62.0
 40
63.0
 40
63.0
 40
63.0
 40
64.0
 40
64.0
 40
64.0
 40
65.0
 40
65.0
 40
65.0
 40
66.0
 40
66.0
 40
66.0
 40
67.0
 40
67.0
 40
67.0
 40
68.0
 40
68.0
 40
68.0
 40
69.0
 40
69.0
 40
69.0
 40
70.0
 40
70.0
 40
70.0
 40
71.0
 40
71.0
 40
71.0
 40
72.0
 40
72.0
 40
72.0
 40
73.0
 40
73.0
 40
73.0
 40
74.0
 40
74.0
 40
74.0
 40
75.0
 40
75.0
 40
75.0
 40
76.0
 40
76.0
 40
76.0
 40
77.0
 40
77.0
 40
77.0
 40
78.0
 40
78.0
 40
78.0
 40
79.0
 40
79.0
 40
79.0
 40
80.0
 40
80.0
 40
80.0
 40
81.0
 40
81.0
 40
81.0
 40
82.0
 40
82.0
 40
82.0
 40
83.0
 40
83.0
 40
83.0
 40
84.0
 40
84.0
 40
84.0
 40
85.0
 40
85.0
 40
85.0
 40
86.0
 40
86.0
 40
86.0
 40
87.0
 40
87.0
 40
87.0
 40
88.0
 40
88.0
 40
88.0
 40
89.0
 40
89.0
 40
89.0
 40
90.0
 40
90.0
 40
90.0
 40
91.0
 40
91.0
 40
91.0
 40
92.0
 40
92.0
 40
92.0
 40
93.0
 40
93.0
 40
93.0
 40
94.0
 40
94.0
 40
94.0
 40
95.0
 40
95.0
 40
95.0
 40
96.0
 40
96.0
 40
96.0
 40
97.0
 40
97.0
 40
97.0
 40
98.0
 40
98.0
 40
98.0
 40
99.0
 40
99.0
 40
99.0
 40
100.0
 40
100.0
 40
100.0
 40
101.0
 40
101.0
 40
101.0
 40
102.0
 40
102.0
 40
102.0
 40
103.0
 40
103.0
 40
103.0
 40
104.0
 40
104.0
 40
104.0
 40
104.0
 10
3.921138588231441
 20
-6.385430249205733
 10
3.921138588231441
 20
-6.145251237179663
 10
3.921138588231441
 20
-5.905497640149406
 10
3.921138588231441
 20
-5.664545312772323
 10
4.058477644898605
 20
-5.664545312772323
 10
4.195416514432003
 20
-5.664545312772323
 10
4.333722164425327
 20
-5.664545312772323
 10
4.333722164425327
 20
-5.488750856371198
 10
4.333722164425327
 20
-5.314110981558366
 10
4.333722164425327
 20
-5.138063229284575
 10
4.298672729514187
 20
-5.138063229284575
 10
4.262935631912569
 20
-5.138063229284575
 10
4.22537866958722
 20
-5.138063229284575
 10
4.22537866958722
 20
-5.275472476374286
 10
4.22537866958722
 20
-5.413389535912352
 10
4.22537866958722
 20
-5.552311030569588
 10
3.983844575504993
 20
-5.552311030569588
 10
3.744113052853991
 20
-5.552311030569588
 10
3.502335326797846
 20
-5.552311030569588
 10
3.502335326797846
 20
-5.414405364259538
 10
3.502335326797846
 20
-5.276507632518991
 10
3.502335326797846
 20
-5.137641069496794
 10
3.464550194736603
 20
-5.137641069496794
 10
3.428805671191741
 20
-5.137641069496794
 10
3.392119985633232
 20
-5.137641069496794
 10
3.392119985633232
 20
-5.31305059755165
 10
3.392119985633232
 20
-5.487728110707015
 10
3.392119985633232
 20
-5.664222436828595
 10
3.53071087322774
 20
-5.664222436828595
 10
3.668714195777865
 20
-5.664222436828595
 10
3.806843352462313
 20
-5.664222436828595
 10
3.806843352462313
 20
-5.905638224445005
 10
3.806843352462313
 20
-6.145232112832673
 10
3.806843352462313
 20
-6.385740307767946
 10
3.564928704219584
 20
-6.385740307767946
 10
3.32512465146528
 20
-6.385740307767946
 10
3.083813640856457
 20
-6.385740307767946
 10
3.083813640856457
 20
-6.285077069310015
 10
3.083813640856457
 20
-6.184373547653068
 10
3.083813640856457
 20
-6.081983421349983
 10
3.222162574943682
 20
-6.081983421349983
 10
3.360727980363044
 20
-6.081983421349983
 10
3.50052349836887
 20
-6.081983421349983
 10
3.50052349836887
 20
-6.044013861410374
 10
3.50052349836887
 20
-6.007697947135865
 10
3.50052349836887
 20
-5.969303582551952
 10
3.361398858387247
 20
-5.969303582551952
 10
3.222324267228664
 20
-5.969303582551952
 10
3.082235271876395
 20
-5.969303582551952
 10
3.082235271876395
 20
-5.589157340297953
 10
3.082235271876395
 20
-5.211076324070846
 10
3.082235271876395
 20
-4.831781318709406
 10
3.323414599148994
 20
-4.831781318709406
 10
3.56475424541572
 20
-4.831781318709406
 10
3.807496225117259
 20
-4.831781318709406
 10
3.807496225117259
 20
-4.96897877382849
 10
3.807496225117259
 20
-5.106457194088256
 10
3.807496225117259
 20
-5.24530544656544
 10
3.844598679025289
 20
-5.24530544656544
 10
3.880341981867155
 20
-5.24530544656544
 10
3.918946714268208
 20
-5.24530544656544
 10
3.918946714268208
 20
-5.107732625273607
 10
3.918946714268208
 20
-4.969839979795564
 10
3.918946714268208
 20
-4.830992744570873
 10
4.161015883165797
 20
-4.830992744570873
 10
4.400243153752209
 20
-4.830992744570873
 10
4.640879115601579
 20
-4.830992744570873
 10
4.640879115601579
 20
-5.209300404655147
 10
4.640879115601579
 20
-5.587807853130522
 10
4.640879115601579
 20
-5.968182163395189
 10
4.503078429749595
 20
-5.968182163395189
 10
4.365046624129478
 20
-5.968182163395189
 10
4.225769701448485
 20
-5.968182163395189
 10
4.225769701448485
 20
-6.006302683605908
 10
4.225769701448485
 20
-6.042576280176389
 10
4.225769701448485
 20
-6.079713727570454
 10
4.400909657590672
 20
-6.079713727570454
 10
4.575613619311045
 20
-6.079713727570454
 10
4.751816604316432
 20
-6.079713727570454
 10
4.751816604316432
 20
-5.941158240362963
 10
4.751816604316432
 20
-5.803179128422357
 10
4.751816604316432
 20
-5.664280216770635
 10
4.993079397156735
 20
-5.664280216770635
 10
5.232846421920006
 20
-5.664280216770635
 10
5.474047772709266
 20
-5.664280216770635
 10
5.474047772709266
 20
-5.802190969343201
 10
5.474047772709266
 20
-5.940212398987821
 10
5.474047772709266
 20
-6.079397565493233
 10
5.650153101474593
 20
-6.079397565493233
 10
5.824831224981456
 20
-6.079397565493233
 10
6.000634836655081
 20
-6.079397565493233
 10
6.000634836655081
 20
-6.043310329580891
 10
6.000634836655081
 20
-6.00704771933743
 10
6.000634836655081
 20
-5.969820753723297
 10
5.862073042482077
 20
-5.969820753723297
 10
5.723974708548401
 20
-5.969820753723297
 10
5.584968375032607
 20
-5.969820753723297
 10
5.584968375032607
 20
-5.729199236859446
 10
5.584968375032607
 20
-5.489535564950225
 10
5.584968375032607
 20
-5.248469915644566
 10
5.724069313030959
 20
-5.248469915644566
 10
5.861631554896777
 20
-5.248469915644566
 10
6.000473703858966
 20
-5.248469915644566
 10
6.000473703858966
 20
-5.210850900916689
 10
6.000473703858966
 20
-5.174614535787732
 10
6.000473703858966
 20
-5.137511674978706
 10
5.825823453070623
 20
-5.137511674978706
 10
5.65157989983206
 20
-5.137511674978706
 10
5.474952313632873
 20
-5.137511674978706
 10
5.474952313632873
 20
-5.275817324972018
 10
5.474952313632873
 20
-5.414232838235421
 10
5.474952313632873
 20
-5.553508540213392
 10
5.234553371616167
 20
-5.553508540213392
 10
4.996537241857064
 20
-5.553508540213392
 10
4.756806634733303
 20
-5.553508540213392
 10
4.756806634733303
 20
-5.036711107433184
 10
4.756806634733303
 20
-4.520832457111598
 10
4.756806634733303
 20
-4.002760203497524
 10
4.994966197095019
 20
-4.002760203497524
 10
5.233557684868489
 20
-4.002760203497524
 10
5.474161094637844
 20
-4.002760203497524
 10
5.474161094637844
 20
-4.138500342684122
 10
5.474161094637844
 20
-4.275338199044199
 10
5.474161094637844
 20
-4.41303075095536
 10
5.650830591640051
 20
-4.41303075095536
 10
5.825493252908902
 20
-4.41303075095536
 10
6.000859446007224
 20
-4.41303075095536
 10
6.000859446007224
 20
-4.376466627070688
 10
6.000859446007224
 20
-4.34068843246804
 10
6.000859446007224
 20
-4.303871216161206
 10
5.861836836451428
 20
-4.303871216161206
 10
5.723704322833719
 20
-4.303871216161206
 10
5.584494945718789
 20
-4.303871216161206
 10
5.584494945718789
 20
-4.062572209131885
 10
5.584494945718789
 20
-3.822314360037025
 10
5.584494945718789
 20
-3.580766634771294
 10
5.723359067334981
 20
-3.580766634771294
 10
5.861479984274183
 20
-3.580766634771294
 10
6.000676340557106
 20
-3.580766634771294
 10
6.000676340557106
 20
-3.54372674189205
 10
6.000676340557106
 20
-3.507958109462922
 10
6.000676340557106
 20
-3.471086063246275
 10
5.825799852812603
 20
-3.471086063246275
 10
5.651112167132232
 20
-3.471086063246275
 10
5.472563194409759
 20
-3.471086063246275
 10
5.472563194409759
 20
-3.607222829182888
 10
5.472563194409759
 20
-3.743413000875787
 10
5.472563194409759
 20
-3.879736737822024
 10
5.231341702021003
 20
-3.879736737822024
 10
4.993987193288338
 20
-3.879736737822024
 10
4.753604323861143
 20
-3.879736737822024
 10
4.753604323861143
 20
-3.742130550648173
 10
4.753604323861143
 20
-3.606975331649475
 10
4.753604323861143
 20
-3.470917707957419
 10
4.57593649525476
 20
-3.470917707957419
 10
4.40130313085793
 20
-3.470917707957419
 10
4.225867968040057
 20
-3.470917707957419
 10
4.225867968040057
 20
-3.507623840291191
 10
4.225867968040057
 20
-3.543441606016106
 10
4.225867968040057
 20
-3.581031120421471
 10
4.364068841025806
 20
-3.581031120421471
 10
4.501523864478056
 20
-3.581031120421471
 10
4.639750168776319
 20
-3.581031120421471
 10
4.639750168776319
 20
-3.960751235602932
 10
4.639750168776319
 20
-4.338698890027205
 10
4.639750168776319
 20
-4.717764810125471
 10
4.400277536886733
 20
-4.717764810125471
 10
4.162233737859613
 20
-4.717764810125471
 10
3.920829953822742
 20
-4.717764810125471
 10
3.920829953822742
 20
-4.580330335173749
 10
3.920829953822742
 20
-4.443031154804607
 10
3.920829953822742
 20
-4.304812785075834
 10
3.881138694025695
 20
-4.304812785075834
 10
3.84480487610718
 20
-4.304812785075834
 10
3.807472523133987
 20
-4.304812785075834
 10
3.807472523133987
 20
-4.442652940324844
 10
3.807472523133987
 20
-4.579618665324258
 10
3.807472523133987
 20
-4.717730630441464
 10
3.566743686131304
 20
-4.717730630441464
 10
3.327009772936928
 20
-4.717730630441464
 10
3.08618322883155
 20
-4.717730630441464
 10
3.08618322883155
 20
-4.338883012729828
 10
3.08618322883155
 20
-3.960309849742885
 10
3.08618322883155
 20
-3.580314974660988
 10
3.224075721721722
 20
-3.580314974660988
 10
3.361543918593851
 20
-3.580314974660988
 10
3.500384439952035
 20
-3.580314974660988
 10
3.500384439952035
 20
-3.543833553404612
 10
3.500384439952035
 20
-3.507583455366911
 10
3.500384439952035
 20
-3.468803755535747
 10
3.361396518706505
 20
-3.468803755535747
 10
3.222353665825936
 20
-3.468803755535747
 10
3.081705893675033
 20
-3.468803755535747
 10
3.081705893675033
 20
-3.366151635851098
 10
3.081705893675033
 20
-3.266006534954398
 10
3.081705893675033
 20
-3.164877700026914
 10
3.323221015998115
 20
-3.164877700026914
 10
3.564074110393752
 20
-3.164877700026914
 10
3.80583454315739
 20
-3.164877700026914
 10
3.80583454315739
 20
-3.404631907408695
 10
3.80583454315739
 20
-3.643841986427851
 10
3.80583454315739
 20
-3.885239666949726
 10
3.667885847066549
 20
-3.885239666949726
 10
3.530504269244854
 20
-3.885239666949726
 10
3.392162099886743
 20
-3.885239666949726
 10
3.392162099886743
 20
-4.062174768579881
 10
3.392162099886743
 20
-4.236926235992036
 10
3.392162099886743
 20
-4.412790475914713
 10
3.428083218465745
 20
-4.412790475914713
 10
3.463906985980417
 20
-4.412790475914713
 10
3.501383381907708
 20
-4.412790475914713
 10
3.501383381907708
 20
-4.275056318376262
 10
3.501383381907708
 20
-4.13713447775145
 10
3.501383381907708
 20
-3.998227936705967
 10
3.742214961412957
 20
-3.998227936705967
 10
3.981406322986105
 20
-3.998227936705967
 10
4.223169197155736
 20
-3.998227936705967
 10
4.223169197155736
 20
-4.135871660497097
 10
4.223169197155736
 20
-4.27369391210209
 10
4.223169197155736
 20
-4.41241795804894
 10
4.261551558160136
 20
-4.41241795804894
 10
4.297366373852785
 20
-4.41241795804894
 10
4.334138424148616
 20
-4.41241795804894
 10
4.334138424148616
 20
-4.236994493634825
 10
4.334138424148616
 20
-4.062313623546212
 10
4.334138424148616
 20
-3.885706891023296
 10
4.196063487022444
 20
-3.885706891023296
 10
4.058599816923939
 20
-3.885706891023296
 10
3.920064369590717
 20
-3.885706891023296
 10
3.920064369590717
 20
-3.644646327980139
 10
3.920064369590717
 20
-3.405507049735029
 10
3.920064369590717
 20
-3.164856948075908
 10
4.298417399136509
 20
-3.164856948075908
 10
4.676893312784387
 20
-3.164856948075908
 10
5.05714494239746
 20
-3.164856948075908
 10
5.05714494239746
 20
-3.302354390957425
 10
5.05714494239746
 20
-3.439847256202698
 10
5.05714494239746
 20
-3.578672823949129
 10
5.094636393661769
 20
-3.578672823949129
 10
5.130391598357884
 20
-3.578672823949129
 10
5.168992668649921
 20
-3.578672823949129
 10
5.168992668649921
 20
-3.441015062073486
 10
5.168992668649921
 20
-3.303115041514818
 10
5.168992668649921
 20
-3.164394403363846
 10
5.549836339218396
 20
-3.164394403363846
 10
5.927849199527978
 20
-3.164394403363846
 10
6.306855101728703
 20
-3.164394403363846
 10
6.306855101728703
 20
-3.404645742042703
 10
6.306855101728703
 20
-3.643851345150854
 10
6.306855101728703
 20
-3.884858705888228
 10
6.169230197108832
 20
-3.884858705888228
 10
6.031674872560024
 20
-3.884858705888228
 10
5.892930786738904
 20
-3.884858705888228
 10
5.892930786738904
 20
-3.922922768585156
 10
5.892930786738904
 20
-3.959205622153389
 10
5.892930786738904
 20
-3.997051585914177
 10
6.030731676041379
 20
-3.997051585914177
 10
6.168226779242155
 20
-3.997051585914177
 10
6.306710651873598
 20
-3.997051585914177
 10
6.306710651873598
 20
-4.237755195054837
 10
6.306710651873598
 20
-4.47690505272596
 10
6.306710651873598
 20
-4.717468993098274
 10
5.927096025776462
 20
-4.717468993098274
 10
5.54861909487608
 20
-4.717468993098274
 10
5.169077304057989
 20
-4.717468993098274
 10
5.169077304057989
 20
-4.580198702700145
 10
5.169077304057989
 20
-4.443206529135725
 10
5.169077304057989
 20
-4.30504736350248
 10
5.13224604966663
 20
-4.30504736350248
 10
5.09644873071698
 20
-4.30504736350248
 10
5.059520430437058
 20
-4.30504736350248
 10
5.059520430437058
 20
-4.617935311817114
 10
5.059520430437058
 20
-4.930986020531842
 10
5.059520430437058
 20
-5.245359564398478
 10
5.094934448644456
 20
-5.245359564398478
 10
5.130672563498567
 20
-5.245359564398478
 10
5.169286858073128
 20
-5.245359564398478
 10
5.169286858073128
 20
-5.107449015276416
 10
5.169286858073128
 20
-4.969538669604857
 10
5.169286858073128
 20
-4.831109525157962
 10
5.549840204777903
 20
-4.831109525157962
 10
5.927533037450758
 20
-4.831109525157962
 10
6.306537312047491
 20
-4.831109525157962
 10
6.306537312047491
 20
-5.070451948727459
 10
6.306537312047491
 20
-5.30951483130976
 10
6.306537312047491
 20
-5.550955643337677
 10
6.169041395044713
 20
-5.550955643337677
 10
6.031580471527958
 20
-5.550955643337677
 10
5.892928955684397
 20
-5.550955643337677
 10
5.892928955684397
 20
-5.589629752359264
 10
5.892928955684397
 20
-5.62595238050028
 10
5.892928955684397
 20
-5.664065576493006
 10
6.030458238569205
 20
-5.664065576493006
 10
6.167906548154948
 20
-5.664065576493006
 10
6.306595905791507
 20
-5.664065576493006
 10
6.306595905791507
 20
-5.905424804870361
 10
6.306595905791507
 20
-6.145006689678515
 10
6.306595905791507
 20
-6.385624340982859
 10
5.928053056929103
 20
-6.385624340982859
 10
5.550089228190068
 20
-6.385624340982859
 10
5.169821729437987
 20
-6.385624340982859
 10
5.169821729437987
 20
-6.247423671447627
 10
5.169821729437987
 20
-6.109932230355853
 10
5.169821729437987
 20
-5.971499627250447
 10
5.131710771400776
 20
-5.971499627250447
 10
5.095891276346606
 20
-5.971499627250447
 10
5.05872860109053
 20
-5.971499627250447
 10
5.05872860109053
 20
-6.109256774695394
 10
5.05872860109053
 20
-6.246733160450149
 10
5.05872860109053
 20
-6.385430249205733
 10
4.678994142648801
 20
-6.385430249205733
 10
4.300594116037473
 20
-6.385430249205733
 10
3.921138588231441
 20
-6.385430249205733
 97
        0
 97
        0
 75
     2
 76
     1
 98
        0
  0
ENDBLK
  5
44
330
41
100
AcDbEntity
  8
0
100
AcDbBlockEnd
  0
ENDSEC
  0
SECTION
  2
ENTITIES
  0
INSERT
  5
42
330
1F
100
AcDbEntity
  8
Layer 1
100
AcDbBlockReference
  2
block 2
 10
0.0
 20
0.0
 30
0.0
  0
ENDSEC
  0
SECTION
  2
OBJECTS
  0
DICTIONARY
  5
C
330
0
100
AcDbDictionary
281
     1
  3
ACAD_GROUP
350
D
  3
ACAD_LAYOUT
350
1A
  3
ACAD_MATERIAL
350
3B
  3
ACAD_MLEADERSTYLE
350
49
  3
ACAD_MLINESTYLE
350
17
  3
ACAD_PLOTSETTINGS
350
19
  3
ACAD_PLOTSTYLENAME
350
E
  3
ACAD_TABLESTYLE
350
48
  3
ACAD_VISUALSTYLE
350
2A
  0
SUN
  5
3F
330
29
100
AcDbSun
 90
        1
290
     0
 63
     7
421
 16777215
 40
1.0
291
     1
 91
  2455826
 92
 54000000
292
     0
 70
     2
 71
   256
280
     1
  0
DICTIONARY
  5
D
102
{ACAD_REACTORS
330
C
102
}
330
C
100
AcDbDictionary
281
     1
  0
DICTIONARY
  5
1A
102
{ACAD_REACTORS
330
C
102
}
330
C
100
AcDbDictionary
281
     1
  3
Layout1
350
1E
  3
Layout2
350
26
  3
Model
350
22
  0
DICTIONARY
  5
3B
102
{ACAD_REACTORS
330
C
102
}
330
C
100
AcDbDictionary
281
     1
  3
ByBlock
350
3D
  3
ByLayer
350
3C
  3
Global
350
3E
  0
DICTIONARY
  5
49
102
{ACAD_REACTORS
330
C
102
}
330
C
100
AcDbDictionary
281
     1
  0
DICTIONARY
  5
17
102
{ACAD_REACTORS
330
C
102
}
330
C
100
AcDbDictionary
281
     1
  3
Standard
350
18
  0
DICTIONARY
  5
19
102
{ACAD_REACTORS
330
C
102
}
330
C
100
AcDbDictionary
281
     1
  0
ACDBDICTIONARYWDFLT
  5
E
102
{ACAD_REACTORS
330
C
102
}
330
C
100
AcDbDictionary
281
     1
  3
Normal
350
F
100
AcDbDictionaryWithDefault
340
F
  0
DICTIONARY
  5
48
102
{ACAD_REACTORS
330
C
102
}
330
C
100
AcDbDictionary
281
     1
  0
DICTIONARY
  5
2A
102
{ACAD_REACTORS
330
C
102
}
330
C
100
AcDbDictionary
281
     1
  3
2dWireframe
350
2F
  3
3D Hidden
350
31
  3
3dWireframe
350
30
  3
Basic
350
32
  3
Brighten
350
36
  3
ColorChange
350
3A
  3
Conceptual
350
34
  3
Dim
350
35
  3
Facepattern
350
39
  3
Flat
350
2B
  3
FlatWithEdges
350
2C
  3
Gouraud
350
2D
  3
GouraudWithEdges
350
2E
  3
Linepattern
350
38
  3
Realistic
350
33
  3
Thicken
350
37
  0
LAYOUT
  5
1E
102
{ACAD_REACTORS
330
1A
102
}
330
1A
100
AcDbPlotSettings
  1

  2
none_device
  4

  6

 40
0.0
 41
0.0
 42
0.0
 43
0.0
 44
0.0
 45
0.0
 46
0.0
 47
0.0
 48
0.0
 49
0.0
140
0.0
141
0.0
142
1.0
143
1.0
 70
   688
 72
     0
 73
     0
 74
     5
  7

 75
    16
 76
     0
 77
     2
 78
   300
147
1.0
148
0.0
149
0.0
100
AcDbLayout
  1
Layout1
 70
     1
 71
     1
 10
0.0
 20
0.0
 11
12.0
 21
9.0
 12
0.0
 22
0.0
 32
0.0
 14
1.000000000000000E+20
 24
1.000000000000000E+20
 34
1.000000000000000E+20
 15
-1.000000000000000E+20
 25
-1.000000000000000E+20
 35
-1.000000000000000E+20
146
0.0
 13
0.0
 23
0.0
 33
0.0
 16
1.0
 26
0.0
 36
0.0
 17
0.0
 27
1.0
 37
0.0
 76
     0
330
1B
  0
LAYOUT
  5
26
102
{ACAD_REACTORS
330
1A
102
}
330
1A
100
AcDbPlotSettings
  1

  2
none_device
  4

  6

 40
0.0
 41
0.0
 42
0.0
 43
0.0
 44
0.0
 45
0.0
 46
0.0
 47
0.0
 48
0.0
 49
0.0
140
0.0
141
0.0
142
1.0
143
1.0
 70
   688
 72
     0
 73
     0
 74
     5
  7

 75
    16
 76
     0
 77
     2
 78
   300
147
1.0
148
0.0
149
0.0
100
AcDbLayout
  1
Layout2
 70
     1
 71
     2
 10
0.0
 20
0.0
 11
0.0
 21
0.0
 12
0.0
 22
0.0
 32
0.0
 14
0.0
 24
0.0
 34
0.0
 15
0.0
 25
0.0
 35
0.0
146
0.0
 13
0.0
 23
0.0
 33
0.0
 16
1.0
 26
0.0
 36
0.0
 17
0.0
 27
1.0
 37
0.0
 76
     0
330
23
  0
LAYOUT
  5
22
102
{ACAD_REACTORS
330
1A
102
}
330
1A
100
AcDbPlotSettings
  1

  2
none_device
  4

  6

 40
0.0
 41
0.0
 42
0.0
 43
0.0
 44
0.0
 45
0.0
 46
0.0
 47
0.0
 48
0.0
 49
0.0
140
0.0
141
0.0
142
1.0
143
1.0
 70
  1712
 72
     0
 73
     0
 74
     0
  7

 75
     0
 76
     0
 77
     2
 78
   300
147
1.0
148
0.0
149
0.0
100
AcDbLayout
  1
Model
 70
     1
 71
     0
 10
0.0
 20
0.0
 11
12.0
 21
9.0
 12
0.0
 22
0.0
 32
0.0
 14
1.000000000000000E+20
 24
1.000000000000000E+20
 34
1.000000000000000E+20
 15
-1.000000000000000E+20
 25
-1.000000000000000E+20
 35
-1.000000000000000E+20
146
0.0
 13
0.0
 23
0.0
 33
0.0
 16
1.0
 26
0.0
 36
0.0
 17
0.0
 27
1.0
 37
0.0
 76
     0
330
1F
331
29
  0
MATERIAL
  5
3D
102
{ACAD_REACTORS
330
3B
102
}
330
3B
100
AcDbMaterial
  1
ByBlock
 72
     1
 94
      127
  0
MATERIAL
  5
3C
102
{ACAD_REACTORS
330
3B
102
}
330
3B
100
AcDbMaterial
  1
ByLayer
 72
     1
 94
      127
  0
MATERIAL
  5
3E
102
{ACAD_REACTORS
330
3B
102
}
330
3B
100
AcDbMaterial
  1
Global
 72
     1
 94
      127
  0
MLINESTYLE
  5
18
102
{ACAD_REACTORS
330
17
102
}
330
17
100
AcDbMlineStyle
  2
Standard
 70
     0
  3

 62
   256
 51
90.0
 52
90.0
 71
     2
 49
0.5
 62
   256
  6
BYLAYER
 49
-0.5
 62
   256
  6
BYLAYER
  0
ACDBPLACEHOLDER
  5
F
102
{ACAD_REACTORS
330
E
102
}
330
E
  0
VISUALSTYLE
  5
2F
102
{ACAD_REACTORS
330
2A
102
}
330
2A
100
AcDbVisualStyle
  2
2dWireframe
 70
     4
177
     2
291
     0
 71
     0
176
     1
 72
     2
176
     1
 73
     0
176
     1
 90
        0
176
     1
 40
-0.6
176
     1
 41
-30.0
176
     1
 62
     5
 63
     7
421
 16777215
176
     1
 74
     1
176
     1
 91
        4
176
     1
 64
     7
176
     1
 65
   257
176
     1
 75
     1
176
     1
175
     1
176
     1
 42
1.0
176
     1
 92
        0
176
     1
 66
   257
176
     1
 43
1.0
176
     1
 76
     1
176
     1
 77
     6
176
     1
 78
     2
176
     1
 67
     7
176
     1
 79
     5
176
     1
170
     0
176
     1
171
     0
176
     1
290
     0
176
     1
 93
        1
176
     1
 44
0.0
176
     1
173
     0
176
     1
  0
VISUALSTYLE
  5
31
102
{ACAD_REACTORS
330
2A
102
}
330
2A
100
AcDbVisualStyle
  2
3D Hidden
 70
     6
177
     2
291
     0
 71
     1
176
     1
 72
     2
176
     1
 73
     2
176
     1
 90
        0
176
     1
 40
-0.6
176
     1
 41
-30.0
176
     1
 62
     5
 63
     7
421
 16777215
176
     1
 74
     2
176
     1
 91
        2
176
     1
 64
     7
176
     1
 65
   257
176
     1
 75
     2
176
     1
175
     1
176
     1
 42
40.0
176
     1
 92
        0
176
     1
 66
   257
176
     1
 43
1.0
176
     1
 76
     1
176
     1
 77
     6
176
     1
 78
     2
176
     1
 67
     7
176
     1
 79
     3
176
     1
170
     0
176
     1
171
     0
176
     1
290
     0
176
     1
 93
        1
176
     1
 44
0.0
176
     1
173
     0
176
     1
  0
VISUALSTYLE
  5
30
102
{ACAD_REACTORS
330
2A
102
}
330
2A
100
AcDbVisualStyle
  2
3dWireframe
 70
     5
177
     2
291
     0
 71
     0
176
     1
 72
     2
176
     1
 73
     0
176
     1
 90
        0
176
     1
 40
-0.6
176
     1
 41
-30.0
176
     1
 62
     5
 63
     7
421
 16777215
176
     1
 74
     1
176
     1
 91
        4
176
     1
 64
     7
176
     1
 65
   257
176
     1
 75
     1
176
     1
175
     1
176
     1
 42
1.0
176
     1
 92
        0
176
     1
 66
   257
176
     1
 43
1.0
176
     1
 76
     1
176
     1
 77
     6
176
     1
 78
     2
176
     1
 67
     7
176
     1
 79
     5
176
     1
170
     0
176
     1
171
     0
176
     1
290
     0
176
     1
 93
        1
176
     1
 44
0.0
176
     1
173
     0
176
     1
  0
VISUALSTYLE
  5
32
102
{ACAD_REACTORS
330
2A
102
}
330
2A
100
AcDbVisualStyle
  2
Basic
 70
     7
177
     2
291
     1
 71
     1
176
     1
 72
     0
176
     1
 73
     1
176
     1
 90
        0
176
     1
 40
-0.6
176
     1
 41
-30.0
176
     1
 62
     5
 63
     7
421
 16777215
176
     1
 74
     0
176
     1
 91
        4
176
     1
 64
     7
176
     1
 65
   257
176
     1
 75
     1
176
     1
175
     1
176
     1
 42
1.0
176
     1
 92
        8
176
     1
 66
     7
176
     1
 43
1.0
176
     1
 76
     1
176
     1
 77
     6
176
     1
 78
     2
176
     1
 67
     7
176
     1
 79
     5
176
     1
170
     0
176
     1
171
     0
176
     1
290
     0
176
     1
 93
        1
176
     1
 44
0.0
176
     1
173
     0
176
     1
  0
VISUALSTYLE
  5
36
102
{ACAD_REACTORS
330
2A
102
}
330
2A
100
AcDbVisualStyle
  2
Brighten
 70
    12
177
     2
291
     1
 71
     2
176
     1
 72
     2
176
     1
 73
     0
176
     1
 90
        0
176
     1
 40
-0.6
176
     1
 41
-30.0
176
     1
 62
     5
 63
     7
421
 16777215
176
     1
 74
     1
176
     1
 91
        4
176
     1
 64
     7
176
     1
 65
   257
176
     1
 75
     1
176
     1
175
     1
176
     1
 42
1.0
176
     1
 92
        8
176
     1
 66
     7
176
     1
 43
1.0
176
     1
 76
     1
176
     1
 77
     6
176
     1
 78
     2
176
     1
 67
     7
176
     1
 79
     5
176
     1
170
     0
176
     1
171
     0
176
     1
290
     0
176
     1
 93
        1
176
     1
 44
50.0
176
     1
173
     0
176
     1
  0
VISUALSTYLE
  5
3A
102
{ACAD_REACTORS
330
2A
102
}
330
2A
100
AcDbVisualStyle
  2
ColorChange
 70
    16
177
     2
291
     1
 71
     2
176
     1
 72
     2
176
     1
 73
     3
176
     1
 90
        0
176
     1
 40
-0.6
176
     1
 41
-30.0
176
     1
 62
     5
 63
     8
421
  8421504
176
     1
 74
     1
176
     1
 91
        4
176
     1
 64
     7
176
     1
 65
   257
176
     1
 75
     1
176
     1
175
     1
176
     1
 42
1.0
176
     1
 92
        8
176
     1
 66
     8
424
  8421504
176
     1
 43
1.0
176
     1
 76
     1
176
     1
 77
     6
176
     1
 78
     2
176
     1
 67
     7
176
     1
 79
     5
176
     1
170
     0
176
     1
171
     0
176
     1
290
     0
176
     1
 93
        1
176
     1
 44
0.0
176
     1
173
     0
176
     1
  0
VISUALSTYLE
  5
34
102
{ACAD_REACTORS
330
2A
102
}
330
2A
100
AcDbVisualStyle
  2
Conceptual
 70
     9
177
     2
291
     0
 71
     3
176
     1
 72
     2
176
     1
 73
     0
176
     1
 90
        0
176
     1
 40
-0.6
176
     1
 41
-30.0
176
     1
 62
     5
 63
     7
421
 16777215
176
     1
 74
     2
176
     1
 91
        2
176
     1
 64
     7
176
     1
 65
   257
176
     1
 75
     1
176
     1
175
     1
176
     1
 42
40.0
176
     1
 92
        8
176
     1
 66
     7
176
     1
 43
1.0
176
     1
 76
     1
176
     1
 77
     6
176
     1
 78
     2
176
     1
 67
     7
176
     1
 79
     3
176
     1
170
     0
176
     1
171
     0
176
     1
290
     0
176
     1
 93
        1
176
     1
 44
0.0
176
     1
173
     0
176
     1
  0
VISUALSTYLE
  5
35
102
{ACAD_REACTORS
330
2A
102
}
330
2A
100
AcDbVisualStyle
  2
Dim
 70
    11
177
     2
291
     1
 71
     2
176
     1
 72
     2
176
     1
 73
     0
176
     1
 90
        0
176
     1
 40
-0.6
176
     1
 41
-30.0
176
     1
 62
     5
 63
     7
421
 16777215
176
     1
 74
     1
176
     1
 91
        4
176
     1
 64
     7
176
     1
 65
   257
176
     1
 75
     1
176
     1
175
     1
176
     1
 42
1.0
176
     1
 92
        8
176
     1
 66
     7
176
     1
 43
1.0
176
     1
 76
     1
176
     1
 77
     6
176
     1
 78
     2
176
     1
 67
     7
176
     1
 79
     5
176
     1
170
     0
176
     1
171
     0
176
     1
290
     0
176
     1
 93
        1
176
     1
 44
-50.0
176
     1
173
     0
176
     1
  0
VISUALSTYLE
  5
39
102
{ACAD_REACTORS
330
2A
102
}
330
2A
100
AcDbVisualStyle
  2
Facepattern
 70
    15
177
     2
291
     1
 71
     2
176
     1
 72
     2
176
     1
 73
     0
176
     1
 90
        0
176
     1
 40
-0.6
176
     1
 41
-30.0
176
     1
 62
     5
 63
     7
421
 16777215
176
     1
 74
     1
176
     1
 91
        4
176
     1
 64
     7
176
     1
 65
   257
176
     1
 75
     1
176
     1
175
     1
176
     1
 42
1.0
176
     1
 92
        8
176
     1
 66
     7
176
     1
 43
1.0
176
     1
 76
     1
176
     1
 77
     6
176
     1
 78
     2
176
     1
 67
     7
176
     1
 79
     5
176
     1
170
     0
176
     1
171
     0
176
     1
290
     0
176
     1
 93
        1
176
     1
 44
0.0
176
     1
173
     0
176
     1
  0
VISUALSTYLE
  5
2B
102
{ACAD_REACTORS
330
2A
102
}
330
2A
100
AcDbVisualStyle
  2
Flat
 70
     0
177
     2
291
     1
 71
     2
176
     1
 72
     1
176
     1
 73
     1
176
     1
 90
        2
176
     1
 40
-0.6
176
     1
 41
30.0
176
     1
 62
     5
 63
     7
421
 16777215
176
     1
 74
     0
176
     1
 91
        4
176
     1
 64
     7
176
     1
 65
   257
176
     1
 75
     1
176
     1
175
     1
176
     1
 42
1.0
176
     1
 92
        8
176
     1
 66
     7
176
     1
 43
1.0
176
     1
 76
     1
176
     1
 77
     6
176
     1
 78
     2
176
     1
 67
     7
176
     1
 79
     5
176
     1
170
     0
176
     1
171
     0
176
     1
290
     0
176
     1
 93
       13
176
     1
 44
0.0
176
     1
173
     0
176
     1
  0
VISUALSTYLE
  5
2C
102
{ACAD_REACTORS
330
2A
102
}
330
2A
100
AcDbVisualStyle
  2
FlatWithEdges
 70
     1
177
     2
291
     1
 71
     2
176
     1
 72
     1
176
     1
 73
     1
176
     1
 90
        2
176
     1
 40
-0.6
176
     1
 41
30.0
176
     1
 62
     5
 63
     7
421
 16777215
176
     1
 74
     1
176
     1
 91
        4
176
     1
 64
     7
176
     1
 65
   257
176
     1
 75
     1
176
     1
175
     1
176
     1
 42
1.0
176
     1
 92
        0
176
     1
 66
   257
176
     1
 43
1.0
176
     1
 76
     1
176
     1
 77
     6
176
     1
 78
     2
176
     1
 67
     7
176
     1
 79
     5
176
     1
170
     0
176
     1
171
     0
176
     1
290
     0
176
     1
 93
       13
176
     1
 44
0.0
176
     1
173
     0
176
     1
  0
VISUALSTYLE
  5
2D
102
{ACAD_REACTORS
330
2A
102
}
330
2A
100
AcDbVisualStyle
  2
Gouraud
 70
     2
177
     2
291
     1
 71
     2
176
     1
 72
     2
176
     1
 73
     1
176
     1
 90
        2
176
     1
 40
-0.6
176
     1
 41
30.0
176
     1
 62
     5
 63
     7
421
 16777215
176
     1
 74
     0
176
     1
 91
        4
176
     1
 64
     7
176
     1
 65
   257
176
     1
 75
     1
176
     1
175
     1
176
     1
 42
1.0
176
     1
 92
        0
176
     1
 66
     7
176
     1
 43
1.0
176
     1
 76
     1
176
     1
 77
     6
176
     1
 78
     2
176
     1
 67
     7
176
     1
 79
     5
176
     1
170
     0
176
     1
171
     0
176
     1
290
     0
176
     1
 93
       13
176
     1
 44
0.0
176
     1
173
     0
176
     1
  0
VISUALSTYLE
  5
2E
102
{ACAD_REACTORS
330
2A
102
}
330
2A
100
AcDbVisualStyle
  2
GouraudWithEdges
 70
     3
177
     2
291
     1
 71
     2
176
     1
 72
     2
176
     1
 73
     1
176
     1
 90
        2
176
     1
 40
-0.6
176
     1
 41
30.0
176
     1
 62
     5
 63
     7
421
 16777215
176
     1
 74
     1
176
     1
 91
        4
176
     1
 64
     7
176
     1
 65
   257
176
     1
 75
     1
176
     1
175
     1
176
     1
 42
1.0
176
     1
 92
        0
176
     1
 66
   257
176
     1
 43
1.0
176
     1
 76
     1
176
     1
 77
     6
176
     1
 78
     2
176
     1
 67
     7
176
     1
 79
     5
176
     1
170
     0
176
     1
171
     0
176
     1
290
     0
176
     1
 93
       13
176
     1
 44
0.0
176
     1
173
     0
176
     1
  0
VISUALSTYLE
  5
38
102
{ACAD_REACTORS
330
2A
102
}
330
2A
100
AcDbVisualStyle
  2
Linepattern
 70
    14
177
     2
291
     1
 71
     2
176
     1
 72
     2
176
     1
 73
     0
176
     1
 90
        0
176
     1
 40
-0.6
176
     1
 41
-30.0
176
     1
 62
     5
 63
     7
421
 16777215
176
     1
 74
     1
176
     1
 91
        4
176
     1
 64
     7
176
     1
 65
   257
176
     1
 75
     7
176
     1
175
     7
176
     1
 42
1.0
176
     1
 92
        8
176
     1
 66
     7
176
     1
 43
1.0
176
     1
 76
     1
176
     1
 77
     6
176
     1
 78
     2
176
     1
 67
     7
176
     1
 79
     5
176
     1
170
     0
176
     1
171
     0
176
     1
290
     0
176
     1
 93
        1
176
     1
 44
0.0
176
     1
173
     0
176
     1
  0
VISUALSTYLE
  5
33
102
{ACAD_REACTORS
330
2A
102
}
330
2A
100
AcDbVisualStyle
  2
Realistic
 70
     8
177
     2
291
     0
 71
     2
176
     1
 72
     2
176
     1
 73
     0
176
     1
 90
        0
176
     1
 40
-0.6
176
     1
 41
-30.0
176
     1
 62
     5
 63
     7
421
 16777215
176
     1
 74
     1
176
     1
 91
        0
176
     1
 64
     7
176
     1
 65
   257
176
     1
 75
     1
176
     1
175
     1
176
     1
 42
1.0
176
     1
 92
        8
176
     1
 66
     8
424
  7895160
176
     1
 43
1.0
176
     1
 76
     1
176
     1
 77
     6
176
     1
 78
     2
176
     1
 67
     7
176
     1
 79
     5
176
     1
170
     0
176
     1
171
     0
176
     1
290
     0
176
     1
 93
       13
176
     1
 44
0.0
176
     1
173
     0
176
     1
  0
VISUALSTYLE
  5
37
102
{ACAD_REACTORS
330
2A
102
}
330
2A
100
AcDbVisualStyle
  2
Thicken
 70
    13
177
     2
291
     1
 71
     2
176
     1
 72
     2
176
     1
 73
     0
176
     1
 90
        0
176
     1
 40
-0.6
176
     1
 41
-30.0
176
     1
 62
     5
 63
     7
421
 16777215
176
     1
 74
     1
176
     1
 91
        4
176
     1
 64
     7
176
     1
 65
   257
176
     1
 75
     1
176
     1
175
     1
176
     1
 42
1.0
176
     1
 92
       12
176
     1
 66
     7
176
     1
 43
1.0
176
     1
 76
     1
176
     1
 77
     6
176
     1
 78
     2
176
     1
 67
     7
176
     1
 79
     5
176
     1
170
     0
176
     1
171
     0
176
     1
290
     0
176
     1
 93
        1
176
     1
 44
0.0
176
     1
173
     0
176
     1
  0
ENDSEC
  0
EOF
